<svg width="142" height="10" viewBox="0 0 142 10" fill="none" xmlns="http://www.w3.org/2000/svg">
<g id="Frame 1707479829">
<rect id="Rectangle 3561" width="2" height="10" rx="1" fill="#FF188C"/>
<rect id="Rectangle 3819" x="40" width="2" height="10" rx="1" fill="#434343"/>
<rect id="Rectangle 3829" x="80" width="2" height="10" rx="1" fill="#434343"/>
<rect id="Rectangle 3814" x="20" width="2" height="10" rx="1" fill="#FF188C"/>
<rect id="Rectangle 3820" x="60" width="2" height="10" rx="1" fill="#434343"/>
<rect id="Rectangle 3830" x="100" width="2" height="10" rx="1" fill="#434343"/>
<rect id="Rectangle 3839" x="124" width="2" height="10" rx="1" fill="#434343"/>
<rect id="Rectangle 3810" x="4" width="2" height="10" rx="1" fill="#FF188C"/>
<rect id="Rectangle 3821" x="44" width="2" height="10" rx="1" fill="#434343"/>
<rect id="Rectangle 3831" x="84" width="2" height="10" rx="1" fill="#434343"/>
<rect id="Rectangle 3815" x="24" width="2" height="10" rx="1" fill="#434343"/>
<rect id="Rectangle 3822" x="64" width="2" height="10" rx="1" fill="#434343"/>
<rect id="Rectangle 3832" x="104" width="2" height="10" rx="1" fill="#434343"/>
<rect id="Rectangle 3840" x="128" width="2" height="10" rx="1" fill="#434343"/>
<rect id="Rectangle 3811" x="8" width="2" height="10" rx="1" fill="#FF188C"/>
<rect id="Rectangle 3823" x="48" width="2" height="10" rx="1" fill="#434343"/>
<rect id="Rectangle 3833" x="88" width="2" height="10" rx="1" fill="#434343"/>
<rect id="Rectangle 3816" x="28" width="2" height="10" rx="1" fill="#434343"/>
<rect id="Rectangle 3824" x="68" width="2" height="10" rx="1" fill="#434343"/>
<rect id="Rectangle 3834" x="108" width="2" height="10" rx="1" fill="#434343"/>
<rect id="Rectangle 3841" x="132" width="2" height="10" rx="1" fill="#434343"/>
<rect id="Rectangle 3812" x="12" width="2" height="10" rx="1" fill="#FF188C"/>
<rect id="Rectangle 3825" x="52" width="2" height="10" rx="1" fill="#434343"/>
<rect id="Rectangle 3835" x="92" width="2" height="10" rx="1" fill="#434343"/>
<rect id="Rectangle 3817" x="32" width="2" height="10" rx="1" fill="#434343"/>
<rect id="Rectangle 3826" x="72" width="2" height="10" rx="1" fill="#434343"/>
<rect id="Rectangle 3836" x="112" width="2" height="10" rx="1" fill="#434343"/>
<rect id="Rectangle 3842" x="136" width="2" height="10" rx="1" fill="#434343"/>
<rect id="Rectangle 3813" x="16" width="2" height="10" rx="1" fill="#FF188C"/>
<rect id="Rectangle 3827" x="56" width="2" height="10" rx="1" fill="#434343"/>
<rect id="Rectangle 3837" x="96" width="2" height="10" rx="1" fill="#434343"/>
<rect id="Rectangle 3843" x="120" width="2" height="10" rx="1" fill="#434343"/>
<rect id="Rectangle 3818" x="36" width="2" height="10" rx="1" fill="#434343"/>
<rect id="Rectangle 3828" x="76" width="2" height="10" rx="1" fill="#434343"/>
<rect id="Rectangle 3838" x="116" width="2" height="10" rx="1" fill="#434343"/>
<rect id="Rectangle 3844" x="140" width="2" height="10" rx="1" fill="#434343"/>
</g>
</svg>
