<svg width="32" height="32" viewBox="0 0 32 32" fill="none" xmlns="http://www.w3.org/2000/svg">
<circle cx="16" cy="16" r="16" fill="#363636"/>
<path fill-rule="evenodd" clip-rule="evenodd" d="M16 7C11.0275 7 7 11.1294 7 16.2276C7 20.3109 9.57625 23.7597 13.1537 24.9824C13.6037 25.0631 13.7725 24.7863 13.7725 24.5441C13.7725 24.3249 13.7613 23.5982 13.7613 22.8254C11.5 23.2522 10.915 22.2602 10.735 21.7412C10.6337 21.4759 10.195 20.6569 9.8125 20.4378C9.4975 20.2647 9.0475 19.838 9.80125 19.8264C10.51 19.8149 11.0163 20.4954 11.185 20.7723C11.995 22.1679 13.2888 21.7758 13.8063 21.5335C13.885 20.9337 14.1213 20.53 14.38 20.2993C12.3775 20.0687 10.285 19.2728 10.285 15.7432C10.285 14.7397 10.6337 13.9092 11.2075 13.2633C11.1175 13.0326 10.8025 12.0867 11.2975 10.8179C11.2975 10.8179 12.0512 10.5757 13.7725 11.7638C14.4925 11.5561 15.2575 11.4523 16.0225 11.4523C16.7875 11.4523 17.5525 11.5561 18.2725 11.7638C19.9938 10.5642 20.7475 10.8179 20.7475 10.8179C21.2425 12.0867 20.9275 13.0326 20.8375 13.2633C21.4113 13.9092 21.76 14.7282 21.76 15.7432C21.76 19.2843 19.6562 20.0687 17.6538 20.2993C17.98 20.5877 18.2613 21.1414 18.2613 22.0065C18.2613 23.2407 18.25 24.2326 18.25 24.5441C18.25 24.7863 18.4188 25.0747 18.8688 24.9824C22.4238 23.7597 25 20.2993 25 16.2276C25 11.1294 20.9725 7 16 7Z" fill="#F5F5F5"/>
</svg>
