<svg width="32" height="32" viewBox="0 0 32 32" fill="none" xmlns="http://www.w3.org/2000/svg">
<g clip-path="url(#clip0_37_4148)">
<path d="M16 32C24.8366 32 32 24.8366 32 16C32 7.16344 24.8366 0 16 0C7.16344 0 0 7.16344 0 16C0 24.8366 7.16344 32 16 32Z" fill="#363636"/>
<path d="M9.8552 22.1454C10.9096 23.1998 12.6067 23.1998 16.0008 23.1998C19.3949 23.1998 21.0919 23.1998 22.1464 22.1454C23.2008 21.091 23.2008 19.3939 23.2008 15.9998C23.2008 12.6057 23.2008 10.9086 22.1464 9.85423C21.0919 8.79981 19.3949 8.7998 16.0008 8.7998C12.6067 8.7998 10.9096 8.79981 9.8552 9.85423C8.80078 10.9086 8.80078 12.6057 8.80078 15.9998C8.80078 19.3939 8.80078 21.091 9.8552 22.1454Z" fill="white"/>
<path fill-rule="evenodd" clip-rule="evenodd" d="M12.8837 14.0582V19.5113H14.3709V14.0582H12.8837ZM12.7598 12.5552C12.7598 13.038 13.1484 13.4296 13.6273 13.4296C14.1067 13.4296 14.4948 13.038 14.4948 12.5552C14.4948 12.0723 14.1062 11.6807 13.6273 11.6807C13.1484 11.6807 12.7598 12.0723 12.7598 12.5552ZM18.8326 19.5113H20.3198V16.1607C20.3198 13.5565 17.5417 13.6512 16.8496 14.9332V14.0582H15.3624V19.5113H16.8496V16.7332C16.8496 15.19 18.8326 15.0636 18.8326 16.7332V19.5113Z" fill="#363636"/>
</g>
<defs>
<clipPath id="clip0_37_4148">
<rect width="32" height="32" fill="white"/>
</clipPath>
</defs>
</svg>
