<svg width="32" height="32" viewBox="0 0 32 32" fill="none" xmlns="http://www.w3.org/2000/svg">
<g clip-path="url(#clip0_37_4146)">
<path d="M16 32C24.8366 32 32 24.8366 32 16C32 7.16344 24.8366 0 16 0C7.16344 0 0 7.16344 0 16C0 24.8366 7.16344 32 16 32Z" fill="#363636"/>
<path d="M21.2565 11.4219C21.1475 11.3661 21.0414 11.3048 20.9385 11.2385C20.6394 11.0427 20.3653 10.8119 20.1219 10.5512C19.5127 9.86091 19.2853 9.16061 19.2015 8.6703H19.2049C19.1349 8.26332 19.1638 8 19.1682 8H16.394V18.6255C16.394 18.7682 16.394 18.9091 16.388 19.0484C16.388 19.0658 16.3863 19.0818 16.3853 19.1004C16.3853 19.1082 16.3853 19.1162 16.3836 19.1242V19.1301C16.3544 19.5113 16.231 19.8797 16.0243 20.2026C15.8177 20.5255 15.5341 20.7931 15.1985 20.982C14.8487 21.1792 14.4531 21.2825 14.0506 21.282C12.7582 21.282 11.7106 20.2381 11.7106 18.9488C11.7106 17.6595 12.7582 16.6156 14.0506 16.6156C14.2953 16.6153 14.5385 16.6535 14.7711 16.7285L14.7745 13.9307C14.0683 13.8403 13.3509 13.896 12.6673 14.094C11.9839 14.292 11.3494 14.6282 10.8037 15.0813C10.3256 15.4929 9.92357 15.9839 9.61584 16.5323C9.49874 16.7323 9.05691 17.5359 9.0034 18.8402C8.96975 19.5804 9.19421 20.3474 9.30121 20.6643V20.671C9.36851 20.8577 9.6293 21.4947 10.0543 22.0317C10.397 22.4624 10.8019 22.8408 11.256 23.1546V23.148L11.2627 23.1546C12.6057 24.0586 14.0947 23.9992 14.0947 23.9992C14.3525 23.9889 15.216 23.9992 16.1965 23.5389C17.2841 23.0286 17.9033 22.2683 17.9033 22.2683C18.2988 21.814 18.6133 21.2963 18.8334 20.7374C19.0844 20.0838 19.1682 19.2998 19.1682 18.9865V13.3494C19.2018 13.3694 19.65 13.6631 19.65 13.6631C19.65 13.6631 20.2959 14.073 21.3033 14.34C22.0261 14.53 23 14.57 23 14.57V11.8421C22.6587 11.8788 21.9659 11.7722 21.2565 11.4219Z" fill="white"/>
</g>
<defs>
<clipPath id="clip0_37_4146">
<rect width="32" height="32" fill="white"/>
</clipPath>
</defs>
</svg>
