<svg width="32" height="32" viewBox="0 0 32 32" fill="none" xmlns="http://www.w3.org/2000/svg">
<circle cx="16" cy="16" r="16" fill="#363636"/>
<path d="M24.7934 11.6024C24.5826 10.8159 23.9638 10.1953 23.1782 9.9836C21.7427 9.58943 15.9998 9.58301 15.9998 9.58301C15.9998 9.58301 10.2578 9.5766 8.8214 9.95335C8.0514 10.1633 7.41523 10.7976 7.20256 11.5832C6.82398 13.0187 6.82031 15.996 6.82031 15.996C6.82031 15.996 6.81665 18.988 7.19248 20.4088C7.40331 21.1944 8.02206 21.815 8.80856 22.0268C10.2587 22.4209 15.9861 22.4273 15.9861 22.4273C15.9861 22.4273 21.729 22.4338 23.1645 22.0579C23.9492 21.8471 24.5707 21.2274 24.7842 20.4418C25.1637 19.0073 25.1665 16.0308 25.1665 16.0308C25.1665 16.0308 25.1848 13.0379 24.7934 11.6024ZM14.1628 18.7543L14.1674 13.2543L18.9405 16.0088L14.1628 18.7543Z" fill="#EAEAEA"/>
</svg>
