<svg width="1920" height="1005" viewBox="0 0 1920 1005" fill="none" xmlns="http://www.w3.org/2000/svg">
<path d="M-255.844 549.31C-266.468 508.009 -278.164 467.02 -288.719 425.701C-240.758 412.531 -192.656 399.789 -144.549 387.071C-135.08 421.311 -126.006 455.632 -116.972 489.989C-137.452 495.796 -158.012 501.305 -178.652 506.516C-182.422 492.81 -186.095 479.103 -189.86 465.421C-196.69 467.251 -203.474 469.069 -210.282 470.893C-205.041 491.55 -199.497 512.15 -193.73 532.666C-159.385 523.685 -125.049 514.583 -90.8164 505.091C-101.28 463.747 -113.182 422.814 -123.692 381.482C-75.6886 368.374 -27.6059 355.564 20.4724 342.829C29.8729 377.087 39.0734 411.424 48.0614 445.793C27.5631 451.531 7.00954 457.063 -13.6239 462.297C-17.3945 448.591 -21.0672 434.884 -24.8317 421.202C-31.662 423.032 -38.4526 424.827 -45.2371 426.645C-40.0365 447.337 -34.4983 467.914 -28.7018 488.447C5.6487 479.489 39.9607 470.295 74.2113 460.872C63.61 419.565 51.8686 378.588 41.336 337.263C89.3451 324.178 137.387 311.306 185.506 298.633C194.884 332.897 204.118 367.176 213.083 401.551C192.597 407.335 172.014 412.85 151.404 418.078C147.633 404.372 143.961 390.665 140.196 376.983C133.36 378.79 126.581 380.631 119.797 382.448C124.991 403.118 130.552 423.689 136.326 444.228C170.67 435.247 204.982 426.053 239.239 416.653C228.615 375.352 216.988 334.345 206.364 293.044C254.379 279.982 302.414 267.087 350.534 254.414C359.912 288.678 369.146 322.957 378.111 357.332C357.608 363.145 337.048 368.654 316.431 373.859C312.661 360.153 308.988 346.446 305.224 332.763C298.387 334.571 291.603 336.389 284.824 338.229C290.019 358.899 295.563 379.499 301.354 400.009C335.698 391.028 370.016 381.857 404.267 372.434C393.665 331.127 381.878 290.163 371.392 248.825C419.401 235.74 467.448 222.89 515.562 210.195C524.985 244.447 534.111 278.779 543.138 313.113C522.646 318.874 502.07 324.412 481.459 329.639C477.695 315.957 474.016 302.227 470.251 288.545C463.421 290.375 456.608 292.176 449.829 294.016C455.047 314.68 460.585 335.257 466.382 355.79C500.732 346.832 535.062 337.706 569.294 328.215C558.647 286.92 547.067 245.901 536.42 204.606C584.4 191.504 632.482 178.694 680.589 165.976C689.99 200.234 699.224 234.512 708.166 268.894C687.68 274.678 667.098 280.193 646.487 285.42C642.723 271.738 639.043 258.008 635.279 244.325C628.442 246.133 621.635 247.957 614.857 249.798C620.097 270.455 625.612 291.038 631.409 311.571C665.747 302.567 700.096 293.51 734.316 283.973C723.698 242.695 712.088 201.659 701.447 160.387C749.45 147.279 797.504 134.452 845.617 121.757C855.041 156.009 864.166 190.341 873.194 224.675C852.679 230.442 832.125 235.974 811.515 241.201C807.75 227.519 804.071 213.789 800.307 200.106C793.476 201.937 786.663 203.738 779.885 205.579C785.125 226.236 790.64 246.819 796.437 267.352C830.775 258.348 865.093 249.177 899.35 239.777C888.84 198.445 877.076 157.475 866.475 116.168C914.478 103.06 962.548 90.2042 1010.64 77.5149C1020.04 111.773 1029.24 146.11 1038.23 180.478C1017.74 186.24 997.159 191.778 976.543 196.982C972.772 183.277 969.099 169.57 965.311 155.893C958.498 157.695 951.691 159.519 944.935 161.353C950.153 182.017 955.668 202.6 961.464 223.133C995.803 214.129 1030.14 205.026 1064.38 195.558C1053.75 154.257 1042.1 113.233 1031.5 71.9491C1079.51 58.864 1127.55 45.9913 1175.67 33.3188C1185.05 67.5832 1194.24 101.874 1203.25 136.236C1182.77 142.043 1162.19 147.558 1141.57 152.763C1137.8 139.058 1134.13 125.351 1130.36 111.668C1123.53 113.499 1116.72 115.3 1109.96 117.134C1115.13 137.81 1120.67 158.387 1126.49 178.914C1160.87 170.047 1195.14 160.693 1229.41 151.338C1218.83 110.026 1207.04 69.0613 1196.53 27.73C1244.54 14.6449 1292.59 1.81811 1340.7 -10.9002C1350.08 23.3642 1359.27 57.6777 1368.28 92.0174C1347.77 97.8076 1327.21 103.317 1306.6 108.544C1302.83 94.8388 1299.15 81.1318 1295.39 67.4493C1288.55 69.2565 1281.75 71.0806 1274.98 72.8923C1280.19 93.5847 1285.72 114.162 1291.52 134.695C1325.86 125.691 1360.17 116.497 1394.43 107.119C1383.83 65.8127 1372.21 24.8054 1361.56 -16.489C1409.57 -29.5512 1457.58 -42.5614 1505.73 -55.1193C1515.11 -20.8549 1524.3 13.4586 1533.3 47.7984C1512.79 53.5656 1492.24 59.0975 1471.63 64.3252C1467.86 50.6427 1464.18 36.9128 1460.42 23.2302C1453.58 25.0375 1446.77 26.8615 1440 28.7023C1445.24 49.3596 1450.75 69.9431 1456.54 90.453C1490.92 81.6091 1525.2 72.3006 1559.46 62.9004C1548.95 21.5691 1537.1 -19.3768 1526.59 -60.7081C1574.57 -73.787 1622.62 -86.7117 1670.76 -99.3383C1680.25 -65.1046 1689.32 -30.7833 1698.33 3.57934C1677.85 9.36335 1657.26 14.8784 1636.65 20.1062C1632.88 6.40076 1629.21 -7.30634 1625.45 -20.9889C1618.62 -19.1587 1611.81 -17.3347 1605.02 -15.5168C1610.26 5.14046 1615.78 25.724 1621.58 46.2568C1655.91 37.2524 1690.23 28.0815 1724.49 18.6813C1713.86 -22.6192 1702.19 -63.6144 1691.61 -104.927C1739.61 -117.96 1787.68 -130.839 1835.78 -143.557C1845.14 -109.287 1854.47 -75.0101 1863.36 -40.6397C1842.84 -34.8724 1822.29 -29.3406 1801.68 -24.1128C1797.92 -37.7954 1794.21 -51.5193 1790.47 -65.2079C1783.64 -63.4007 1776.83 -61.5766 1770.07 -59.7419C1775.27 -39.0724 1780.81 -18.495 1786.6 2.03773C1820.95 -6.94371 1855.25 -16.1604 1889.49 -25.5315C1878.91 -66.8443 1867.24 -107.84 1856.64 -149.146C1904.67 -162.26 1952.82 -174.991 2000.88 -187.968L2028.55 -84.7061C2007.88 -79.437 1987.4 -73.4573 1966.71 -68.3319C1962.94 -82.0373 1959.27 -95.7444 1955.5 -109.427C1948.67 -107.597 1941.86 -105.796 1935.08 -103.955C1940.32 -83.2976 1945.83 -62.714 1951.63 -42.1813C1979.18 -49.195 2006.54 -56.9193 2034.07 -64.0996L2039.6 -43.4702C2005.2 -34.4994 1970.96 -24.8578 1936.55 -16.0307C1927.06 -50.2644 1917.98 -84.6085 1908.95 -118.942C1929.45 -124.703 1950 -130.235 1970.63 -135.469C1974.37 -121.78 1978.05 -108.05 1981.84 -94.374C1988.62 -96.1919 1995.43 -98.016 2002.26 -99.8461C1997.02 -120.503 1991.48 -141.081 1985.72 -161.597C1951.32 -152.724 1917.06 -143.421 1882.8 -134.044C1893.33 -92.719 1905.09 -51.7486 1915.67 -10.4357C1867.66 2.62642 1819.6 15.5281 1771.5 28.1945C1762.15 -6.07604 1752.79 -40.3465 1743.93 -74.7232C1764.41 -80.5072 1784.97 -86.0161 1805.6 -91.25C1809.35 -77.5613 1813.03 -63.8314 1816.81 -50.155C1823.6 -51.9729 1830.4 -53.797 1837.23 -55.6271C1831.99 -76.2844 1826.46 -96.8617 1820.69 -117.378C1786.29 -108.505 1752.01 -99.2941 1717.77 -89.8251C1728.39 -48.5246 1740.07 -7.52951 1750.64 33.7833C1702.64 46.8913 1654.58 59.6723 1606.47 72.4135C1596.98 38.1798 1587.89 3.8647 1578.9 -30.5041C1599.38 -36.2881 1619.94 -41.7971 1640.58 -47.031C1644.32 -33.3423 1648 -19.6124 1651.78 -5.93599C1658.57 -7.75388 1665.38 -9.57788 1672.21 -11.4081C1666.97 -32.0653 1661.43 -52.6426 1655.65 -73.1815C1621.29 -64.171 1586.97 -55.0979 1552.74 -45.6061C1563.23 -4.26867 1575.13 36.665 1585.62 78.0024C1537.62 91.1333 1489.55 103.891 1441.45 116.633C1432.07 82.3682 1422.81 48.0731 1413.89 13.7088C1434.36 7.95388 1454.92 2.42206 1475.55 -2.81183C1479.29 10.8768 1482.97 24.6067 1486.76 38.283C1493.54 36.4652 1500.35 34.6412 1507.18 32.811C1501.94 12.1537 1496.4 -8.4236 1490.63 -28.9625C1456.25 -19.9978 1421.98 -10.7642 1387.71 -1.387C1398.34 39.9136 1410.03 80.9025 1420.59 122.221C1372.59 135.329 1324.51 148.162 1276.42 160.852C1267.04 126.587 1257.76 92.2983 1248.87 57.9279C1269.33 52.15 1289.89 46.6411 1310.52 41.4072C1314.27 55.1188 1317.94 68.8258 1321.75 82.496C1328.51 80.6842 1335.3 78.8893 1342.13 77.0362C1336.93 56.3667 1331.39 35.7664 1325.6 15.2565C1291.23 24.2212 1256.92 33.438 1222.69 42.832C1233.31 84.1326 1245.01 125.121 1255.56 166.44C1207.54 179.48 1159.53 192.467 1111.39 205.071C1101.99 170.812 1092.82 136.493 1083.81 102.153C1104.31 96.392 1124.86 90.8601 1145.49 85.6262C1149.24 99.3149 1152.91 113.045 1156.7 126.721C1163.49 124.903 1170.29 123.079 1177.1 121.255C1171.91 100.586 1166.36 79.9854 1160.57 59.4756C1126.2 68.4402 1091.87 77.5883 1057.66 87.0511C1068.28 128.352 1079.89 169.365 1090.53 210.66C1042.52 223.722 994.473 236.669 946.364 249.29C936.963 215.031 927.654 180.749 918.81 146.366C939.279 140.611 959.832 135.079 980.466 129.845C984.207 143.534 987.887 157.264 991.674 170.94C998.459 169.122 1005.27 167.298 1012.07 165.474C1006.86 144.811 1001.31 124.211 995.544 103.695C961.183 112.705 926.865 121.876 892.631 131.27C903.209 172.583 914.928 213.566 925.5 254.856C877.515 268.033 829.425 280.722 781.336 293.509C771.89 259.263 762.649 224.962 753.759 190.591C774.245 184.807 794.805 179.298 815.438 174.064C819.18 187.753 822.859 201.483 826.646 215.159C833.431 213.341 840.238 211.517 847.045 209.693C841.828 189.03 836.313 168.446 830.516 147.914C796.124 156.81 761.849 166.141 727.603 175.489C738.227 216.79 749.854 257.797 760.478 299.098C712.481 312.229 664.409 324.987 616.308 337.728C606.885 303.476 597.736 269.15 588.731 234.81C609.224 229.049 629.777 223.517 650.41 218.283C654.152 231.972 657.831 245.702 661.619 259.378C668.403 257.56 675.21 255.736 682.041 253.906C676.8 233.249 671.262 212.672 665.489 192.133C631.15 201.137 596.832 210.308 562.576 219.708C573.039 261.052 584.941 301.985 595.451 343.317C547.435 356.379 499.4 369.274 451.281 381.947C441.88 347.689 432.669 313.404 423.704 279.029C444.19 273.245 464.749 267.736 485.383 262.502C489.124 276.191 492.804 289.921 496.591 303.597C503.375 301.779 510.183 299.955 517.013 298.125C511.773 277.468 506.257 256.884 500.461 236.352C466.094 245.339 431.811 254.55 397.548 263.927C408.058 305.258 419.867 346.217 430.423 387.536C382.438 400.712 334.354 413.425 286.253 426.166C276.898 391.895 267.595 357.636 258.676 323.248C279.162 317.464 299.722 311.955 320.355 306.721C324.103 320.433 327.776 334.14 331.563 347.816C338.347 345.999 345.155 344.174 351.985 342.344C346.745 321.687 341.207 301.11 335.433 280.571C301.066 289.558 266.746 298.632 232.526 308.169C243.144 349.447 254.817 390.442 265.389 431.732C217.417 444.955 169.339 457.69 121.248 470.379C111.785 436.162 102.682 401.824 93.6482 367.467C114.128 361.66 134.688 356.151 155.328 350.94C159.075 364.652 162.771 378.353 166.558 392.029C173.32 390.218 180.127 388.393 186.935 386.569C181.74 365.9 176.196 345.3 170.405 324.79C136.044 333.8 101.732 342.994 67.4921 352.365C78.1393 393.66 89.6973 434.686 100.367 475.974C52.3522 489.036 4.31695 501.932 -43.8026 514.604C-53.2032 480.346 -62.483 446.08 -71.3793 411.686C-50.8995 405.879 -30.3397 400.37 -9.70013 395.159C-5.92951 408.865 -2.25682 422.572 1.50766 436.254C8.29214 434.437 15.0996 432.613 21.907 430.788C16.7125 410.119 11.1681 389.519 5.3777 369.009C-28.9773 378.042 -63.3323 387.076 -97.5293 396.607C-86.957 437.897 -75.3013 478.921 -64.6603 520.193C-112.675 533.255 -160.734 546.157 -208.83 558.823C-218.208 524.559 -227.402 490.245 -236.407 455.905C-215.915 450.144 -195.361 444.612 -174.728 439.378C-170.986 453.067 -167.307 466.797 -163.52 480.473C-156.713 478.649 -149.928 476.832 -143.098 475.001C-148.338 454.344 -153.876 433.767 -159.644 413.251C-194.013 422.141 -228.3 431.426 -262.563 440.803C-251.939 482.104 -240.335 523.118 -229.694 564.389M-196.813 769.618C-207.437 728.318 -219.132 687.329 -229.688 646.01C-181.726 632.839 -133.625 620.098 -85.5176 607.38C-76.0483 641.62 -66.9748 675.941 -57.941 710.297C-78.4208 716.104 -98.9805 721.613 -119.62 726.824C-123.391 713.119 -127.064 699.412 -130.828 685.729C-137.658 687.559 -144.443 689.377 -151.25 691.201C-146.01 711.859 -140.465 732.459 -134.698 752.975C-100.354 743.993 -66.017 734.891 -31.7849 725.399C-42.2487 684.056 -54.1503 643.122 -64.66 601.791C-16.6571 588.683 31.4256 575.873 79.5039 563.138C88.9045 597.396 98.1049 631.733 107.093 666.101C86.5946 671.84 66.0411 677.371 45.4076 682.605C41.637 668.9 37.9643 655.193 34.1998 641.51C27.3695 643.34 20.5789 645.135 13.7944 646.953C18.995 667.646 24.5332 688.223 30.3297 708.756C64.6802 699.797 98.9922 690.603 133.243 681.18C122.642 639.874 110.9 598.897 100.368 557.572C148.377 544.487 196.418 531.614 244.538 518.942C253.915 553.206 263.149 587.484 272.114 621.859C251.628 627.643 231.046 633.158 210.435 638.386C206.665 624.681 202.992 610.974 199.228 597.291C192.391 599.098 185.613 600.939 178.828 602.757C184.023 623.427 189.584 643.998 195.357 664.537C229.702 655.555 264.014 646.361 298.271 636.961C287.646 595.661 276.02 554.654 265.395 513.353C313.41 500.291 361.446 487.395 409.566 474.723C418.943 508.987 428.177 543.265 437.142 577.64C416.639 583.453 396.08 588.962 375.463 594.167C371.692 580.462 368.02 566.755 364.255 553.072C357.419 554.879 350.634 556.697 343.856 558.538C349.05 579.208 354.595 599.808 360.385 620.318C394.729 611.336 429.048 602.165 463.298 592.742C452.697 551.436 440.91 510.471 430.423 469.134C478.432 456.049 526.48 443.199 574.593 430.504C584.017 464.756 593.142 499.088 602.17 533.421C581.678 539.182 561.101 544.72 540.491 549.948C536.726 536.266 533.047 522.536 529.283 508.853C522.452 510.683 515.639 512.484 508.861 514.325C514.078 534.988 519.617 555.566 525.413 576.099C559.764 567.14 594.094 558.015 628.326 548.523C617.679 507.229 606.098 466.209 595.451 424.915C643.431 411.813 691.514 399.003 739.621 386.285C749.021 420.543 758.255 454.821 767.198 489.202C746.712 494.986 726.129 500.501 705.519 505.729C701.754 492.047 698.075 478.317 694.31 464.634C687.474 466.441 680.667 468.265 673.888 470.106C679.129 490.763 684.644 511.347 690.441 531.88C724.779 522.875 759.128 513.819 793.348 504.281C782.729 463.004 771.12 421.967 760.478 380.696C808.481 367.588 856.535 354.761 904.649 342.066C914.072 376.318 923.198 410.65 932.225 444.983C911.71 450.75 891.157 456.282 870.546 461.51C866.782 447.827 863.103 434.098 859.338 420.415C852.508 422.245 845.694 424.046 838.916 425.887C844.156 446.544 849.672 467.128 855.468 487.661C889.806 478.656 924.125 469.485 958.381 460.085C947.872 418.754 936.108 377.783 925.506 336.477C973.509 323.369 1021.58 310.513 1069.67 297.824C1079.07 332.082 1088.27 366.418 1097.26 400.787C1076.77 406.548 1056.19 412.086 1035.57 417.291C1031.8 403.586 1028.13 389.878 1024.34 376.202C1017.53 378.003 1010.72 379.827 1003.97 381.662C1009.18 402.325 1014.7 422.909 1020.5 443.442C1054.83 434.437 1089.17 425.335 1123.41 415.866C1112.78 374.566 1101.13 333.542 1090.53 292.258C1138.54 279.173 1186.58 266.3 1234.7 253.628C1244.08 287.892 1253.27 322.182 1262.28 356.545C1241.8 362.352 1221.22 367.867 1200.6 373.072C1196.83 359.366 1193.16 345.659 1189.39 331.977C1182.56 333.807 1175.75 335.608 1168.99 337.443C1174.17 358.118 1179.7 378.696 1185.52 399.223C1219.9 390.356 1254.17 381.001 1288.44 371.647C1277.86 330.334 1266.07 289.37 1255.56 248.039C1303.57 234.954 1351.62 222.127 1399.73 209.408C1409.11 243.673 1418.3 277.986 1427.31 312.326C1406.8 318.116 1386.24 323.625 1365.63 328.853C1361.86 315.147 1358.19 301.44 1354.42 287.758C1347.58 289.565 1340.78 291.389 1334.02 293.201C1339.22 313.893 1344.75 334.471 1350.55 355.004C1384.89 345.999 1419.2 336.805 1453.46 327.428C1442.86 286.121 1431.24 245.114 1420.59 203.82C1468.6 190.758 1516.61 177.747 1564.76 165.189C1574.14 199.454 1583.33 233.767 1592.34 268.107C1571.82 273.874 1551.27 279.406 1530.66 284.634C1526.89 270.951 1523.21 257.221 1519.45 243.539C1512.61 245.346 1505.81 247.17 1499.03 249.011C1504.27 269.668 1509.78 290.252 1515.57 310.762C1549.95 301.918 1584.24 292.609 1618.49 283.209C1607.98 241.878 1596.13 200.932 1585.62 159.601C1633.6 146.522 1681.66 133.597 1729.79 120.97C1739.28 155.204 1748.35 189.525 1757.36 223.888C1736.88 229.672 1716.3 235.187 1695.68 240.415C1691.91 226.709 1688.24 213.002 1684.48 199.32C1677.65 201.15 1670.84 202.974 1664.05 204.792C1669.3 225.449 1674.81 246.033 1680.61 266.565C1714.95 257.561 1749.26 248.39 1783.52 238.99C1772.9 197.689 1761.22 156.694 1750.65 115.382C1798.64 102.348 1846.71 89.4697 1894.81 76.7514C1904.17 111.022 1913.5 145.298 1922.39 179.669C1901.88 185.436 1881.32 190.968 1860.71 196.196C1856.95 182.513 1853.25 168.789 1849.5 155.101C1842.67 156.908 1835.86 158.732 1829.11 160.567C1834.3 181.236 1839.84 201.814 1845.63 222.346C1879.98 213.365 1914.28 204.148 1948.52 194.777C1937.95 153.464 1926.27 112.469 1915.67 71.1625C1963.7 58.0483 2011.85 45.3177 2059.91 32.3411L2087.58 135.603C2066.91 140.872 2046.43 146.851 2025.74 151.977C2021.97 138.271 2018.3 124.564 2014.53 110.882C2007.7 112.712 2000.89 114.513 1994.11 116.354C1999.35 137.011 2004.87 157.595 2010.66 178.127C2038.21 171.114 2065.57 163.389 2093.1 156.209L2098.63 176.838C2064.24 185.809 2029.99 195.451 1995.58 204.278C1986.09 170.044 1977.01 135.7 1967.98 101.367C1988.48 95.6054 2009.03 90.0735 2029.66 84.8396C2033.41 98.5283 2037.08 112.258 2040.87 125.935C2047.66 124.117 2054.46 122.293 2061.29 120.462C2056.05 99.8052 2050.52 79.2279 2044.75 58.712C2010.35 67.5849 1976.09 76.8873 1941.83 86.2645C1952.36 127.59 1964.13 168.56 1974.7 209.873C1926.69 222.935 1878.63 235.837 1830.53 248.503C1821.18 214.233 1811.82 179.962 1802.96 145.586C1823.44 139.802 1844 134.293 1864.64 129.059C1868.38 142.747 1872.06 156.477 1875.84 170.154C1882.63 168.336 1889.44 166.512 1896.27 164.681C1891.03 144.024 1885.49 123.447 1879.72 102.931C1845.32 111.804 1811.04 121.015 1776.8 130.484C1787.43 171.784 1799.1 212.779 1809.68 254.092C1761.67 267.2 1713.61 279.981 1665.51 292.722C1656.01 258.488 1646.92 224.173 1637.93 189.805C1658.42 184.021 1678.98 178.512 1699.61 173.278C1703.35 186.966 1707.03 200.696 1710.82 214.373C1717.6 212.555 1724.41 210.731 1731.24 208.901C1726 188.243 1720.46 167.666 1714.69 147.127C1680.33 156.138 1646.01 165.211 1611.77 174.703C1622.26 216.04 1634.16 256.974 1644.65 298.311C1596.65 311.442 1548.58 324.2 1500.48 336.941C1491.1 302.677 1481.84 268.382 1472.92 234.018C1493.39 228.263 1513.95 222.731 1534.58 217.497C1538.32 231.186 1542 244.915 1545.79 258.592C1552.57 256.774 1559.38 254.95 1566.21 253.12C1560.97 232.462 1555.43 211.885 1549.66 191.346C1515.29 200.311 1481.01 209.544 1446.75 218.922C1457.37 260.222 1469.07 301.211 1479.62 342.53C1431.62 355.638 1383.54 368.471 1335.45 381.16C1326.07 346.896 1316.79 312.607 1307.9 278.237C1328.36 272.459 1348.92 266.95 1369.55 261.716C1373.3 275.427 1376.97 289.134 1380.78 302.805C1387.55 300.993 1394.34 299.198 1401.16 297.345C1395.97 276.675 1390.42 256.075 1384.63 235.565C1350.26 244.53 1315.95 253.747 1281.72 263.141C1292.34 304.441 1304.04 345.43 1314.59 386.749C1266.57 399.788 1218.56 412.776 1170.42 425.379C1161.02 391.121 1151.85 356.802 1142.85 322.462C1163.34 316.701 1183.89 311.169 1204.53 305.935C1208.27 319.624 1211.95 333.353 1215.73 347.03C1222.52 345.212 1229.32 343.388 1236.13 341.564C1230.94 320.894 1225.39 300.294 1219.6 279.784C1185.23 288.749 1150.91 297.897 1116.69 307.36C1127.31 348.66 1138.92 389.674 1149.57 430.968C1101.55 444.03 1053.5 456.978 1005.4 469.598C995.995 435.34 986.686 401.057 977.841 366.675C998.311 360.92 1018.86 355.388 1039.5 350.154C1043.24 363.843 1046.92 377.572 1050.71 391.249C1057.49 389.431 1064.3 387.607 1071.1 385.783C1065.89 365.12 1060.34 344.519 1054.58 324.003C1020.21 333.014 985.896 342.185 951.662 351.579C962.241 392.892 973.959 433.874 984.531 475.164C936.547 488.341 888.456 501.03 840.367 513.817C830.921 479.571 821.681 445.27 812.791 410.9C833.277 405.116 853.836 399.607 874.47 394.373C878.211 408.062 881.891 421.791 885.678 435.468C892.462 433.65 899.269 431.826 906.077 430.002C900.859 409.339 895.344 388.755 889.548 368.222C855.156 377.118 820.881 386.45 786.635 395.798C797.259 437.098 808.885 478.106 819.51 519.406C771.513 532.537 723.441 545.295 675.34 558.036C665.916 523.784 656.768 489.459 647.763 455.119C668.255 449.358 688.809 443.826 709.442 438.592C713.184 452.281 716.863 466.01 720.65 479.687C727.435 477.869 734.242 476.045 741.072 474.215C735.832 453.558 730.294 432.98 724.52 412.441C690.182 421.446 655.864 430.617 621.607 440.017C632.071 481.36 643.972 522.294 654.482 563.625C606.467 576.687 558.432 589.583 510.312 602.255C500.912 567.997 491.701 533.713 482.736 499.338C503.222 493.554 523.781 488.045 544.414 482.811C548.156 496.5 551.835 510.23 555.622 523.906C562.407 522.088 569.214 520.264 576.045 518.434C570.804 497.777 565.289 477.193 559.492 456.66C525.125 465.648 490.842 474.859 456.579 484.236C467.089 525.567 478.899 566.525 489.454 607.844C441.47 621.021 393.385 633.733 345.284 646.475C335.93 612.204 326.627 577.944 317.708 543.557C338.194 537.773 358.753 532.264 379.387 527.03C383.135 540.742 386.807 554.449 390.594 568.125C397.379 566.307 404.186 564.483 411.017 562.653C405.776 541.996 400.238 521.418 394.465 500.879C360.097 509.867 325.777 518.94 291.558 528.478C302.176 569.756 313.848 610.751 324.421 652.04C276.448 665.263 228.37 677.998 180.28 690.687C170.816 656.47 161.714 622.133 152.68 587.776C173.16 581.969 193.72 576.46 214.359 571.249C218.107 584.961 221.802 598.662 225.59 612.338C232.351 610.526 239.159 608.702 245.966 606.878C240.772 586.209 235.227 565.608 229.437 545.099C195.076 554.109 160.764 563.303 126.524 572.674C137.171 613.968 148.729 654.994 159.399 696.282C111.384 709.345 63.3485 722.24 15.2289 734.913C5.8283 700.654 -3.45149 666.388 -12.3478 631.995C8.13205 626.188 28.6919 620.679 49.3314 615.468C53.102 629.174 56.7747 642.881 60.5392 656.563C67.3236 654.745 74.1311 652.921 80.9385 651.097C75.744 630.428 70.1996 609.827 64.4092 589.318C30.0542 598.351 -4.3008 607.384 -38.4978 616.916C-27.9255 658.206 -16.2698 699.23 -5.62878 740.501C-53.644 753.564 -101.702 766.465 -149.799 779.132C-159.176 744.867 -168.371 710.554 -177.376 676.214C-156.883 670.453 -136.33 664.921 -115.696 659.687C-111.955 673.376 -108.276 687.106 -104.489 700.782C-97.6811 698.958 -90.8967 697.14 -84.0663 695.31C-89.3066 674.653 -94.8449 654.075 -100.612 633.559C-134.981 642.449 -169.269 651.735 -203.532 661.112C-192.907 702.413 -181.304 743.426 -170.663 784.698M-137.781 989.927C-148.405 948.627 -160.101 907.638 -170.656 866.319C-122.695 853.148 -74.5935 840.407 -26.4861 827.688C-17.0168 861.928 -7.94326 896.25 1.09058 930.606C-19.3893 936.413 -39.949 941.922 -60.5885 947.133C-64.3591 933.428 -68.032 919.72 -71.7965 906.038C-78.6268 907.868 -85.4112 909.686 -92.2186 911.51C-86.9783 932.167 -81.4339 952.768 -75.6665 973.284C-41.3221 964.302 -6.9855 955.2 27.2467 945.708C16.7829 904.365 4.88115 863.431 -5.62851 822.1C42.3744 808.992 90.4572 796.182 138.535 783.446C147.936 817.705 157.136 852.041 166.124 886.41C145.626 892.148 125.073 897.68 104.439 902.914C100.669 889.208 96.9959 875.501 93.2314 861.819C86.4011 863.649 79.6104 865.444 72.826 867.262C78.0266 887.954 83.5647 908.532 89.3612 929.065C123.712 920.106 158.024 910.912 192.274 901.489C181.673 860.182 169.932 819.206 159.399 777.881C207.408 764.795 255.45 751.923 303.569 739.25C312.947 773.515 322.181 807.793 331.146 842.168C310.66 847.952 290.077 853.467 269.467 858.695C265.696 844.989 262.024 831.282 258.259 817.6C251.423 819.407 244.644 821.248 237.86 823.066C243.054 843.735 248.615 864.307 254.389 884.846C288.733 875.864 323.045 866.67 357.302 857.27C346.678 815.969 335.051 774.962 324.427 733.662C372.442 720.599 420.477 707.704 468.597 695.031C477.975 729.296 487.209 763.574 496.174 797.949C475.671 803.762 455.111 809.271 434.494 814.476C430.724 800.77 427.051 787.063 423.287 773.381C416.45 775.188 409.666 777.006 402.887 778.847C408.082 799.516 413.626 820.117 419.417 840.626C453.761 831.645 488.079 822.474 522.33 813.051C511.728 771.744 499.941 730.78 489.455 689.442C537.464 676.357 585.511 663.508 633.625 650.812C643.048 685.064 652.174 719.396 661.201 753.73C640.709 759.491 620.133 765.029 599.522 770.257C595.758 756.574 592.079 742.844 588.314 729.162C581.484 730.992 574.671 732.793 567.892 734.634C573.11 755.297 578.648 775.875 584.445 796.407C618.795 787.449 653.125 778.324 687.357 768.832C676.71 727.538 665.13 686.518 654.483 645.223C702.463 632.121 750.545 619.312 798.652 606.593C808.053 640.851 817.287 675.13 826.229 709.511C805.743 715.295 785.161 720.81 764.55 726.038C760.786 712.355 757.106 698.625 753.342 684.943C746.505 686.75 739.698 688.574 732.92 690.415C738.16 711.072 743.676 731.656 749.472 752.188C783.81 743.184 818.159 734.128 852.379 724.59C841.761 683.312 830.151 642.276 819.51 601.004C867.513 587.896 915.567 575.07 963.68 562.374C973.104 596.626 982.229 630.958 991.257 665.292C970.742 671.059 950.188 676.591 929.578 681.819C925.813 668.136 922.134 654.406 918.37 640.724C911.539 642.554 904.726 644.355 897.948 646.196C903.188 666.853 908.703 687.437 914.5 707.969C948.838 698.965 983.156 689.794 1017.41 680.394C1006.9 639.063 995.139 598.092 984.538 556.785C1032.54 543.677 1080.61 530.821 1128.7 518.132C1138.1 552.39 1147.3 586.727 1156.29 621.096C1135.8 626.857 1115.22 632.395 1094.61 637.6C1090.83 623.894 1087.16 610.187 1083.37 596.511C1076.56 598.312 1069.75 600.136 1063 601.971C1068.22 622.634 1073.73 643.218 1079.53 663.75C1113.87 654.746 1148.2 645.644 1182.44 636.175C1171.82 594.874 1160.16 553.85 1149.57 512.566C1197.57 499.481 1245.62 486.609 1293.74 473.936C1303.11 508.2 1312.3 542.491 1321.31 576.854C1300.83 582.661 1280.25 588.176 1259.63 593.381C1255.86 579.675 1252.19 565.968 1248.43 552.286C1241.59 554.116 1234.78 555.917 1228.03 557.752C1233.2 578.427 1238.74 599.005 1244.56 619.531C1278.93 610.664 1313.2 601.31 1347.47 591.956C1336.89 550.643 1325.1 509.678 1314.59 468.347C1362.6 455.262 1410.66 442.435 1458.76 429.717C1468.14 463.981 1477.34 498.295 1486.34 532.635C1465.83 538.425 1445.27 543.934 1424.66 549.162C1420.89 535.456 1417.22 521.749 1413.45 508.067C1406.62 509.874 1399.81 511.698 1393.05 513.51C1398.25 534.202 1403.79 554.779 1409.58 575.312C1443.92 566.308 1478.23 557.114 1512.5 547.737C1501.89 506.43 1490.27 465.423 1479.62 424.128C1527.64 411.066 1575.64 398.056 1623.79 385.498C1633.17 419.762 1642.36 454.076 1651.37 488.416C1630.85 494.183 1610.3 499.715 1589.69 504.943C1585.92 491.26 1582.24 477.53 1578.48 463.848C1571.64 465.655 1564.84 467.479 1558.06 469.32C1563.3 489.977 1568.81 510.56 1574.6 531.07C1608.99 522.226 1643.27 512.918 1677.52 503.518C1667.01 462.186 1655.16 421.24 1644.65 379.909C1692.63 366.83 1740.69 353.906 1788.82 341.279C1798.31 375.513 1807.38 409.834 1816.4 444.197C1795.91 449.981 1775.33 455.496 1754.72 460.723C1750.95 447.018 1747.27 433.311 1743.51 419.628C1736.68 421.459 1729.87 423.283 1723.09 425.101C1728.33 445.758 1733.84 466.341 1739.64 486.874C1773.98 477.87 1808.29 468.699 1842.55 459.299C1831.93 417.998 1820.26 377.003 1809.68 335.69C1857.68 322.657 1905.74 309.778 1953.85 297.06C1963.2 331.33 1972.53 365.607 1981.42 399.978C1960.91 405.745 1940.35 411.277 1919.74 416.504C1915.98 402.822 1912.28 389.098 1908.54 375.409C1901.7 377.217 1894.89 379.041 1888.14 380.875C1893.33 401.545 1898.87 422.122 1904.67 442.655C1939.01 433.674 1973.32 424.457 2007.56 415.086C1996.98 373.773 1985.31 332.778 1974.7 291.471C2022.73 278.357 2070.88 265.626 2118.95 252.65L2146.61 355.911C2125.94 361.18 2105.46 367.16 2084.77 372.285C2081 358.58 2077.33 344.873 2073.56 331.19C2066.73 333.021 2059.92 334.822 2053.14 336.662C2058.38 357.32 2063.9 377.903 2069.69 398.436C2097.24 391.422 2124.61 383.698 2152.14 376.518L2157.66 397.147C2123.27 406.118 2089.03 415.759 2054.62 424.587C2045.12 390.353 2036.04 356.009 2027.02 321.675C2047.51 315.914 2068.06 310.382 2088.7 305.148C2092.44 318.837 2096.12 332.567 2099.9 346.243C2106.69 344.425 2113.5 342.601 2120.33 340.771C2115.09 320.114 2109.55 299.536 2103.78 279.021C2069.38 287.893 2035.12 297.196 2000.86 306.573C2011.39 347.898 2023.16 388.869 2033.74 430.182C1985.72 443.244 1937.66 456.145 1889.57 468.812C1880.21 434.541 1870.86 400.271 1861.99 365.894C1882.47 360.11 1903.03 354.601 1923.67 349.367C1927.41 363.056 1931.09 376.786 1934.88 390.462C1941.66 388.644 1948.47 386.82 1955.3 384.99C1950.06 364.333 1944.52 343.756 1938.75 323.24C1904.35 332.112 1870.07 341.323 1835.83 350.792C1846.46 392.093 1858.13 433.088 1868.71 474.401C1820.7 487.509 1772.64 500.29 1724.54 513.031C1715.05 478.797 1705.95 444.482 1696.96 410.113C1717.45 404.329 1738.01 398.82 1758.64 393.586C1762.38 407.275 1766.06 421.005 1769.85 434.681C1776.63 432.863 1783.44 431.039 1790.27 429.209C1785.03 408.552 1779.49 387.975 1773.72 367.436C1739.36 376.446 1705.04 385.519 1670.8 395.011C1681.29 436.349 1693.19 477.282 1703.68 518.62C1655.68 531.751 1607.61 544.509 1559.51 557.25C1550.13 522.986 1540.87 488.691 1531.96 454.326C1552.43 448.571 1572.98 443.039 1593.61 437.806C1597.35 451.494 1601.03 465.224 1604.82 478.9C1611.6 477.082 1618.41 475.258 1625.24 473.428C1620 452.771 1614.46 432.194 1608.69 411.655C1574.32 420.619 1540.04 429.853 1505.78 439.23C1516.4 480.531 1528.1 521.52 1538.65 562.839C1490.65 575.947 1442.57 588.78 1394.48 601.469C1385.1 567.205 1375.82 532.916 1366.93 498.545C1387.39 492.767 1407.95 487.258 1428.58 482.025C1432.33 495.736 1436 509.443 1439.82 523.113C1446.58 521.302 1453.37 519.507 1460.19 517.653C1455 496.984 1449.45 476.384 1443.66 455.874C1409.29 464.839 1374.98 474.055 1340.75 483.449C1351.37 524.75 1363.07 565.739 1373.62 607.058C1325.6 620.097 1277.59 633.084 1229.45 645.688C1220.05 611.43 1210.88 577.11 1201.88 542.77C1222.37 537.009 1242.92 531.477 1263.56 526.244C1267.3 539.932 1270.98 553.662 1274.76 567.338C1281.55 565.521 1288.36 563.697 1295.16 561.873C1289.97 541.203 1284.43 520.603 1278.63 500.093C1244.26 509.058 1209.94 518.206 1175.72 527.668C1186.35 568.969 1197.95 609.982 1208.6 651.277C1160.58 664.339 1112.54 677.287 1064.43 689.907C1055.03 655.649 1045.72 621.366 1036.87 586.983C1057.34 581.228 1077.9 575.697 1098.53 570.463C1102.27 584.151 1105.95 597.881 1109.74 611.557C1116.52 609.74 1123.33 607.916 1130.14 606.092C1124.92 585.428 1119.37 564.828 1113.61 544.312C1079.25 553.322 1044.93 562.493 1010.69 571.887C1021.27 613.2 1032.99 654.183 1043.56 695.473C995.578 708.65 947.488 721.339 899.399 734.126C889.953 699.88 880.712 665.579 871.822 631.208C892.308 625.424 912.868 619.916 933.501 614.682C937.243 628.37 940.922 642.1 944.709 655.777C951.494 653.959 958.301 652.135 965.108 650.311C959.891 629.647 954.376 609.064 948.579 588.531C914.187 597.427 879.912 606.758 845.666 616.106C856.29 657.407 867.917 698.414 878.541 739.715C830.545 752.846 782.472 765.604 734.371 778.345C724.948 744.093 715.799 709.767 706.795 675.428C727.287 669.666 747.84 664.135 768.474 658.901C772.215 672.589 775.894 686.319 779.682 699.996C786.466 698.178 793.273 696.354 800.104 694.523C794.863 673.866 789.325 653.289 783.552 632.75C749.213 641.754 714.895 650.925 680.639 660.325C691.103 701.669 703.004 742.603 713.514 783.934C665.498 796.996 617.463 809.892 569.344 822.564C559.943 788.306 550.732 754.021 541.767 719.647C562.253 713.863 582.812 708.354 603.446 703.12C607.187 716.808 610.867 730.538 614.654 744.215C621.438 742.397 628.246 740.573 635.076 738.743C629.836 718.085 624.32 697.502 618.524 676.969C584.157 685.957 549.874 695.167 515.611 704.545C526.121 745.876 537.93 786.834 548.486 828.153C500.501 841.33 452.417 854.042 404.316 866.783C394.961 832.513 385.658 798.253 376.739 763.866C397.225 758.082 417.785 752.573 438.418 747.339C442.166 761.05 445.839 774.757 449.626 788.434C456.41 786.616 463.218 784.792 470.048 782.962C464.808 762.304 459.27 741.727 453.496 721.188C419.129 730.176 384.809 739.249 350.589 748.786C361.207 790.064 372.88 831.059 383.452 872.349C335.48 885.572 287.402 898.307 239.311 910.996C229.848 876.779 220.745 842.441 211.711 808.085C232.191 802.278 252.751 796.769 273.391 791.558C277.138 805.269 280.834 818.97 284.621 832.647C291.383 830.835 298.19 829.011 304.998 827.187C299.803 806.517 294.259 785.917 288.468 765.407C254.107 774.418 219.795 783.612 185.555 792.983C196.202 834.277 207.76 875.303 218.43 916.591C170.415 929.653 122.38 942.549 74.2604 955.221C64.8598 920.963 55.58 886.697 46.6837 852.304C67.1636 846.497 87.7234 840.988 108.363 835.777C112.134 849.482 115.806 863.189 119.571 876.872C126.355 875.054 133.163 873.23 139.97 871.406C134.776 850.736 129.231 830.136 123.441 809.626C89.0858 818.66 54.7307 827.693 20.5337 837.224C31.106 878.514 42.7617 919.539 53.4028 960.81C5.38758 973.872 -42.6706 986.774 -90.7673 999.44C-100.145 965.176 -109.339 930.863 -118.344 896.523C-97.8519 890.762 -77.2982 885.23 -56.6648 879.996C-52.9232 893.685 -49.2444 907.414 -45.457 921.091C-38.6496 919.267 -31.8651 917.449 -25.0348 915.619C-30.2751 894.961 -35.8134 874.384 -41.5808 853.868C-75.9498 862.758 -110.237 872.043 -144.5 881.421C-133.876 922.721 -122.272 963.735 -111.631 1005.01M-78.7495 1210.24C-89.3738 1168.94 -101.069 1127.95 -111.625 1086.63C-63.6631 1073.46 -15.5619 1060.72 32.5454 1048C42.0147 1082.24 51.0883 1116.56 60.1221 1150.91C39.6422 1156.72 19.0826 1162.23 -1.55699 1167.44C-5.32762 1153.74 -9.00046 1140.03 -12.7649 1126.35C-19.5953 1128.18 -26.3797 1129.99 -33.1871 1131.82C-27.9468 1152.48 -22.4024 1173.08 -16.6349 1193.59C17.7094 1184.61 52.046 1175.51 86.2782 1166.02C75.8144 1124.67 63.9127 1083.74 53.403 1042.41C101.406 1029.3 149.489 1016.49 197.567 1003.76C206.968 1038.01 216.168 1072.35 225.156 1106.72C204.658 1112.46 184.104 1117.99 163.471 1123.22C159.7 1109.52 156.027 1095.81 152.263 1082.13C145.433 1083.96 138.642 1085.75 131.857 1087.57C137.058 1108.26 142.596 1128.84 148.393 1149.37C182.743 1140.41 217.055 1131.22 251.306 1121.8C240.705 1080.49 228.963 1039.51 218.431 998.189C266.44 985.104 314.481 972.231 362.601 959.559C371.978 993.823 381.212 1028.1 390.178 1062.48C369.692 1068.26 349.109 1073.78 328.498 1079C324.728 1065.3 321.055 1051.59 317.291 1037.91C310.454 1039.72 303.676 1041.56 296.891 1043.37C302.086 1064.04 307.647 1084.62 313.42 1105.15C347.765 1096.17 382.077 1086.98 416.334 1077.58C405.709 1036.28 394.083 995.271 383.458 953.97C431.474 940.908 479.509 928.012 527.629 915.34C537.006 949.604 546.24 983.883 555.205 1018.26C534.702 1024.07 514.143 1029.58 493.526 1034.78C489.755 1021.08 486.083 1007.37 482.318 993.689C475.482 995.497 468.697 997.315 461.919 999.155C467.113 1019.82 472.658 1040.43 478.448 1060.94C512.793 1051.95 547.111 1042.78 581.361 1033.36C570.76 992.053 558.973 951.089 548.486 909.751C596.495 896.666 644.543 883.816 692.656 871.121C702.08 905.373 711.205 939.705 720.233 974.039C699.741 979.8 679.164 985.338 658.554 990.565C654.789 976.883 651.11 963.153 647.346 949.47C640.515 951.301 633.702 953.102 626.924 954.942C632.141 975.606 637.68 996.183 643.476 1016.72C677.827 1007.76 712.157 998.632 746.389 989.141C735.742 947.846 724.161 906.826 713.514 865.532C761.494 852.43 809.577 839.62 857.684 826.902C867.084 861.16 876.318 895.438 885.261 929.82C864.775 935.604 844.192 941.119 823.582 946.346C819.817 932.664 816.138 918.934 812.373 905.251C805.537 907.059 798.73 908.883 791.951 910.724C797.192 931.381 802.707 951.964 808.504 972.497C842.842 963.493 877.191 954.436 911.411 944.899C900.793 903.621 889.183 862.585 878.542 821.313C926.544 808.205 974.598 795.378 1022.71 782.683C1032.14 816.935 1041.26 851.267 1050.29 885.601C1029.77 891.368 1009.22 896.9 988.609 902.127C984.845 888.445 981.166 874.715 977.401 861.032C970.571 862.863 963.757 864.664 956.979 866.504C962.219 887.162 967.735 907.745 973.531 928.278C1007.87 919.274 1042.19 910.103 1076.44 900.703C1065.93 859.371 1054.17 818.401 1043.57 777.094C1091.57 763.986 1139.64 751.13 1187.73 738.441C1197.13 772.699 1206.33 807.036 1215.32 841.404C1194.83 847.165 1174.25 852.703 1153.64 857.908C1149.87 844.203 1146.19 830.496 1142.41 816.819C1135.59 818.621 1128.79 820.445 1122.03 822.279C1127.25 842.943 1132.76 863.526 1138.56 884.059C1172.9 875.055 1207.23 865.952 1241.47 856.483C1230.85 815.183 1219.19 774.159 1208.6 732.875C1256.61 719.79 1304.65 706.917 1352.77 694.245C1362.14 728.509 1371.33 762.8 1380.34 797.162C1359.86 802.969 1339.28 808.484 1318.66 813.689C1314.89 799.984 1311.22 786.277 1307.46 772.594C1300.63 774.424 1293.81 776.226 1287.06 778.06C1292.23 798.736 1297.77 819.313 1303.59 839.84C1337.96 830.973 1372.23 821.619 1406.5 812.264C1395.92 770.952 1384.13 729.987 1373.62 688.656C1421.63 675.571 1469.69 662.744 1517.79 650.026C1527.17 684.29 1536.37 718.604 1545.37 752.943C1524.86 758.734 1504.3 764.242 1483.69 769.47C1479.92 755.765 1476.25 742.058 1472.48 728.375C1465.65 730.183 1458.84 732.007 1452.08 733.818C1457.28 754.511 1462.82 775.088 1468.61 795.621C1502.95 786.617 1537.26 777.423 1571.53 768.045C1560.93 726.739 1549.3 685.731 1538.65 644.437C1586.67 631.375 1634.67 618.365 1682.82 605.807C1692.2 640.071 1701.39 674.385 1710.4 708.724C1689.88 714.492 1669.33 720.023 1648.72 725.251C1644.96 711.569 1641.28 697.839 1637.51 684.156C1630.68 685.963 1623.87 687.787 1617.09 689.628C1622.33 710.286 1627.85 730.869 1633.64 751.379C1668.02 742.535 1702.3 733.227 1736.56 723.826C1726.05 682.495 1714.19 641.549 1703.68 600.218C1751.67 587.139 1799.72 574.214 1847.85 561.588C1857.34 595.821 1866.42 630.143 1875.43 664.505C1854.94 670.289 1834.36 675.804 1813.75 681.032C1809.98 667.327 1806.3 653.62 1802.54 639.937C1795.71 641.767 1788.9 643.591 1782.12 645.409C1787.36 666.066 1792.87 686.65 1798.67 707.183C1833.01 698.178 1867.33 689.007 1901.58 679.607C1890.96 638.307 1879.29 597.312 1868.71 555.999C1916.71 542.966 1964.77 530.087 2012.88 517.369C2022.23 551.639 2031.56 585.916 2040.45 620.286C2019.94 626.054 1999.39 631.585 1978.78 636.813C1975.01 623.131 1971.31 609.407 1967.57 595.718C1960.73 597.525 1953.92 599.349 1947.17 601.184C1952.36 621.854 1957.9 642.431 1963.7 662.964C1998.04 653.982 2032.35 644.766 2066.59 635.394C2056.01 594.082 2044.34 553.086 2033.74 511.78C2081.76 498.666 2129.91 485.935 2177.98 472.958L2205.65 576.22C2184.97 581.489 2164.49 587.469 2143.8 592.594C2140.03 578.889 2136.36 565.182 2132.6 551.499C2125.77 553.329 2118.95 555.13 2112.17 556.971C2117.41 577.628 2122.93 598.212 2128.73 618.745C2156.28 611.731 2183.64 604.007 2211.17 596.826L2216.7 617.456C2182.3 626.426 2148.06 636.068 2113.65 644.895C2104.16 610.662 2095.08 576.317 2086.05 541.984C2106.54 536.223 2127.09 530.691 2147.73 525.457C2151.47 539.146 2155.15 552.876 2158.93 566.552C2165.72 564.734 2172.53 562.91 2179.36 561.08C2174.12 540.423 2168.58 519.845 2162.81 499.329C2128.41 508.202 2094.15 517.505 2059.89 526.882C2070.42 568.207 2082.19 609.177 2092.77 650.49C2044.75 663.552 1996.69 676.454 1948.6 689.12C1939.24 654.85 1929.89 620.579 1921.02 586.203C1941.51 580.419 1962.07 574.91 1982.7 569.676C1986.44 583.365 1990.12 597.095 1993.91 610.771C2000.69 608.953 2007.5 607.129 2014.33 605.299C2009.09 584.642 2003.55 564.064 1997.78 543.548C1963.39 552.421 1929.1 561.632 1894.86 571.101C1905.49 612.401 1917.16 653.396 1927.74 694.709C1879.74 707.817 1831.67 720.598 1783.57 733.34C1774.08 699.106 1764.98 664.791 1755.99 630.422C1776.48 624.638 1797.04 619.129 1817.67 613.895C1821.41 627.584 1825.09 641.314 1828.88 654.99C1835.66 653.172 1842.47 651.348 1849.3 649.518C1844.06 628.861 1838.52 608.283 1832.75 587.744C1798.39 596.755 1764.07 605.828 1729.84 615.32C1740.32 656.657 1752.22 697.591 1762.71 738.928C1714.71 752.059 1666.64 764.817 1618.54 777.559C1609.16 743.294 1599.9 708.999 1590.99 674.635C1611.46 668.88 1632.01 663.348 1652.64 658.114C1656.39 671.803 1660.06 685.533 1663.85 699.209C1670.64 697.391 1677.44 695.567 1684.27 693.737C1679.03 673.08 1673.5 652.502 1667.72 631.963C1633.35 640.928 1599.07 650.162 1564.81 659.539C1575.43 700.839 1587.13 741.828 1597.68 783.147C1549.68 796.255 1501.6 809.088 1453.51 821.778C1444.14 787.513 1434.85 753.224 1425.96 718.854C1446.42 713.076 1466.98 707.567 1487.62 702.333C1491.36 716.045 1495.04 729.752 1498.85 743.422C1505.61 741.61 1512.4 739.815 1519.22 737.962C1514.03 717.293 1508.48 696.692 1502.69 676.182C1468.32 685.147 1434.01 694.364 1399.78 703.758C1410.4 745.058 1422.1 786.047 1432.66 827.366C1384.63 840.406 1336.62 853.393 1288.49 865.997C1279.09 831.738 1269.91 797.419 1260.91 763.079C1281.4 757.318 1301.95 751.786 1322.59 746.552C1326.33 760.241 1330.01 773.971 1333.8 787.647C1340.58 785.829 1347.39 784.005 1354.2 782.181C1349 761.512 1343.46 740.911 1337.67 720.401C1303.29 729.366 1268.97 738.514 1234.75 747.977C1245.38 789.278 1256.98 830.291 1267.63 871.585C1219.61 884.648 1171.57 897.595 1123.46 910.216C1114.06 875.957 1104.75 841.675 1095.9 807.292C1116.37 801.537 1136.93 796.005 1157.56 790.771C1161.3 804.46 1164.98 818.19 1168.77 831.866C1175.55 830.048 1182.36 828.224 1189.17 826.4C1183.95 805.737 1178.41 785.136 1172.64 764.621C1138.28 773.631 1103.96 782.802 1069.73 792.196C1080.3 833.509 1092.02 874.492 1102.59 915.782C1054.61 928.958 1006.52 941.648 958.431 954.435C948.984 920.189 939.744 885.888 930.854 851.517C951.34 845.733 971.899 840.224 992.533 834.99C996.274 848.679 999.954 862.409 1003.74 876.085C1010.53 874.267 1017.33 872.443 1024.14 870.619C1018.92 849.956 1013.41 829.372 1007.61 808.84C973.219 817.735 938.944 827.067 904.698 836.415C915.322 877.716 926.949 918.723 937.573 960.024C889.576 973.155 841.504 985.913 793.403 998.654C783.979 964.402 774.831 930.076 765.826 895.736C786.318 889.975 806.872 884.443 827.505 879.209C831.247 892.898 834.926 906.628 838.713 920.304C845.498 918.486 852.305 916.662 859.135 914.832C853.895 894.175 848.357 873.597 842.583 853.059C808.245 862.063 773.927 871.234 739.67 880.634C750.134 921.978 762.035 962.911 772.545 1004.24C724.53 1017.3 676.495 1030.2 628.375 1042.87C618.975 1008.61 609.764 974.33 600.799 939.955C621.285 934.171 641.844 928.662 662.477 923.428C666.219 937.117 669.898 950.847 673.686 964.523C680.47 962.705 687.277 960.881 694.108 959.051C688.867 938.394 683.352 917.81 677.555 897.278C643.188 906.265 608.905 915.476 574.643 924.853C585.152 966.184 596.962 1007.14 607.517 1048.46C559.533 1061.64 511.449 1074.35 463.347 1087.09C453.993 1052.82 444.69 1018.56 435.771 984.174C456.257 978.39 476.816 972.881 497.45 967.647C501.198 981.359 504.87 995.066 508.658 1008.74C515.442 1006.92 522.25 1005.1 529.08 1003.27C523.84 982.613 518.301 962.036 512.528 941.497C478.16 950.484 443.84 959.557 409.621 969.095C420.239 1010.37 431.911 1051.37 442.484 1092.66C394.511 1105.88 346.433 1118.62 298.343 1131.3C288.879 1097.09 279.777 1062.75 270.743 1028.39C291.223 1022.59 311.783 1017.08 332.422 1011.87C336.17 1025.58 339.865 1039.28 343.653 1052.96C350.414 1051.14 357.222 1049.32 364.029 1047.5C358.835 1026.83 353.29 1006.23 347.5 985.716C313.139 994.726 278.827 1003.92 244.587 1013.29C255.234 1054.59 266.792 1095.61 277.462 1136.9C229.447 1149.96 181.412 1162.86 133.292 1175.53C123.891 1141.27 114.612 1107.01 105.715 1072.61C126.195 1066.81 146.755 1061.3 167.394 1056.09C171.165 1069.79 174.838 1083.5 178.602 1097.18C185.387 1095.36 192.194 1093.54 199.002 1091.71C193.807 1071.04 188.263 1050.44 182.472 1029.93C148.117 1038.97 113.762 1048 79.5653 1057.53C90.1375 1098.82 101.793 1139.85 112.434 1181.12C64.4191 1194.18 16.3609 1207.08 -31.7358 1219.75C-41.1134 1185.48 -50.3077 1151.17 -59.3125 1116.83C-38.8204 1111.07 -18.2667 1105.54 2.36673 1100.3C6.1083 1113.99 9.78715 1127.72 13.5746 1141.4C20.3819 1139.58 27.1664 1137.76 33.9967 1135.93C28.7564 1115.27 23.2182 1094.69 17.4507 1074.18C-16.9182 1083.07 -51.2057 1092.35 -85.4686 1101.73C-74.8443 1143.03 -63.2406 1184.04 -52.5996 1225.31" stroke="url(#paint0_radial_1021_33897)" stroke-opacity="0.6"/>
<defs>
<radialGradient id="paint0_radial_1021_33897" cx="0" cy="0" r="1" gradientUnits="userSpaceOnUse" gradientTransform="translate(964 702) rotate(-90) scale(553.5 1312.31)">
<stop stop-color="#1B1B1B"/>
<stop offset="1" stop-color="#1B1B1B" stop-opacity="0"/>
</radialGradient>
</defs>
</svg>
