<svg width="94" height="94" viewBox="0 0 94 94" fill="none" xmlns="http://www.w3.org/2000/svg">
<g id="Token 24x24">
<rect x="19.9355" y="0.125" width="76.5466" height="76.5466" rx="18.3712" transform="rotate(15 19.9355 0.125)" fill="#12AAFF"/>
<g id="Vector">
<path d="M50.1588 52.4227L45.4492 59.1149C45.2745 59.3045 45.213 59.5339 45.2695 59.7855L46.5938 73.8731L52.8712 72.1787L51.0569 52.6634C51.0708 52.1848 50.5017 52.0323 50.1588 52.4227Z" fill="#EAEAEA"/>
<path d="M58.9638 41.2952C58.9688 40.8141 58.4086 40.664 58.0568 41.0521L53.3472 47.7442C53.1725 47.9339 53.111 48.1633 53.1675 48.4149L55.2362 71.4978L61.5136 69.8034L58.9638 41.2952Z" fill="#EAEAEA"/>
<path d="M53.5937 22.3876C53.7093 22.4186 53.816 22.4472 53.9009 22.5929L71.5439 40.0884C71.7355 40.2627 71.792 40.5143 71.7022 40.8496L65.3181 64.6752C65.259 64.8958 65.0512 65.2089 64.8005 65.2553L40.7734 71.5853C40.6271 71.6691 40.5204 71.6405 40.4048 71.6095C40.2892 71.5785 40.1825 71.5499 40.0976 71.4042L22.4545 53.9087C22.263 53.7344 22.2065 53.4828 22.2963 53.1475L28.6804 29.3219C28.7395 29.1013 28.9473 28.7881 29.198 28.7418L53.2251 22.4118C53.3625 22.3256 53.4781 22.3566 53.5937 22.3876ZM54.5277 18.902C53.7363 18.6899 52.9924 18.7271 52.2244 18.8901L28.1973 25.2202C26.6263 25.641 25.4731 26.779 25.0522 28.3498L18.6682 52.1754C18.2757 53.6402 18.677 55.3083 19.8271 56.4582L37.4701 73.9537C38.0561 74.4701 38.6794 74.883 39.4708 75.0951C40.2622 75.3072 41.0061 75.27 41.7741 75.107L65.8012 68.7769C67.3722 68.3561 68.5254 67.218 68.9462 65.6473L75.3303 41.8217C75.7228 40.3569 75.3215 38.6888 74.1714 37.5389L56.6351 20.072C56.0491 19.5556 55.4258 19.1427 54.6344 18.9306L54.5277 18.902Z" fill="#EAEAEA"/>
<path d="M27.7253 64.1168L31.0316 59.4604L34.0379 63.6424L29.5155 66.0435L27.7253 64.1168Z" fill="#EAEAEA"/>
<path d="M48.9444 32.9452L43.6178 31.518C43.2799 31.4274 42.7673 31.5265 42.5595 31.8397L22.9897 59.5944L27.5789 64.2005L49.1026 33.7064C49.3081 33.4021 49.1667 33.0048 48.8288 32.9142L48.9444 32.9452Z" fill="#EAEAEA"/>
<path d="M58.1126 35.4018L52.786 33.9745C52.4481 33.884 51.9354 33.9831 51.7276 34.2963L29.4306 65.8978L34.0198 70.504L58.2991 36.0571C58.5046 35.7528 58.3632 35.3555 58.0253 35.2649L58.1126 35.4018Z" fill="#EAEAEA"/>
</g>
</g>
</svg>
