<svg width="202" height="202" viewBox="0 0 202 202" fill="none" xmlns="http://www.w3.org/2000/svg">
<g id="Frame 1707479863" filter="url(#filter0_d_788_32219)">
<rect x="51.9248" y="16" width="138.804" height="138.804" rx="34.7011" transform="rotate(15 51.9248 16)" fill="#8247E5"/>
<path id="Vector" d="M121.205 94.5441C120.161 93.5394 118.586 93.1173 117.004 93.4185L105.707 96.3719L98.1048 98.1405L86.9829 101.141C85.5764 101.489 84.0011 101.067 82.7821 100.015L76.4337 93.6023C75.3897 92.5977 74.877 91.0105 75.2847 89.4887L77.55 81.0345C77.9125 79.6818 78.9751 78.5167 80.6019 78.0465L89.2609 75.836C90.6674 75.488 92.2427 75.9101 93.4617 76.9616L99.8101 83.3745C100.854 84.3792 101.367 85.9664 100.959 87.4881L99.464 93.068L107.112 91.1303L108.652 85.3814C109.015 84.0287 108.677 82.4884 107.503 81.2678L95.6302 69.5688C94.5862 68.5641 93.0109 68.142 91.4294 68.4432L74.9021 72.7135C73.3206 73.0146 72.258 74.1797 71.8956 75.5324L67.6368 91.4264C67.2743 92.7791 67.612 94.3194 68.7857 95.54L80.8339 107.286C81.8779 108.291 83.4532 108.713 85.0347 108.412L96.1113 105.58L103.759 103.643L114.836 100.811C116.242 100.463 117.818 100.885 119.037 101.937L125.43 108.181C126.474 109.185 126.987 110.773 126.579 112.294L124.314 120.749C123.952 122.101 122.889 123.266 121.262 123.737L112.778 125.994C111.372 126.342 109.796 125.92 108.577 124.868L102.184 118.625C101.14 117.62 100.627 116.033 101.035 114.511L102.485 109.1L94.8365 111.038L93.3414 116.618C92.979 117.97 93.3167 119.511 94.4904 120.731L106.539 132.477C107.583 133.482 109.158 133.904 110.739 133.603L127.046 129.455C128.453 129.107 129.69 127.988 130.098 126.467L134.402 110.404C134.765 109.051 134.427 107.511 133.253 106.29L121.205 94.5441Z" fill="#EAEAEA"/>
</g>
<defs>
<filter id="filter0_d_788_32219" x="-8.29077" y="-8.29077" width="218.582" height="218.582" filterUnits="userSpaceOnUse" color-interpolation-filters="sRGB">
<feFlood flood-opacity="0" result="BackgroundImageFix"/>
<feColorMatrix in="SourceAlpha" type="matrix" values="0 0 0 0 0 0 0 0 0 0 0 0 0 0 0 0 0 0 127 0" result="hardAlpha"/>
<feOffset/>
<feGaussianBlur stdDeviation="12.1454"/>
<feComposite in2="hardAlpha" operator="out"/>
<feColorMatrix type="matrix" values="0 0 0 0 0.509804 0 0 0 0 0.278431 0 0 0 0 0.898039 0 0 0 1 0"/>
<feBlend mode="normal" in2="BackgroundImageFix" result="effect1_dropShadow_788_32219"/>
<feBlend mode="normal" in="SourceGraphic" in2="effect1_dropShadow_788_32219" result="shape"/>
</filter>
</defs>
</svg>
