<svg width="148" height="238" viewBox="0 0 148 238" fill="none" xmlns="http://www.w3.org/2000/svg">
<g id="Frame 1707479862" filter="url(#filter0_d_788_32221)">
<rect x="19" y="61.2656" width="163.299" height="163.299" rx="40.8248" transform="rotate(-15 19 61.2656)" fill="#F0B90B"/>
<path id="Vector" d="M91.0705 97.2557L108.425 79.5699L132.297 86.209L125.708 92.5572L110.803 88.4447L99.6159 99.5487L91.0705 97.2557ZM136.028 101.403L127.465 99.1145L116.613 110.129L101.373 106.106L95.1013 112.369L97.4793 121.244L112.402 125.352L116.542 140.802L125.192 143.414L131.377 136.827L127.328 121.718L138.198 110.699L135.734 101.501L136.033 101.421L136.028 101.403ZM142.546 125.728L140.168 116.853L133.983 123.439L136.27 131.973L142.546 125.728ZM148.815 127.206L137.963 138.22L140.341 147.095L157.713 129.404L151.2 105.097L144.784 112.092L148.815 127.206ZM132.069 94.3767L140.718 96.9883L143.096 105.863L149.281 99.2766L146.903 90.4018L138.254 87.7901L132.069 94.3767ZM118.213 147.036L120.591 155.911L129.24 158.522L135.425 151.936L133.047 143.061L126.862 149.648L118.213 147.036ZM101.619 136.694L110.182 138.982L107.804 130.108L99.1545 127.496L101.619 136.694ZM105.976 101.368L114.626 103.98L121.128 97.3083L112.478 94.6966L105.976 101.368ZM88.8502 110.886L95.3523 104.215L86.3855 101.688L80.2006 108.275L82.5786 117.15L91.2282 119.761L88.8502 110.886ZM92.8986 125.995L84.249 123.383L90.762 147.69L114.652 154.325L112.274 145.45L97.3507 141.342L93.2109 125.892L92.8986 125.995Z" fill="#EAEAEA"/>
</g>
<defs>
<filter id="filter0_d_788_32221" x="-9.57738" y="-9.57738" width="257.155" height="257.155" filterUnits="userSpaceOnUse" color-interpolation-filters="sRGB">
<feFlood flood-opacity="0" result="BackgroundImageFix"/>
<feColorMatrix in="SourceAlpha" type="matrix" values="0 0 0 0 0 0 0 0 0 0 0 0 0 0 0 0 0 0 127 0" result="hardAlpha"/>
<feOffset/>
<feGaussianBlur stdDeviation="14.2887"/>
<feComposite in2="hardAlpha" operator="out"/>
<feColorMatrix type="matrix" values="0 0 0 0 0.941176 0 0 0 0 0.72549 0 0 0 0 0.0431373 0 0 0 1 0"/>
<feBlend mode="normal" in2="BackgroundImageFix" result="effect1_dropShadow_788_32221"/>
<feBlend mode="normal" in="SourceGraphic" in2="effect1_dropShadow_788_32221" result="shape"/>
</filter>
</defs>
</svg>
