<svg width="176" height="47" viewBox="0 0 176 47" fill="none" xmlns="http://www.w3.org/2000/svg">
<g id="logo-default 1" clip-path="url(#clip0_791_32485)">
<g id="Group">
<g id="Group_2">
<path id="Vector" d="M12.4463 36.7949L12.1086 33.9469C10.8707 36.2195 9.00742 37.3558 6.48144 37.3558C5.3685 37.3558 4.36811 37.0825 3.46776 36.5216C2.5674 35.975 1.85462 35.2127 1.31691 34.249C0.791709 33.2853 0.516602 32.1634 0.516602 30.8832C0.516602 28.4668 1.34192 26.5969 2.98007 25.2593C4.61821 23.9216 6.78155 23.2599 9.4701 23.2599C10.3079 23.2599 11.1958 23.3462 12.1336 23.5188C12.0336 22.4401 11.6335 21.6202 10.9332 21.0736C10.2329 20.5271 9.37007 20.2394 8.35717 20.2394C7.46932 20.2394 6.56897 20.4264 5.68112 20.8147C4.78077 21.2031 3.91793 21.6634 3.10511 22.1956L0.916758 17.4346C2.15474 16.5284 3.48026 15.8236 4.91832 15.3346C6.35639 14.8312 7.79445 14.5723 9.22001 14.5723C10.9457 14.5723 12.4963 14.9175 13.8843 15.5935C15.2599 16.2695 16.3478 17.3051 17.1356 18.7003C17.9234 20.0956 18.3236 21.8503 18.3236 23.9791V36.7949H12.4463ZM6.78155 29.7613C6.78155 30.4086 6.99414 30.9408 7.4068 31.3579C7.83196 31.775 8.36967 31.9764 9.03243 31.9764C9.92028 31.9764 10.6706 31.6312 11.2708 30.9408C11.871 30.2503 12.1712 29.373 12.1712 28.323V27.6038C11.5084 27.4599 10.8081 27.388 10.0578 27.388C9.11997 27.388 8.33216 27.575 7.70691 27.9346C7.09417 28.3086 6.78155 28.9127 6.78155 29.7613Z" fill="#B9B9B9" fill-opacity="0.7"/>
<path id="Vector_2" d="M37.8934 31.2587V36.7964H21.2119V32.1649L29.7903 20.6724H21.7621V15.1348H37.6058V19.7663L29.1025 31.2587H37.8934Z" fill="#B9B9B9" fill-opacity="0.7"/>
<path id="Vector_3" d="M49.7359 37.3413C47.8102 37.3413 46.1095 36.8666 44.6089 35.9173C43.1208 34.968 41.9329 33.6447 41.07 31.933C40.2072 30.2358 39.7695 28.2509 39.7695 25.9782C39.7695 23.7056 40.1947 21.7207 41.07 20.0235C41.9329 18.3262 43.1083 16.9885 44.6089 16.0392C46.097 15.0899 47.8102 14.6152 49.7359 14.6152C51.4366 14.6152 52.9247 14.9748 54.2127 15.694C55.5007 16.4132 56.6261 17.5782 57.614 19.1604L53.3623 22.7419C53.0122 22.1522 52.562 21.6632 52.0118 21.2748C51.4616 20.8865 50.8614 20.6995 50.2236 20.6995C49.1107 20.6995 48.1853 21.1741 47.4475 22.1235C46.7097 23.0728 46.3346 24.3529 46.3346 25.9782C46.3346 27.5892 46.7097 28.8837 47.4475 29.833C48.1853 30.7824 49.1107 31.257 50.2236 31.257C50.8614 31.257 51.4616 31.07 52.0118 30.6817C52.562 30.2933 53.0122 29.8043 53.3623 29.2146L57.614 32.7961C56.6261 34.3782 55.4882 35.5433 54.2127 36.2625C52.9372 36.9817 51.4366 37.3413 49.7359 37.3413Z" fill="#B9B9B9" fill-opacity="0.7"/>
<path id="Vector_4" d="M77.6101 34.5798C76.6722 35.3421 75.4843 36.0038 74.0337 36.536C72.5957 37.0682 71.0576 37.3414 69.4319 37.3414C67.181 37.3414 65.2678 36.8668 63.6797 35.9175C62.0915 34.9682 60.8661 33.6449 60.0157 31.9332C59.1654 30.236 58.7402 28.2798 58.7402 26.0647C58.7402 23.8209 59.1654 21.836 60.0032 20.1099C60.8411 18.3839 62.004 17.0175 63.4796 16.0394C64.9552 15.0613 66.6808 14.5723 68.6566 14.5723C70.5824 14.5723 72.2705 15.0469 73.7461 15.9962C75.2092 16.9456 76.3596 18.2688 77.1849 19.9517C78.0103 21.6346 78.4229 23.6195 78.4229 25.8921C78.4229 26.2086 78.4104 26.525 78.3729 26.8702C78.3354 27.2154 78.2979 27.5606 78.2479 27.9346H65.1177C65.7055 30.4373 67.3186 31.6743 69.9696 31.6743C71.1576 31.6743 72.1955 31.4586 73.1084 31.0414C74.0212 30.6099 74.784 30.1928 75.3967 29.7613L77.6101 34.5798ZM68.8067 19.9373C66.7059 19.9373 65.4554 21.2175 65.0302 23.7634H72.208C72.0329 22.3682 71.6203 21.3901 70.97 20.8003C70.3198 20.225 69.5945 19.9373 68.8067 19.9373Z" fill="#B9B9B9" fill-opacity="0.7"/>
<path id="Vector_5" d="M88.0259 24.8277V36.7805H81.5859V15.1332H87.4632L87.8009 17.9812C88.4136 16.9599 89.2139 16.1401 90.2018 15.5072C91.1897 14.8887 92.2776 14.5723 93.4531 14.5723C95.5039 14.5723 97.142 15.3346 98.38 16.8736C99.618 18.4127 100.231 20.599 100.231 23.4757V36.7949H93.7907V24.3243C93.7907 23.0442 93.5406 22.1093 93.0529 21.4908C92.5652 20.8866 91.865 20.5702 90.9771 20.5702C90.0893 20.5702 89.3765 20.901 88.8263 21.5483C88.3011 22.2099 88.0259 23.3031 88.0259 24.8277Z" fill="#B9B9B9" fill-opacity="0.7"/>
<path id="Vector_6" d="M117.788 35.3876C117.026 35.9773 116.15 36.452 115.162 36.8116C114.175 37.1712 113.137 37.3438 112.049 37.3438C110.023 37.3438 108.422 36.6678 107.222 35.3157C106.021 33.9636 105.434 32.1657 105.434 29.8931V20.6588H102.357V15.1212H105.721L106.534 9.08008H111.861V15.1212H116.788V20.6588H111.861V28.9582C111.861 29.6917 112.049 30.2671 112.436 30.6842C112.824 31.1013 113.324 31.3027 113.974 31.3027C114.3 31.3027 114.625 31.2308 114.95 31.0869C115.287 30.9431 115.6 30.7705 115.888 30.5691L117.788 35.3876Z" fill="#B9B9B9" fill-opacity="0.7"/>
<path id="Vector_7" d="M126.916 28.4121V36.7977H120.476V15.136H126.353L126.766 18.7463C127.166 17.5812 127.803 16.6463 128.704 15.9128C129.604 15.1936 130.642 14.834 131.83 14.834C132.493 14.834 133.005 14.9347 133.343 15.136V21.8963C133.068 21.7812 132.768 21.6949 132.443 21.6374C132.105 21.5799 131.73 21.5511 131.317 21.5511C130.029 21.5511 128.979 22.0977 128.154 23.1908C127.328 24.284 126.916 26.0244 126.916 28.4121Z" fill="#B9B9B9" fill-opacity="0.7"/>
<path id="Vector_8" d="M146.912 36.7961L146.574 33.9482C145.336 36.2208 143.461 37.3571 140.947 37.3571C139.834 37.3571 138.834 37.0838 137.934 36.5228C137.033 35.9762 136.32 35.2139 135.783 34.2502C135.258 33.2865 134.982 32.1646 134.982 30.8845C134.982 28.468 135.808 26.5982 137.446 25.2605C139.084 23.9228 141.247 23.2612 143.936 23.2612C144.774 23.2612 145.662 23.3475 146.599 23.5201C146.499 22.4413 146.099 21.6215 145.399 21.0749C144.699 20.5283 143.836 20.2406 142.823 20.2406C141.935 20.2406 141.035 20.4276 140.134 20.816C139.234 21.2043 138.371 21.6646 137.558 22.1968L135.37 17.4358C136.608 16.5297 137.934 15.8249 139.372 15.3358C140.797 14.8468 142.235 14.5879 143.661 14.5879C145.386 14.5879 146.937 14.9331 148.325 15.6091C149.701 16.2852 150.789 17.3208 151.576 18.716C152.364 20.1112 152.764 21.866 152.764 23.9947V36.8105H146.912V36.7961ZM141.247 29.7625C141.247 30.4098 141.46 30.942 141.873 31.3591C142.298 31.7762 142.835 31.9776 143.498 31.9776C144.386 31.9776 145.136 31.6324 145.737 30.942C146.337 30.2516 146.637 29.3742 146.637 28.3242V27.605C145.974 27.4612 145.274 27.3893 144.524 27.3893C143.586 27.3893 142.798 27.5762 142.173 27.9358C141.56 28.3098 141.247 28.9139 141.247 29.7625Z" fill="#B9B9B9" fill-opacity="0.7"/>
<path id="Vector_9" d="M156.803 36.797V5.72852H163.243V36.797H156.803Z" fill="#B9B9B9" fill-opacity="0.7"/>
<path id="Vector_10" d="M171.184 37.2577C170.396 37.2577 169.671 37.042 169.02 36.5961C168.37 36.1502 167.845 35.5605 167.47 34.8125C167.082 34.0646 166.895 33.2304 166.895 32.3242C166.895 31.418 167.082 30.5838 167.47 29.8358C167.857 29.0879 168.37 28.4838 169.02 28.0523C169.671 27.6064 170.396 27.3906 171.184 27.3906C171.972 27.3906 172.697 27.6064 173.347 28.0523C173.997 28.4982 174.523 29.0879 174.898 29.8358C175.285 30.5838 175.473 31.418 175.473 32.3242C175.473 33.2304 175.285 34.0646 174.898 34.8125C174.51 35.5605 173.997 36.1646 173.347 36.5961C172.697 37.042 171.972 37.2577 171.184 37.2577Z" fill="#B9B9B9" fill-opacity="0.7"/>
</g>
</g>
</g>
<defs>
<clipPath id="clip0_791_32485">
<rect width="175.068" height="46.0274" fill="white" transform="translate(0.46582 0.410156)"/>
</clipPath>
</defs>
</svg>
