<svg width="59" height="15" viewBox="0 0 59 15" fill="none" xmlns="http://www.w3.org/2000/svg">
<g id="Frame" clip-path="url(#clip0_68_11272)">
<g id="Group">
<path id="Vector" d="M0.271927 14.0538C0.366652 14.1589 0.492952 14.1214 0.600307 14.1214C3.43574 14.1214 6.27749 14.0538 9.11292 14.1514C10.2054 14.189 11.3042 14.2265 12.3967 14.249C13.4261 14.2716 14.4491 14.2791 15.4784 14.2415C15.9015 14.2265 16.312 14.3316 16.7351 14.3316C17.1203 14.3241 17.133 14.3016 17.1267 13.851C17.1203 12.2138 17.1267 10.5766 17.1267 8.93946C17.1267 6.37854 17.1267 3.81763 17.1267 1.25671C17.1267 1.10651 17.1456 0.956312 17.1393 0.806111C17.133 0.603341 17.2151 0.543261 17.3666 0.558281C17.4171 0.565791 17.474 0.558281 17.5245 0.558281C31.0512 0.558281 44.5843 0.558281 58.111 0.558281C58.5152 0.558281 58.5152 0.558281 58.5152 1.03892C58.5152 5.27457 58.5152 9.51022 58.5152 13.7384C58.5152 14.4143 58.5152 14.4143 57.9657 14.4143C44.439 14.4143 30.906 14.4143 17.3793 14.4218C11.7147 14.4218 6.05015 14.4218 0.379282 14.4293C0.158257 14.4293 0.000382498 14.4067 0.107737 14.0763C0.158257 14.0688 0.215092 14.0613 0.271927 14.0538ZM40.2648 9.91576C40.2332 9.92327 40.208 9.92327 40.1764 9.93078C40.0059 9.32247 39.8354 8.71416 39.6649 8.10584C39.1092 6.10818 38.5534 4.11052 37.9977 2.11285C37.9472 1.9251 37.8651 1.83498 37.682 1.84249C37.2652 1.85751 36.8421 1.85 36.419 1.85C36.059 1.85 36.0653 1.85 36.1853 2.25554C36.6337 3.74253 37.0821 5.23702 37.5304 6.724C38.1367 8.72918 38.7429 10.7343 39.3365 12.747C39.4123 13.0099 39.526 13.0925 39.747 13.07C40.0185 13.0474 40.2964 13.0399 40.5679 13.07C40.8268 13.0925 40.9531 12.9949 41.0416 12.687C41.5846 10.8019 42.153 8.92444 42.7087 7.03942C42.8918 6.43111 43.0687 5.8228 43.2518 5.222C43.3528 5.25204 43.3718 5.31963 43.3907 5.38722C43.536 5.88288 43.6812 6.37854 43.8265 6.86669C44.4075 8.8193 44.9884 10.7644 45.5631 12.717C45.6389 12.9648 45.7399 13.0775 45.9736 13.0625C46.2767 13.0399 46.5861 13.0399 46.8892 13.0625C47.0913 13.07 47.1797 12.9874 47.2492 12.7545C47.6534 11.3802 48.0701 10.0059 48.4869 8.63906C49.1311 6.49119 49.7752 4.34333 50.4256 2.20297C50.5077 1.94012 50.4762 1.83498 50.2236 1.84249C49.8257 1.85751 49.4216 1.86502 49.0237 1.84249C48.7774 1.82747 48.6953 1.95514 48.6322 2.20297C47.9754 4.58365 47.3123 6.96432 46.643 9.33749C46.5798 9.54777 46.5735 9.80311 46.3967 9.99086C45.6768 7.475 44.9695 4.98919 44.2496 2.50337C44.0096 1.68478 44.1927 1.85 43.4602 1.83498C43.2581 1.82747 43.0624 1.84249 42.8603 1.83498C42.6708 1.81996 42.5824 1.90257 42.5193 2.12036C42.1088 3.59984 41.6794 5.0718 41.2563 6.54376C40.9153 7.65524 40.5869 8.78174 40.2648 9.91576ZM20.0126 5.21449C20.0947 5.22951 20.1263 5.31963 20.1642 5.37971C21.6419 7.57263 23.1196 9.75805 24.591 11.951C25.2793 12.9798 25.2667 12.9798 26.3718 12.9874C26.6749 12.9874 26.7318 12.8672 26.7318 12.5368C26.7191 10.7644 26.7255 8.99203 26.7255 7.21966C26.7255 5.54493 26.7191 3.8702 26.7318 2.20297C26.7318 1.90257 26.6623 1.81245 26.416 1.82747C26.0687 1.85 25.7214 1.85 25.374 1.82747C25.1088 1.81245 25.0394 1.91759 25.0394 2.2255C25.052 4.3959 25.0457 6.56629 25.0457 8.7442C25.0457 8.93195 25.1278 9.22484 24.9825 9.29243C24.8373 9.35251 24.7425 9.06713 24.6415 8.92444C23.1448 6.70147 21.6482 4.48602 20.1642 2.25554C19.9558 1.94012 19.7348 1.78241 19.3937 1.82747C19.1475 1.86502 18.8885 1.85751 18.6359 1.82747C18.3328 1.78992 18.2697 1.93261 18.276 2.26305C18.2886 5.35718 18.2823 8.4513 18.2823 11.5529C18.2823 11.9284 18.2886 12.3039 18.2823 12.6794C18.276 12.9047 18.3391 12.9949 18.5349 12.9874C18.8696 12.9723 19.2043 12.9874 19.5453 12.9798C19.9621 12.9798 19.9684 12.9798 19.9684 12.4617C19.9684 10.1636 19.9684 7.86552 19.9747 5.56746C19.9621 5.46232 19.9179 5.32714 20.0126 5.21449ZM28.1084 7.42243C28.1084 9.15725 28.1148 10.8921 28.1021 12.6269C28.1021 12.9047 28.159 13.0174 28.3989 12.9874C28.6073 12.9648 28.822 12.9798 29.0304 12.9798C31.026 12.9798 33.0215 12.9723 35.0234 12.9874C35.2823 12.9874 35.3833 12.9123 35.3644 12.5893C35.3454 12.2814 35.3454 11.966 35.3644 11.6506C35.3896 11.3201 35.3075 11.2 35.0044 11.2C33.4194 11.215 31.828 11.2075 30.2429 11.2075C29.8072 11.2075 29.8072 11.2075 29.8072 10.6743C29.8072 10.0134 29.8261 9.35251 29.8009 8.69163C29.7882 8.31612 29.8956 8.23351 30.1924 8.24102C31.5817 8.25604 32.9647 8.24102 34.354 8.25604C34.6003 8.25604 34.695 8.18094 34.676 7.88054C34.6571 7.54259 34.6508 7.20464 34.676 6.86669C34.695 6.54376 34.5876 6.47617 34.335 6.47617C32.9394 6.49119 31.5375 6.47617 30.1419 6.49119C29.883 6.49119 29.7945 6.40107 29.8009 6.08565C29.8198 5.40975 29.8261 4.73385 29.8009 4.06546C29.7882 3.68245 29.8893 3.58482 30.205 3.59233C31.7901 3.61486 33.3815 3.59984 34.9665 3.60735C35.2065 3.60735 35.3139 3.54727 35.2949 3.23936C35.276 2.90141 35.2696 2.56345 35.2949 2.2255C35.3202 1.90257 35.2065 1.83498 34.9539 1.83498C32.7752 1.84249 30.6029 1.85 28.4242 1.83498C28.1716 1.83498 28.1084 1.91759 28.1084 2.21048C28.1148 3.9453 28.1084 5.68762 28.1084 7.42243ZM54.3473 13.1526C54.562 13.1751 54.8967 13.1 55.225 13.0474C56.5133 12.8221 57.429 11.8233 57.6753 10.3814C57.8837 9.17227 57.4858 8.08331 56.6143 7.41492C56.1091 7.03191 55.5534 6.82163 54.9851 6.64139C54.3157 6.4236 53.6273 6.28842 53.0022 5.93545C52.6359 5.73268 52.3391 5.45481 52.3265 4.90658C52.3075 4.11803 52.7432 3.5698 53.4695 3.47217C54.5178 3.32948 55.4398 3.71249 56.286 4.40341C56.4501 4.53859 56.5449 4.5461 56.6649 4.33582C56.848 4.00538 57.0438 3.67494 57.2648 3.37454C57.4227 3.14924 57.3848 3.03659 57.1953 2.87888C55.9513 1.84249 54.5683 1.50454 53.0906 1.78241C52.1117 1.96265 51.2845 2.51088 50.8551 3.63739C50.312 5.06429 50.5772 6.88171 52.1181 7.64773C52.6612 7.91809 53.2232 8.10584 53.7979 8.27857C54.3473 8.4438 54.903 8.57898 55.4145 8.88689C55.7871 9.11219 56.027 9.45765 56.0144 9.98335C56.0018 10.509 55.7997 10.8845 55.4082 11.1249C54.9346 11.4102 54.423 11.4628 53.9052 11.4027C53.0022 11.2901 52.2002 10.877 51.5055 10.2011C51.3224 10.0209 51.2024 10.0059 51.0445 10.2462C50.8677 10.5241 50.6719 10.7944 50.4635 11.0347C50.2488 11.2901 50.2615 11.4478 50.5077 11.6656C51.6065 12.6344 52.8443 13.1225 54.3473 13.1526Z" fill="#B9B9B9" fill-opacity="0.7"/>
<path id="Vector_2" d="M0.271806 14.0538C0.214971 14.0614 0.158136 14.0689 0.107616 14.0764C0.0255213 13.9712 0.0634112 13.8361 0.0634112 13.7159C0.0570962 9.48775 0.0634112 5.25211 0.0507812 1.01646C0.0507812 0.61843 0.158136 0.55835 0.461256 0.55835C4.78703 0.57337 9.11912 0.57337 13.4512 0.57337V0.58839L13.4575 0.57337C13.5586 0.68602 13.527 0.82871 13.527 0.96389C13.527 3.38962 13.527 5.80785 13.5333 8.23358C13.5333 8.51896 13.5144 8.72924 13.2365 8.81936C13.0155 8.88695 12.9081 9.14229 12.7692 9.35258C12.6429 9.17233 12.6492 8.99209 12.6555 8.80434C12.6618 6.296 12.6618 3.78766 12.6745 1.2718C12.6745 0.94136 12.605 0.84373 12.3208 0.85124C11.563 0.87377 10.8052 0.85875 10.0537 0.85875C9.90849 0.85875 9.79483 0.87377 9.71273 1.0465C9.45382 1.5722 9.18227 2.0979 8.90441 2.60858C8.79706 2.80384 8.816 2.85641 9.01808 2.85641C9.52328 2.84139 10.0285 2.86392 10.5337 2.8489C10.7358 2.84139 10.8115 2.91649 10.8115 3.16432C10.7989 5.33472 10.7989 7.51262 10.7989 9.68302C10.7989 9.87077 10.7989 10.0135 10.5589 9.9684C10.1232 9.87828 9.75062 10.1186 9.58643 10.5316C9.39698 11.0048 9.46645 11.4328 9.78851 11.8309C9.81377 11.8684 9.84535 11.906 9.90218 11.9811C9.62432 12.0637 9.39067 12.1688 9.12544 12.1688C7.52774 12.1688 5.93005 12.1688 4.33235 12.1688C4.23763 12.1688 4.0987 12.2289 4.05449 12.0787C4.02292 11.9585 4.1429 11.891 4.19974 11.8159C5.14699 10.5091 6.14476 9.26245 7.02254 7.88812C7.49617 7.15214 7.91296 6.3711 8.02031 5.42484C8.22871 3.53232 7.46459 1.91766 5.98057 1.1967C4.83755 0.63345 3.68191 0.63345 2.56415 1.1967C1.53481 1.71489 1.01066 2.75127 0.751746 3.99043C0.694911 4.25328 0.663336 4.53115 0.619131 4.794C0.581241 4.99677 0.650706 5.06436 0.821211 5.06436C1.28221 5.05685 1.7432 5.05685 2.21051 5.06436C2.38102 5.06436 2.46943 4.98926 2.48837 4.794C2.49469 4.70388 2.50732 4.62127 2.51995 4.53115C2.67782 3.4497 3.29038 2.80384 4.19342 2.73625C5.17225 2.66115 5.94268 3.24693 6.18896 4.26079C6.34052 4.88412 6.18896 5.44737 5.92373 5.97307C5.45642 6.8968 4.86913 7.71539 4.27552 8.52647C2.99357 10.2913 1.699 12.0412 0.410736 13.806C0.353901 13.8886 0.316011 13.9787 0.271806 14.0538Z" fill="#B9B9B9" fill-opacity="0.7"/>
<path id="Vector_3" d="M13.4131 13.4233C13.4889 13.0252 13.672 12.6723 13.7983 12.3043C13.9814 11.7786 14.1835 11.2529 14.3793 10.7347C14.594 10.1789 15.0424 9.95363 15.4591 10.1789C15.8886 10.4117 16.0275 10.9825 15.7938 11.5458C15.7749 11.5983 15.7496 11.6584 15.7117 11.696C14.9729 12.2817 14.234 12.86 13.4952 13.4383C13.4826 13.4533 13.451 13.4383 13.4131 13.4233Z" fill="#B9B9B9" fill-opacity="0.7"/>
<path id="Vector_4" d="M13.2812 12.8072C13.2244 12.4693 13.1676 12.1313 13.1234 11.7858C13.0728 11.4179 13.0539 11.0424 12.9844 10.6819C12.9213 10.3439 12.9276 10.0661 13.1991 9.86328C12.8392 9.64549 12.8392 9.33007 13.1802 9.04469C13.4833 8.78935 13.8748 8.79686 14.1527 9.05971C14.399 9.29252 14.5063 9.71308 14.3611 10.1111C14.039 11.0123 13.698 11.906 13.3633 12.8072C13.3318 12.8072 13.3065 12.8072 13.2812 12.8072Z" fill="#B9B9B9" fill-opacity="0.7"/>
<path id="Vector_5" d="M12.1692 12.7774C11.8281 11.8762 11.4682 10.9825 11.1588 10.0663C11.0388 9.72085 11.1082 9.34535 11.3924 9.09001C11.664 8.84969 11.9544 8.81214 12.2449 8.99989C12.5354 9.18013 12.6554 9.48804 12.6112 9.87105C12.5038 10.7798 12.3902 11.681 12.2828 12.5897C12.2765 12.6573 12.2639 12.7399 12.1692 12.7774Z" fill="#B9B9B9" fill-opacity="0.7"/>
<path id="Vector_6" d="M11.3729 12.8607C10.8488 12.5077 10.3689 12.0872 9.88891 11.6741C9.63631 11.4563 9.60474 11.1109 9.69315 10.7579C9.78787 10.3974 10.0152 10.2172 10.3183 10.1721C10.6341 10.1271 10.9372 10.3223 11.0635 10.6603C11.2719 11.216 11.4677 11.7793 11.6697 12.335C11.6634 12.4026 11.6319 12.4777 11.7203 12.5002C11.7455 12.5753 11.7708 12.6429 11.8024 12.718C11.815 13.0635 11.6508 13.0259 11.4677 12.9358C11.4424 12.9133 11.4171 12.8908 11.3856 12.8682C11.3793 12.8682 11.3729 12.8607 11.3729 12.8607Z" fill="#B9B9B9" fill-opacity="0.7"/>
<path id="Vector_7" d="M13.4258 13.874C14.0762 13.3559 14.7204 12.8302 15.3771 12.327C15.6045 12.1543 15.996 12.2294 16.217 12.4697C16.4507 12.725 16.5138 13.0479 16.4191 13.3934C16.3244 13.7389 16.1223 13.9717 15.7939 13.9717C15.0108 13.9792 14.2341 13.9717 13.451 13.9717C13.4384 13.9341 13.4321 13.9041 13.4258 13.874Z" fill="#B9B9B9" fill-opacity="0.7"/>
<path id="Vector_8" d="M11.9614 13.8734C11.3109 13.3552 10.6668 12.8295 10.01 12.3263C9.78271 12.1536 9.39118 12.2287 9.17015 12.469C8.9365 12.7243 8.87335 13.0473 8.96807 13.3927C9.0628 13.7382 9.26488 13.971 9.59326 13.971C10.3763 13.9785 11.1531 13.971 11.9361 13.971C11.9424 13.9335 11.9488 13.9034 11.9614 13.8734Z" fill="#B9B9B9" fill-opacity="0.7"/>
<path id="Vector_9" d="M11.4619 12.9348C11.6514 13.0249 11.8092 13.0624 11.7966 12.717C11.9924 12.8972 11.9797 13.1901 12.0871 13.4304C11.8534 13.3028 11.6135 13.1976 11.4619 12.9348Z" fill="#B9B9B9" fill-opacity="0.7"/>
<path id="Vector_10" d="M11.7205 12.4989C11.6258 12.4764 11.6637 12.4013 11.67 12.3337C11.7457 12.3638 11.7647 12.4163 11.7205 12.4989Z" fill="#B9B9B9" fill-opacity="0.7"/>
<path id="Vector_11" d="M13.4576 0.573464L13.4512 0.588762V0.573464L13.4576 0.558167V0.573464Z" fill="#B9B9B9" fill-opacity="0.7"/>
<path id="Vector_12" d="M11.3735 12.8595L11.3798 12.8672L11.3672 12.8748L11.3735 12.8595Z" fill="#B9B9B9" fill-opacity="0.7"/>
</g>
</g>
<defs>
<clipPath id="clip0_68_11272">
<rect width="58.4579" height="13.8785" fill="white" transform="translate(0.0517578 0.56073)"/>
</clipPath>
</defs>
</svg>
