<svg width="59" height="17" viewBox="0 0 59 17" fill="none" xmlns="http://www.w3.org/2000/svg">
<g id="logo-default 1" clip-path="url(#clip0_68_11294)">
<g id="Group">
<g id="Group_2">
<path id="Vector" d="M4.38779 13.0205L4.27505 12.0577C3.86167 12.826 3.23951 13.2101 2.39604 13.2101C2.02442 13.2101 1.69037 13.1177 1.38973 12.9281C1.08909 12.7433 0.851083 12.4856 0.671533 12.1598C0.496159 11.834 0.404297 11.4547 0.404297 11.0219C0.404297 10.205 0.679884 9.57281 1.22688 9.12058C1.77388 8.66835 2.49626 8.44466 3.394 8.44466C3.67377 8.44466 3.97023 8.47384 4.2834 8.53219C4.24999 8.16748 4.11638 7.89031 3.88254 7.70552C3.64871 7.52074 3.3606 7.42349 3.02238 7.42349C2.72591 7.42349 2.42527 7.4867 2.12881 7.61799C1.82817 7.74929 1.54005 7.9049 1.26864 8.08482L0.537915 6.47525C0.951296 6.1689 1.39391 5.93063 1.8741 5.76529C2.35429 5.5951 2.83448 5.50757 3.31049 5.50757C3.88672 5.50757 4.40449 5.62427 4.86798 5.85282C5.32729 6.08137 5.69057 6.43149 5.95363 6.90317C6.21669 7.37486 6.35031 7.96811 6.35031 8.6878V13.0205H4.38779ZM2.49626 10.6426C2.49626 10.8614 2.56724 11.0414 2.70503 11.1824C2.847 11.3234 3.02655 11.3915 3.24786 11.3915C3.54432 11.3915 3.79486 11.2748 3.99529 11.0414C4.19571 10.8079 4.29593 10.5113 4.29593 10.1563V9.91321C4.07462 9.86458 3.84079 9.84026 3.59026 9.84026C3.27709 9.84026 3.01403 9.90348 2.80525 10.025C2.60065 10.1515 2.49626 10.3557 2.49626 10.6426Z" fill="#B9B9B9" fill-opacity="0.7"/>
<path id="Vector_2" d="M12.8847 11.1488V13.021H7.31445V11.4552L10.1789 7.56985H7.49818V5.69769H12.7886V7.26349L9.94924 11.1488H12.8847Z" fill="#B9B9B9" fill-opacity="0.7"/>
<path id="Vector_3" d="M16.8396 13.2052C16.1966 13.2052 15.6287 13.0447 15.1277 12.7238C14.6308 12.4029 14.2341 11.9555 13.946 11.3768C13.6579 10.803 13.5117 10.132 13.5117 9.36365C13.5117 8.59534 13.6537 7.92429 13.946 7.35048C14.2341 6.77668 14.6266 6.32445 15.1277 6.00351C15.6246 5.68256 16.1966 5.52209 16.8396 5.52209C17.4075 5.52209 17.9044 5.64366 18.3345 5.8868C18.7646 6.12994 19.1404 6.52382 19.4703 7.05872L18.0506 8.26954C17.9336 8.07017 17.7833 7.90483 17.5996 7.77354C17.4159 7.64225 17.2154 7.57903 17.0025 7.57903C16.6309 7.57903 16.3219 7.7395 16.0755 8.06044C15.8292 8.38138 15.7039 8.81417 15.7039 9.36365C15.7039 9.90828 15.8292 10.3459 16.0755 10.6669C16.3219 10.9878 16.6309 11.1483 17.0025 11.1483C17.2154 11.1483 17.4159 11.0851 17.5996 10.9538C17.7833 10.8225 17.9336 10.6571 18.0506 10.4578L19.4703 11.6686C19.1404 12.2035 18.7604 12.5974 18.3345 12.8405C17.9086 13.0836 17.4075 13.2052 16.8396 13.2052Z" fill="#B9B9B9" fill-opacity="0.7"/>
<path id="Vector_4" d="M26.1466 12.2716C25.8335 12.5294 25.4368 12.753 24.9524 12.933C24.4722 13.1129 23.9586 13.2053 23.4158 13.2053C22.6642 13.2053 22.0253 13.0448 21.4951 12.7239C20.9648 12.4029 20.5555 11.9556 20.2716 11.3769C19.9877 10.8031 19.8457 10.1418 19.8457 9.39289C19.8457 8.63431 19.9877 7.96325 20.2674 7.37972C20.5472 6.79619 20.9355 6.33423 21.4282 6.00357C21.921 5.6729 22.4972 5.50757 23.1569 5.50757C23.8 5.50757 24.3637 5.66804 24.8564 5.98898C25.3449 6.30992 25.7291 6.75729 26.0047 7.32623C26.2803 7.89517 26.418 8.56623 26.418 9.33454C26.418 9.44152 26.4139 9.5485 26.4013 9.66521C26.3888 9.78191 26.3763 9.89862 26.3596 10.025H21.9752C22.1715 10.8712 22.7101 11.2894 23.5954 11.2894C23.992 11.2894 24.3386 11.2164 24.6434 11.0754C24.9482 10.9295 25.203 10.7885 25.4076 10.6426L26.1466 12.2716ZM23.207 7.32137C22.5055 7.32137 22.088 7.75415 21.946 8.61486H24.3428C24.2843 8.14317 24.1465 7.8125 23.9294 7.61313C23.7123 7.41862 23.4701 7.32137 23.207 7.32137Z" fill="#B9B9B9" fill-opacity="0.7"/>
<path id="Vector_5" d="M29.625 8.9747V13.0156H27.4746V5.69721H29.4371L29.5499 6.66004C29.7545 6.31478 30.0217 6.03761 30.3516 5.82365C30.6814 5.61455 31.0447 5.50757 31.4372 5.50757C32.122 5.50757 32.669 5.76529 33.0824 6.28561C33.4958 6.80592 33.7004 7.54505 33.7004 8.5176V13.0205H31.55V8.8045C31.55 8.37172 31.4665 8.05564 31.3036 7.84654C31.1408 7.64231 30.9069 7.53533 30.6105 7.53533C30.314 7.53533 30.076 7.64717 29.8923 7.86599C29.7169 8.08968 29.625 8.45925 29.625 8.9747Z" fill="#B9B9B9" fill-opacity="0.7"/>
<path id="Vector_6" d="M39.5628 12.5447C39.3081 12.7441 39.0158 12.9045 38.6859 13.0261C38.3561 13.1477 38.0095 13.206 37.6462 13.206C36.9698 13.206 36.4353 12.9775 36.0345 12.5204C35.6336 12.0633 35.4373 11.4554 35.4373 10.6871V7.56526H34.4102V5.6931H35.5334L35.8048 3.65076H37.5836V5.6931H39.2288V7.56526H37.5836V10.3711C37.5836 10.6191 37.6462 10.8136 37.7757 10.9546C37.9051 11.0956 38.0721 11.1637 38.2893 11.1637C38.3978 11.1637 38.5064 11.1394 38.615 11.0907C38.7277 11.0421 38.8321 10.9838 38.9281 10.9157L39.5628 12.5447Z" fill="#B9B9B9" fill-opacity="0.7"/>
<path id="Vector_7" d="M42.6104 10.1864V13.0214H40.46V5.69813H42.4225L42.5603 6.91867C42.6939 6.52479 42.9068 6.20871 43.2075 5.96071C43.5081 5.71758 43.8547 5.59601 44.2514 5.59601C44.4727 5.59601 44.6439 5.63005 44.7566 5.69813V7.98361C44.6648 7.94471 44.5645 7.91553 44.456 7.89608C44.3432 7.87663 44.218 7.86691 44.0802 7.86691C43.6501 7.86691 43.2993 8.05169 43.0238 8.42126C42.7482 8.79083 42.6104 9.37922 42.6104 10.1864Z" fill="#B9B9B9" fill-opacity="0.7"/>
<path id="Vector_8" d="M49.2882 13.0209L49.1754 12.0581C48.7621 12.8264 48.1357 13.2106 47.2964 13.2106C46.9248 13.2106 46.5908 13.1182 46.2901 12.9285C45.9895 12.7438 45.7515 12.486 45.5719 12.1602C45.3965 11.8344 45.3047 11.4551 45.3047 11.0224C45.3047 10.2054 45.5803 9.57326 46.1273 9.12103C46.6743 8.66879 47.3966 8.44511 48.2944 8.44511C48.5742 8.44511 48.8706 8.47428 49.1838 8.53264C49.1504 8.16793 49.0168 7.89076 48.7829 7.70597C48.5491 7.52119 48.261 7.42393 47.9228 7.42393C47.6263 7.42393 47.3257 7.48715 47.025 7.61844C46.7244 7.74974 46.4363 7.90534 46.1649 8.08526L45.4341 6.4757C45.8475 6.16935 46.2901 5.93107 46.7703 5.76574C47.2463 5.60041 47.7265 5.51288 48.2025 5.51288C48.7788 5.51288 49.2965 5.62958 49.76 5.85813C50.2193 6.08668 50.5826 6.4368 50.8457 6.90848C51.1087 7.38017 51.2423 7.97342 51.2423 8.69311V13.0258H49.2882V13.0209ZM47.3966 10.6431C47.3966 10.8619 47.4676 11.0418 47.6054 11.1828C47.7474 11.3238 47.9269 11.3919 48.1482 11.3919C48.4447 11.3919 48.6952 11.2752 48.8957 11.0418C49.0961 10.8084 49.1963 10.5118 49.1963 10.1568V9.91365C48.975 9.86503 48.7412 9.84071 48.4906 9.84071C48.1775 9.84071 47.9144 9.90393 47.7056 10.0255C47.501 10.1519 47.3966 10.3562 47.3966 10.6431Z" fill="#B9B9B9" fill-opacity="0.7"/>
<path id="Vector_9" d="M52.5908 13.0212V2.5177H54.7412V13.0212H52.5908Z" fill="#B9B9B9" fill-opacity="0.7"/>
<path id="Vector_10" d="M57.3922 13.177C57.1291 13.177 56.8869 13.104 56.6698 12.9533C56.4527 12.8025 56.2773 12.6032 56.152 12.3503C56.0226 12.0974 55.96 11.8154 55.96 11.509C55.96 11.2027 56.0226 10.9207 56.152 10.6678C56.2815 10.4149 56.4527 10.2107 56.6698 10.0648C56.8869 9.91407 57.1291 9.84113 57.3922 9.84113C57.6552 9.84113 57.8974 9.91407 58.1146 10.0648C58.3317 10.2156 58.5071 10.4149 58.6323 10.6678C58.7618 10.9207 58.8244 11.2027 58.8244 11.509C58.8244 11.8154 58.7618 12.0974 58.6323 12.3503C58.5029 12.6032 58.3317 12.8074 58.1146 12.9533C57.8974 13.104 57.6552 13.177 57.3922 13.177Z" fill="#B9B9B9" fill-opacity="0.7"/>
</g>
</g>
</g>
<defs>
<clipPath id="clip0_68_11294">
<rect width="58.4579" height="15.5607" fill="white" transform="translate(0.387695 0.719604)"/>
</clipPath>
</defs>
</svg>
