<svg width="60" height="11" viewBox="0 0 60 11" fill="none" xmlns="http://www.w3.org/2000/svg">
<g id="benzinga-vector-logo" clip-path="url(#clip0_68_11269)">
<path id="Vector" d="M9.38056 10.027H14.9904V8.29138H11.0752V6.1675H14.3184V4.43185H11.0752V2.46783H15.0099V0.732178H9.38056V10.027ZM21.7397 6.57857L18.068 0.732178H15.5358L16.3247 1.90831V10.0499H18.0193V3.95226L21.8176 10.027H23.4343V0.732178H21.7397V6.57857ZM6.81913 5.24258C7.55931 5.0713 8.18263 4.26057 8.18263 3.11869C8.17289 1.88547 7.41323 0.732178 5.88416 0.732178H0.96582L1.72548 1.87405V10.027H6.04973C7.57879 10.027 8.36767 8.90799 8.36767 7.50349C8.3482 6.36162 7.67619 5.37961 6.81913 5.24258ZM3.42986 2.47924H5.55302C6.12764 2.47924 6.48799 2.86748 6.48799 3.46126C6.48799 4.04361 6.12764 4.44327 5.55302 4.44327H3.42986V2.47924ZM5.63094 8.3028H3.4396V6.1675H5.63094C6.27373 6.1675 6.63408 6.64708 6.63408 7.22944C6.63408 7.90315 6.25425 8.29138 5.63094 8.3028ZM48.2403 6.57857H49.1266V7.67477C48.6688 8.1201 48.0942 8.35989 47.5001 8.37131C46.0879 8.37131 45.0848 7.11525 45.0848 5.40244C45.0848 3.70105 46.0879 2.43357 47.5001 2.43357C48.2403 2.44499 48.922 2.8789 49.3116 3.6097L50.6459 2.74188C50.0713 1.67993 49.0681 0.732178 47.4709 0.732178C45.2309 0.732178 43.3609 2.54776 43.3609 5.3796C43.3609 8.21145 45.2016 10.027 47.4709 10.027C48.7078 10.0499 49.896 9.43326 50.7141 8.34847V4.91143H47.1008L48.2403 6.57857ZM40.6047 6.57857L36.9233 0.732178H34.391L35.1799 1.90831V10.0499H36.8746V3.95226L40.6729 10.027H42.2993V0.732178H40.6047V6.57857ZM56.3336 0.732178H53.0612L53.8501 1.90831L53.704 2.35364L51.1718 10.0499H53.0807L53.5774 8.4855H56.9959L57.4926 10.0499H59.4015L56.3336 0.732178ZM54.0254 6.72702L55.2623 2.71904L56.4992 6.72702H54.0254ZM31.7225 0.732178H33.4171V10.0499H31.7225V0.732178ZM30.359 2.3308V0.732178H24.3888V2.46783H28.1384L24.3888 8.42841V10.027H30.4271V8.29138H26.5801L30.359 2.3308Z" fill="#B9B9B9" fill-opacity="0.7"/>
</g>
<defs>
<clipPath id="clip0_68_11269">
<rect width="58.4579" height="10.514" fill="white" transform="translate(0.939453 0.243042)"/>
</clipPath>
</defs>
</svg>
