<svg width="176" height="42" viewBox="0 0 176 42" fill="none" xmlns="http://www.w3.org/2000/svg">
<g id="Frame" clip-path="url(#clip0_791_32463)">
<g id="Group">
<path id="Vector" d="M1.53363 40.8315C1.81598 41.1428 2.19244 41.0317 2.51244 41.0317C10.9641 41.0317 19.4345 40.8315 27.8861 41.1206C31.1426 41.2318 34.4178 41.343 37.6742 41.4097C40.7424 41.4764 43.7918 41.4987 46.8599 41.3875C48.1211 41.343 49.3446 41.6543 50.6058 41.6543C51.754 41.6321 51.7916 41.5654 51.7728 40.2311C51.754 35.3832 51.7728 30.5353 51.7728 25.6874C51.7728 18.1042 51.7728 10.5211 51.7728 2.9379C51.7728 2.49314 51.8293 2.04838 51.8105 1.60362C51.7916 1.00319 52.0363 0.825289 52.4881 0.869765C52.6387 0.892003 52.8081 0.869765 52.9587 0.869765C93.278 0.869765 133.616 0.869765 173.936 0.869765C175.14 0.869765 175.14 0.869765 175.14 2.293C175.14 14.8353 175.14 27.3775 175.14 39.8975C175.14 41.8989 175.14 41.8989 173.503 41.8989C133.183 41.8989 92.8451 41.8989 52.5257 41.9212C35.6413 41.9212 18.7569 41.9212 1.85363 41.9434C1.19481 41.9434 0.724232 41.8767 1.04423 40.8982C1.19481 40.876 1.36422 40.8538 1.53363 40.8315ZM120.741 28.5784C120.647 28.6006 120.572 28.6006 120.478 28.6228C119.969 26.8216 119.461 25.0203 118.953 23.219C117.296 17.3037 115.64 11.3884 113.984 5.47304C113.833 4.91709 113.588 4.65023 113.042 4.67247C111.8 4.71694 110.539 4.69471 109.278 4.69471C108.205 4.69471 108.224 4.69471 108.581 5.89556C109.918 10.2987 111.254 14.7241 112.591 19.1272C114.398 25.0647 116.205 31.0023 117.974 36.9621C118.2 37.7404 118.539 37.985 119.198 37.9183C120.007 37.8516 120.835 37.8294 121.645 37.9183C122.416 37.985 122.793 37.6959 123.056 36.7842C124.675 31.2024 126.369 25.6429 128.026 20.0612C128.572 18.2599 129.099 16.4586 129.644 14.6796C129.946 14.7685 130.002 14.9687 130.059 15.1688C130.492 16.6365 130.924 18.1042 131.357 19.5497C133.089 25.3316 134.821 31.0913 136.534 36.8731C136.76 37.607 137.061 37.9406 137.757 37.8961C138.661 37.8294 139.583 37.8294 140.487 37.8961C141.089 37.9183 141.353 37.6737 141.56 36.9843C142.764 32.9148 144.007 28.8452 145.249 24.7979C147.169 18.4378 149.089 12.0777 151.028 5.73989C151.272 4.96156 151.178 4.65023 150.425 4.67247C149.239 4.71694 148.035 4.73918 146.849 4.67247C146.115 4.62799 145.87 5.00604 145.682 5.73989C143.724 12.7894 141.748 19.8388 139.753 26.866C139.564 27.4887 139.545 28.2448 139.018 28.8007C136.873 21.351 134.764 13.9902 132.619 6.62942C131.903 4.20547 132.449 4.69471 130.266 4.65023C129.663 4.62799 129.08 4.67247 128.477 4.65023C127.913 4.60575 127.649 4.85037 127.461 5.49528C126.237 9.87617 124.957 14.2348 123.696 18.5935C122.68 21.8847 121.701 25.2204 120.741 28.5784ZM60.375 14.6573C60.6197 14.7018 60.7138 14.9687 60.8268 15.1466C65.2314 21.6401 69.636 28.1114 74.0219 34.6049C76.0736 37.6515 76.0359 37.6515 79.33 37.6737C80.2335 37.6737 80.4029 37.3179 80.4029 36.3394C80.3653 31.0913 80.3841 25.8431 80.3841 20.5949C80.3841 15.6358 80.3653 10.6767 80.4029 5.73989C80.4029 4.85037 80.1959 4.58352 79.4618 4.62799C78.4265 4.69471 77.3912 4.69471 76.3559 4.62799C75.5654 4.58352 75.3583 4.89485 75.3583 5.80661C75.396 12.2334 75.3771 18.6602 75.3771 25.1092C75.3771 25.6652 75.6218 26.5325 75.1889 26.7326C74.756 26.9105 74.4736 26.0655 74.1724 25.6429C69.7113 19.0605 65.2502 12.5003 60.8268 5.89556C60.2056 4.96156 59.5468 4.49456 58.5303 4.62799C57.7962 4.73918 57.0245 4.71694 56.2716 4.62799C55.368 4.5168 55.1798 4.93933 55.1986 5.9178C55.2363 15.0799 55.2175 24.2419 55.2175 33.4262C55.2175 34.5381 55.2363 35.6501 55.2175 36.762C55.1986 37.4291 55.3869 37.6959 55.9704 37.6737C56.968 37.6292 57.9656 37.6737 58.9821 37.6515C60.2244 37.6515 60.2433 37.6515 60.2433 36.1171C60.2433 29.3122 60.2433 22.5074 60.2621 15.7025C60.2244 15.3912 60.0927 14.9909 60.375 14.6573ZM84.5064 21.1953C84.5064 26.3323 84.5252 31.4693 84.4876 36.6063C84.4876 37.4291 84.657 37.7627 85.3723 37.6737C85.9934 37.607 86.6334 37.6515 87.2546 37.6515C93.2027 37.6515 99.1509 37.6292 105.118 37.6737C105.89 37.6737 106.191 37.4513 106.134 36.4951C106.078 35.5833 106.078 34.6493 106.134 33.7153C106.21 32.7369 105.965 32.3811 105.061 32.3811C100.337 32.4255 95.5933 32.4033 90.8686 32.4033C89.5698 32.4033 89.5698 32.4033 89.5698 30.8244C89.5698 28.8675 89.6263 26.9105 89.551 24.9536C89.5134 23.8417 89.8334 23.597 90.718 23.6193C94.8592 23.6638 98.9814 23.6193 103.123 23.6637C103.857 23.6637 104.139 23.4414 104.083 22.5518C104.026 21.5511 104.007 20.5504 104.083 19.5497C104.139 18.5935 103.819 18.3933 103.066 18.3933C98.9062 18.4378 94.7274 18.3933 90.5675 18.4378C89.7957 18.4378 89.5322 18.171 89.551 17.237C89.6075 15.2355 89.6263 13.2341 89.551 11.2549C89.5134 10.1208 89.8145 9.83169 90.7557 9.85393C95.4803 9.92064 100.224 9.87617 104.948 9.89841C105.664 9.89841 105.984 9.7205 105.927 8.80874C105.871 7.80803 105.852 6.80732 105.927 5.80661C106.003 4.85037 105.664 4.65023 104.911 4.65023C98.4168 4.67247 91.9416 4.69471 85.4475 4.65023C84.6946 4.65023 84.5064 4.89485 84.5064 5.76213C84.5252 10.8991 84.5064 16.0583 84.5064 21.1953ZM162.717 38.1629C163.357 38.2297 164.354 38.0073 165.333 37.8516C169.173 37.1845 171.903 34.2268 172.637 29.9571C173.258 26.3768 172.072 23.1523 169.474 21.1731C167.969 20.039 166.312 19.4163 164.618 18.8826C162.623 18.2377 160.571 17.8374 158.708 16.7922C157.616 16.1918 156.731 15.369 156.693 13.7456C156.637 11.4106 157.936 9.78722 160.1 9.49812C163.225 9.0756 165.973 10.2097 168.496 12.2556C168.985 12.6559 169.267 12.6782 169.625 12.0555C170.171 11.077 170.754 10.0985 171.413 9.20903C171.884 8.54189 171.771 8.20832 171.206 7.74132C167.498 4.67247 163.376 3.67176 158.971 4.49456C156.053 5.02828 153.588 6.65165 152.308 9.98736C150.689 14.2126 151.479 19.5942 156.072 21.8625C157.691 22.663 159.366 23.219 161.079 23.7305C162.717 24.2197 164.373 24.62 165.898 25.5317C167.009 26.1989 167.724 27.2218 167.686 28.7785C167.649 30.3352 167.046 31.4471 165.879 32.1587C164.467 33.0037 162.943 33.1594 161.399 32.9815C158.708 32.6479 156.317 31.4248 154.246 29.4234C153.701 28.8897 153.343 28.8452 152.872 29.5568C152.345 30.3796 151.762 31.1802 151.141 31.8918C150.501 32.6479 150.538 33.1149 151.272 33.7598C154.548 36.6285 158.237 38.074 162.717 38.1629Z" fill="#B9B9B9" fill-opacity="0.7"/>
<path id="Vector_2" d="M1.53381 40.8309C1.3644 40.8531 1.19499 40.8754 1.04441 40.8976C0.799707 40.5863 0.912646 40.186 0.912646 39.8302C0.893823 27.3102 0.912646 14.7679 0.875 2.22566C0.875 1.04704 1.19499 0.869141 2.09851 0.869141C14.9924 0.913617 27.9051 0.913617 40.8179 0.913617V0.958093L40.8367 0.913617C41.1379 1.24719 41.0438 1.66971 41.0438 2.06999C41.0438 9.25288 41.0438 16.4135 41.0626 23.5964C41.0626 24.4415 41.0061 25.0641 40.1779 25.331C39.5191 25.5311 39.1991 26.2872 38.785 26.9099C38.4085 26.3762 38.4273 25.8425 38.4462 25.2865C38.465 17.859 38.465 10.4315 38.5026 2.98175C38.5026 2.00328 38.2956 1.71419 37.4485 1.73642C35.1897 1.80314 32.931 1.75866 30.691 1.75866C30.2581 1.75866 29.9192 1.80314 29.6745 2.31461C28.9028 3.87128 28.0934 5.42794 27.2652 6.94012C26.9452 7.51831 27.0016 7.67398 27.604 7.67398C29.1098 7.6295 30.6157 7.69622 32.1216 7.65174C32.7239 7.6295 32.9498 7.85188 32.9498 8.58574C32.9121 15.0125 32.9121 21.4616 32.9121 27.8884C32.9121 28.4443 32.9121 28.8668 32.1968 28.7334C30.898 28.4665 29.7875 29.1782 29.2981 30.4013C28.7334 31.8022 28.9404 33.0698 29.9004 34.2484C29.9757 34.3596 30.0698 34.4708 30.2392 34.6932C29.411 34.9378 28.7145 35.2491 27.924 35.2491C23.1617 35.2491 18.3994 35.2491 13.6371 35.2491C13.3548 35.2491 12.9407 35.427 12.8089 34.9823C12.7148 34.6265 13.0724 34.4263 13.2419 34.204C16.0653 30.3345 19.0394 26.643 21.6558 22.5735C23.0676 20.3941 24.3099 18.0814 24.6299 15.2794C25.2511 9.6754 22.9735 4.89423 18.55 2.75937C15.143 1.09152 11.6984 1.09152 8.36664 2.75937C5.29846 4.2938 3.73613 7.36265 2.96438 11.0319C2.79497 11.8103 2.70085 12.6331 2.56909 13.4114C2.45615 14.0118 2.66321 14.212 3.17143 14.212C4.54553 14.1897 5.91962 14.1897 7.31254 14.212C7.82077 14.212 8.08429 13.9896 8.14076 13.4114C8.15959 13.1445 8.19723 12.8999 8.23488 12.6331C8.70546 9.43079 10.5313 7.51831 13.223 7.31817C16.1406 7.09579 18.4371 8.83036 19.1712 11.8325C19.6229 13.6782 19.1712 15.3461 18.3806 16.9028C16.9877 19.638 15.2371 22.062 13.4677 24.4637C9.64662 29.6896 5.78786 34.8711 1.94792 40.097C1.77851 40.3417 1.66558 40.6085 1.53381 40.8309Z" fill="#B9B9B9" fill-opacity="0.7"/>
<path id="Vector_3" d="M40.7051 38.9644C40.931 37.7858 41.4768 36.7406 41.8533 35.651C42.3992 34.0943 43.0015 32.5376 43.585 31.0032C44.225 29.3576 45.5615 28.6905 46.8038 29.3576C48.0838 30.047 48.4979 31.7371 47.8014 33.4049C47.745 33.5606 47.6697 33.7385 47.5567 33.8497C45.3544 35.5842 43.1521 37.2966 40.9498 39.0089C40.9121 39.0534 40.818 39.0089 40.7051 38.9644Z" fill="#B9B9B9" fill-opacity="0.7"/>
<path id="Vector_4" d="M40.3105 37.14C40.1411 36.1393 39.9717 35.1386 39.8399 34.1156C39.6893 33.026 39.6329 31.9141 39.4258 30.8466C39.2376 29.8459 39.2564 29.0231 40.0658 28.4227C38.9929 27.7778 38.9929 26.8438 40.0093 25.9988C40.9128 25.2427 42.0799 25.2649 42.9081 26.0432C43.6422 26.7326 43.9622 27.9779 43.5293 29.1566C42.5693 31.8251 41.5528 34.4714 40.5552 37.14C40.4611 37.14 40.3858 37.14 40.3105 37.14Z" fill="#B9B9B9" fill-opacity="0.7"/>
<path id="Vector_5" d="M36.9967 37.0519C35.9802 34.3833 34.9073 31.737 33.9849 29.0239C33.6273 28.001 33.8344 26.8891 34.6814 26.133C35.4908 25.4214 36.3567 25.3102 37.2225 25.8661C38.0884 26.3998 38.446 27.3116 38.3143 28.4457C37.9943 31.1365 37.6555 33.8051 37.3355 36.4959C37.3167 36.696 37.279 36.9407 36.9967 37.0519Z" fill="#B9B9B9" fill-opacity="0.7"/>
<path id="Vector_6" d="M34.6246 37.2986C33.0623 36.2534 31.6317 35.0081 30.2012 33.785C29.4482 33.1401 29.3541 32.1171 29.6176 31.0719C29.9 30.0045 30.5776 29.4708 31.4811 29.3374C32.4223 29.2039 33.3258 29.7821 33.7023 30.7828C34.3235 32.4285 34.907 34.0963 35.5093 35.7419C35.4905 35.9421 35.3964 36.1644 35.6599 36.2312C35.7352 36.4535 35.8105 36.6537 35.9046 36.8761C35.9423 37.899 35.4528 37.7878 34.907 37.521C34.8317 37.4543 34.7564 37.3875 34.6623 37.3208C34.6434 37.3208 34.6246 37.2986 34.6246 37.2986Z" fill="#B9B9B9" fill-opacity="0.7"/>
<path id="Vector_7" d="M40.7422 40.2992C42.681 38.7648 44.6009 37.2081 46.5586 35.7182C47.2362 35.2067 48.4032 35.4291 49.0621 36.1407C49.7585 36.8968 49.9467 37.853 49.6644 38.876C49.382 39.8989 48.7797 40.5883 47.8009 40.5883C45.4668 40.6106 43.1516 40.5883 40.8175 40.5883C40.7798 40.4771 40.761 40.3882 40.7422 40.2992Z" fill="#B9B9B9" fill-opacity="0.7"/>
<path id="Vector_8" d="M36.3764 40.2973C34.4376 38.7628 32.5176 37.2062 30.56 35.7162C29.8824 35.2048 28.7153 35.4271 28.0565 36.1388C27.3601 36.8949 27.1718 37.8511 27.4542 38.874C27.7365 39.897 28.3389 40.5864 29.3177 40.5864C31.6518 40.6086 33.967 40.5864 36.3011 40.5864C36.3199 40.4752 36.3387 40.3862 36.3764 40.2973Z" fill="#B9B9B9" fill-opacity="0.7"/>
<path id="Vector_9" d="M34.8887 37.518C35.4534 37.7848 35.9239 37.896 35.8863 36.873C36.4698 37.4068 36.4322 38.274 36.7522 38.9857C36.0557 38.6076 35.3404 38.2963 34.8887 37.518Z" fill="#B9B9B9" fill-opacity="0.7"/>
<path id="Vector_10" d="M35.6593 36.2273C35.3771 36.1606 35.49 35.9383 35.5088 35.7383C35.7345 35.8272 35.791 35.9828 35.6593 36.2273Z" fill="#B9B9B9" fill-opacity="0.7"/>
<path id="Vector_11" d="M40.8372 0.913455L40.8184 0.957768V0.913455L40.8372 0.869141V0.913455Z" fill="#B9B9B9" fill-opacity="0.7"/>
<path id="Vector_12" d="M34.6258 37.2949L34.6441 37.3171L34.6074 37.3394L34.6258 37.2949Z" fill="#B9B9B9" fill-opacity="0.7"/>
</g>
</g>
<defs>
<clipPath id="clip0_791_32463">
<rect width="174.247" height="41.0959" fill="white" transform="translate(0.876953 0.876953)"/>
</clipPath>
</defs>
</svg>
