<svg width="176" height="51" viewBox="0 0 176 51" fill="none" xmlns="http://www.w3.org/2000/svg">
<g id="Frame" clip-path="url(#clip0_791_32499)">
<g id="Group">
<path id="Vector" d="M175.124 50.0866C117.055 50.0866 58.9869 50.0866 0.876953 50.0866C0.876953 33.6717 0.876953 17.2568 0.876953 0.771484C58.9453 0.771484 117.014 0.771484 175.124 0.771484C175.124 17.1864 175.124 33.6365 175.124 50.0866ZM123.225 19.0533C123.391 17.5738 123.433 16.2353 123.725 14.932C124.017 13.6286 124.934 12.6776 126.726 12.748C128.519 12.8185 129.269 13.8752 129.478 15.1785C129.894 17.8556 129.394 20.3214 126.976 22.3292C124.267 24.5484 121.516 26.6971 119.014 29.022C117.097 30.8537 115.263 32.7911 113.887 34.9398C112.261 37.5112 111.719 40.4349 111.886 43.3586C121.891 43.3586 131.645 43.3586 141.608 43.3586C141.608 41.7382 141.608 40.2588 141.608 38.7793C143.109 40.8928 144.985 42.5484 147.736 43.1824C153.28 44.4858 158.908 44.5914 164.369 43.112C169.496 41.7382 170.997 38.0748 171.288 33.9535C171.664 28.4936 170.08 26.1687 165.077 24.1609C166.495 23.0337 168.412 22.0474 169.413 20.568C172.581 15.9887 169.746 9.40162 163.827 7.71082C160.825 6.86542 157.449 6.65407 154.239 6.65407C147.194 6.72452 143.859 8.87325 141.441 14.5445C140.691 10.1413 137.648 7.67559 132.854 7.04154C129.394 6.61884 125.768 6.47794 122.308 6.86542C115.096 7.81649 111.219 12.7832 112.511 19.0533C116.013 19.0533 119.515 19.0533 123.225 19.0533ZM55.8188 7.71082C43.8133 7.74604 34.434 15.4956 34.5174 25.429C34.5591 35.1864 44.1051 42.9711 55.9439 42.9359C67.5742 42.9006 77.1203 34.975 77.0786 25.3586C77.0786 15.5308 67.6159 7.67559 55.8188 7.71082ZM111.011 43.3233C106.759 37.3703 102.84 31.7695 98.7552 26.2392C97.7964 24.9359 97.8381 23.9848 98.7552 22.7519C100.339 20.6736 101.798 18.5249 103.257 16.4114C105.342 13.4525 107.384 10.4936 109.719 7.18244C105.758 7.18244 102.215 7.28812 98.7135 7.14722C96.7959 7.07677 95.6287 7.56992 94.795 9.01415C93.6695 10.9867 92.2522 12.8537 90.7515 15.0376C89.0841 12.5367 87.7085 10.3879 86.1661 8.27442C85.8326 7.81649 85.0822 7.21767 84.4986 7.21767C80.205 7.11199 75.9531 7.18244 71.3676 7.18244C71.9095 7.99262 72.2847 8.59145 72.7016 9.15505C76.1198 13.9104 79.4963 18.701 82.9979 23.4564C83.6232 24.337 83.6649 24.9359 83.0396 25.8165C80.6636 29.0572 78.3708 32.3331 76.0364 35.6091C74.2439 38.11 72.4931 40.611 70.5339 43.3586C73.8271 43.3586 76.7868 43.112 79.6214 43.429C83.2481 43.8165 85.4157 42.7597 86.7497 39.9065C87.6668 38.0044 89.1258 36.2783 90.5431 34.2001C92.5857 37.1237 94.3365 39.7304 96.1707 42.2666C96.5041 42.7245 97.0877 43.2881 97.588 43.3233C101.965 43.3586 106.259 43.3233 111.011 43.3233ZM19.6772 43.2881C19.6772 40.0122 19.7606 36.9124 19.6356 33.8126C19.5522 32.157 20.0941 31.523 22.1784 31.6286C25.4299 31.7695 28.6397 31.6639 32.0579 31.6639C32.0579 28.9163 31.9329 26.4505 32.0996 23.9848C32.2247 22.2588 31.516 21.7304 29.5151 21.8008C26.347 21.9417 23.1788 21.8361 19.9274 21.8361C19.8857 21.0963 19.8023 20.6384 19.8023 20.1805C19.8857 16.4819 19.052 16.9398 23.6374 16.9046C27.3057 16.8693 30.9741 16.9046 34.7675 16.9046C34.5591 14.0513 34.309 11.5151 34.1839 8.9437C34.1422 7.53469 33.5169 7.07677 31.8078 7.07677C24.3044 7.14722 16.8009 7.07677 9.29748 7.04154C8.63051 7.04154 7.96354 7.11199 7.17151 7.14722C7.17151 19.2294 7.17151 31.1707 7.17151 43.2529C11.4235 43.2881 15.4253 43.2881 19.6772 43.2881Z" fill="#B9B9B9" fill-opacity="0.7"/>
<path id="Vector_2" d="M140.901 36.0669C136.023 36.0669 131.271 36.0669 126.061 36.0669C126.728 35.3272 127.144 34.7284 127.686 34.2704C130.021 32.3331 132.438 30.4661 134.773 28.564C139.275 24.9006 140.067 23.7029 141.568 18.8066C143.36 22.0826 143.86 22.5757 147.487 23.9495C140.275 26.0982 140.442 30.9945 140.901 36.0669Z" fill="#B9B9B9" fill-opacity="0.7"/>
<path id="Vector_3" d="M159.533 32.6855C159.408 33.8127 159.367 34.8694 159.116 35.8909C158.783 37.1943 157.824 38.1101 156.073 38.1101C154.323 38.1101 153.155 37.3352 153.03 35.9614C152.822 33.7774 152.822 31.523 153.072 29.3391C153.197 28.0358 154.489 27.3665 156.073 27.4017C157.657 27.4369 158.7 28.1767 159.033 29.4448C159.325 30.5367 159.408 31.6639 159.533 32.6855Z" fill="#B9B9B9" fill-opacity="0.7"/>
<path id="Vector_4" d="M159.116 17.2239C158.949 18.0693 159.074 19.1613 158.533 19.8658C157.991 20.6055 156.823 21.3453 155.906 21.3805C155.156 21.4157 153.739 20.4999 153.614 19.8658C153.238 18.175 153.28 16.4138 153.447 14.6877C153.572 13.4901 154.572 12.6799 156.156 12.7504C157.657 12.7856 158.366 13.5958 158.699 14.723C158.908 15.4979 158.949 16.3433 159.116 17.2239Z" fill="#B9B9B9" fill-opacity="0.7"/>
<path id="Vector_5" d="M59.6959 25.3238C59.6959 27.6134 59.7375 29.9031 59.6959 32.1927C59.6542 34.2005 58.0284 35.6095 55.8608 35.5743C53.9015 35.5743 52.2341 34.2358 52.1924 32.3688C52.109 27.6134 52.109 22.8581 52.1924 18.1027C52.2341 16.1653 54.0266 14.7915 56.0275 14.862C58.0701 14.9324 59.6542 16.3414 59.6959 18.2788C59.7375 20.6037 59.6959 22.9637 59.6959 25.3238Z" fill="#B9B9B9" fill-opacity="0.7"/>
</g>
</g>
<defs>
<clipPath id="clip0_791_32499">
<rect width="174.247" height="49.3151" fill="white" transform="translate(0.876953 0.767578)"/>
</clipPath>
</defs>
</svg>
