<svg width="59" height="17" viewBox="0 0 59 17" fill="none" xmlns="http://www.w3.org/2000/svg">
<g id="Frame" clip-path="url(#clip0_68_11308)">
<g id="Group">
<path id="Vector" d="M58.9579 16.7024C39.4766 16.7024 19.9953 16.7024 0.5 16.7024C0.5 11.2429 0.5 5.78345 0.5 0.300537C19.9813 0.300537 39.4626 0.300537 58.9579 0.300537C58.9579 5.76002 58.9579 11.2312 58.9579 16.7024ZM41.5464 6.38094C41.6024 5.88889 41.6164 5.44369 41.7143 5.01022C41.8121 4.57674 42.1198 4.26042 42.7212 4.28385C43.3225 4.30728 43.5743 4.65875 43.6442 5.09223C43.7841 5.98261 43.6162 6.80271 42.8051 7.4705C41.8961 8.20858 40.973 8.92323 40.1339 9.69646C39.4906 10.3057 38.8753 10.95 38.4138 11.6647C37.8683 12.5199 37.6865 13.4923 37.7425 14.4647C41.0989 14.4647 44.3714 14.4647 47.7139 14.4647C47.7139 13.9258 47.7139 13.4337 47.7139 12.9417C48.2173 13.6446 48.8467 14.1953 49.7697 14.4061C51.6297 14.8396 53.5177 14.8748 55.3498 14.3827C57.07 13.9258 57.5734 12.7074 57.6713 11.3367C57.7972 9.52073 57.2657 8.7475 55.5875 8.07971C56.063 7.70481 56.7063 7.37677 57.042 6.88472C58.1048 5.36169 57.1539 3.17086 55.168 2.60851C54.161 2.32734 53.0282 2.25705 51.9514 2.25705C49.5879 2.28048 48.4691 2.99513 47.6579 4.88134C47.4062 3.41689 46.3853 2.5968 44.777 2.38592C43.6162 2.24533 42.3995 2.19847 41.2388 2.32734C38.8193 2.64366 37.5187 4.29556 37.9522 6.38094C39.127 6.38094 40.3018 6.38094 41.5464 6.38094ZM18.9324 2.60851C14.9047 2.62023 11.758 5.19767 11.786 8.50147C11.8 11.7467 15.0026 14.3359 18.9744 14.3241C22.8762 14.3124 26.0788 11.6764 26.0649 8.47804C26.0649 5.20938 22.8902 2.5968 18.9324 2.60851ZM37.4488 14.453C36.0223 12.4731 34.7077 10.6103 33.3371 8.77093C33.0155 8.33745 33.0295 8.02113 33.3371 7.61108C33.8686 6.91986 34.3581 6.20521 34.8475 5.50227C35.5468 4.51816 36.2321 3.53405 37.0152 2.43278C35.6866 2.43278 34.4979 2.46793 33.3232 2.42106C32.6798 2.39763 32.2883 2.56165 32.0086 3.04199C31.631 3.69807 31.1555 4.31899 30.652 5.04536C30.0926 4.21355 29.6311 3.4989 29.1136 2.79596C29.0017 2.64366 28.75 2.4445 28.5542 2.4445C27.1137 2.40935 25.6873 2.43278 24.1489 2.43278C24.3307 2.70224 24.4566 2.9014 24.5964 3.08885C25.7432 4.67046 26.876 6.26379 28.0508 7.8454C28.2605 8.13829 28.2745 8.33745 28.0647 8.63034C27.2676 9.70818 26.4984 10.7977 25.7152 11.8873C25.1139 12.7191 24.5265 13.5509 23.8692 14.4647C24.974 14.4647 25.967 14.3827 26.918 14.4882C28.1347 14.617 28.8619 14.2656 29.3094 13.3166C29.6171 12.6839 30.1066 12.1099 30.5821 11.4187C31.2673 12.3911 31.8547 13.258 32.4701 14.1015C32.5819 14.2538 32.7777 14.4413 32.9456 14.453C34.414 14.4647 35.8545 14.453 37.4488 14.453ZM6.8073 14.4413C6.8073 13.3517 6.83527 12.3208 6.79332 11.2898C6.76535 10.7392 6.94716 10.5283 7.64641 10.5634C8.73726 10.6103 9.81411 10.5751 10.9609 10.5751C10.9609 9.66132 10.9189 8.84122 10.9749 8.02113C11.0168 7.44707 10.7791 7.27133 10.1078 7.29476C9.04493 7.34163 7.98206 7.30648 6.89122 7.30648C6.87723 7.06045 6.84926 6.90815 6.84926 6.75584C6.87723 5.5257 6.59753 5.67801 8.13589 5.66629C9.36659 5.65458 10.5973 5.66629 11.8699 5.66629C11.8 4.71733 11.7161 3.8738 11.6741 3.01856C11.6602 2.54994 11.4504 2.39763 10.877 2.39763C8.35966 2.42106 5.84233 2.39763 3.325 2.38592C3.10124 2.38592 2.87748 2.40935 2.61176 2.42106C2.61176 6.43952 2.61176 10.4111 2.61176 14.4296C4.03824 14.4413 5.38082 14.4413 6.8073 14.4413Z" fill="#B9B9B9" fill-opacity="0.7"/>
<path id="Vector_2" d="M47.4768 12.0393C45.8405 12.0393 44.2462 12.0393 42.498 12.0393C42.7218 11.7933 42.8617 11.5941 43.0435 11.4418C43.8266 10.7974 44.6378 10.1765 45.4209 9.54387C46.9313 8.32545 47.1971 7.92712 47.7005 6.29865C48.3019 7.3882 48.4697 7.55222 49.6864 8.00913C47.267 8.72378 47.3229 10.3523 47.4768 12.0393Z" fill="#B9B9B9" fill-opacity="0.7"/>
<path id="Vector_3" d="M53.7276 10.9146C53.6857 11.2895 53.6717 11.6409 53.5878 11.9807C53.4759 12.4142 53.1542 12.7188 52.5668 12.7188C51.9795 12.7188 51.5879 12.461 51.5459 12.0041C51.476 11.2778 51.476 10.528 51.5599 9.8016C51.6019 9.36812 52.0354 9.14552 52.5668 9.15724C53.0983 9.16895 53.4479 9.41498 53.5598 9.83675C53.6577 10.1999 53.6857 10.5748 53.7276 10.9146Z" fill="#B9B9B9" fill-opacity="0.7"/>
<path id="Vector_4" d="M53.5876 5.77226C53.5317 6.05343 53.5737 6.41662 53.3919 6.65093C53.21 6.89696 52.8185 7.14299 52.5108 7.1547C52.2591 7.16642 51.7836 6.86181 51.7416 6.65093C51.6157 6.08858 51.6297 5.5028 51.6857 4.92873C51.7276 4.5304 52.0633 4.26094 52.5947 4.28438C53.0982 4.29609 53.3359 4.56555 53.4478 4.94045C53.5177 5.19819 53.5317 5.47937 53.5876 5.77226Z" fill="#B9B9B9" fill-opacity="0.7"/>
<path id="Vector_5" d="M20.2336 8.46618C20.2336 9.2277 20.2476 9.98921 20.2336 10.7507C20.2196 11.4185 19.6742 11.8871 18.947 11.8754C18.2897 11.8754 17.7303 11.4302 17.7163 10.8093C17.6883 9.2277 17.6883 7.64609 17.7163 6.06448C17.7303 5.42012 18.3316 4.96321 19.0029 4.98664C19.6882 5.01007 20.2196 5.4787 20.2336 6.12306C20.2476 6.89629 20.2336 7.68123 20.2336 8.46618Z" fill="#B9B9B9" fill-opacity="0.7"/>
</g>
</g>
<defs>
<clipPath id="clip0_68_11308">
<rect width="58.4579" height="16.4019" fill="white" transform="translate(0.5 0.299011)"/>
</clipPath>
</defs>
</svg>
