<svg width="33" height="21" viewBox="0 0 33 21" fill="none" xmlns="http://www.w3.org/2000/svg">
<g id="Group 2609125">
<path id="Subtract" fill-rule="evenodd" clip-rule="evenodd" d="M5.6171 4.97351H0.998047V16.5946H5.6171C8.82618 16.5946 11.4277 13.9932 11.4277 10.7841C11.4277 7.57499 8.82619 4.97351 5.6171 4.97351ZM4.536 7.06893H3.86115V14.3083H4.536C6.5351 14.3083 8.1557 12.6877 8.1557 10.6886C8.1557 8.68952 6.5351 7.06893 4.536 7.06893Z" fill="#B9B9B9" fill-opacity="0.7"/>
<path id="Subtract_2" fill-rule="evenodd" clip-rule="evenodd" d="M17.5419 4.97412H12.4492V16.5953H15.7213V12.785H17.5419C19.6988 12.785 21.4473 11.0365 21.4473 8.87958C21.4473 6.72266 19.6988 4.97412 17.5419 4.97412ZM16.556 7.06956H15.3123V10.3082H16.556C17.4504 10.3082 18.1754 9.58323 18.1754 8.6889C18.1754 7.79456 17.4504 7.06956 16.556 7.06956Z" fill="#B9B9B9" fill-opacity="0.7"/>
<path id="Rectangle 3567" d="M22.4717 4.21247H24.9257L30.4473 15.0716V0.0212402H32.6968V19.7391H30.4473L24.9257 9.35625V17.3577H22.4717V4.21247Z" fill="#B9B9B9" fill-opacity="0.7"/>
<path id="Subtract_3" fill-rule="evenodd" clip-rule="evenodd" d="M24.9131 18.3115H0.986328V20.9786H24.9131V18.3115ZM4.6921 19.6341V19.8057H4.9449V19.9349C4.91159 19.959 4.87157 19.9796 4.82484 19.9967C4.7786 20.0134 4.73237 20.0218 4.68613 20.0218C4.59267 20.0218 4.5171 19.9917 4.45943 19.9314C4.40177 19.8708 4.37293 19.78 4.37293 19.6591C4.37293 19.547 4.40127 19.4625 4.45794 19.4056C4.51512 19.3486 4.59192 19.3201 4.68837 19.3201C4.75201 19.3201 4.80495 19.3347 4.84721 19.3639C4.88997 19.3926 4.91905 19.432 4.93446 19.482L5.1537 19.4438C5.13183 19.3502 5.08261 19.277 5.00605 19.2242C4.92999 19.171 4.82409 19.1443 4.68837 19.1443C4.58397 19.1443 4.49672 19.1613 4.42662 19.1951C4.33465 19.2391 4.2648 19.3023 4.21707 19.3847C4.16935 19.4672 4.14549 19.5614 4.14549 19.6675C4.14549 19.7652 4.16686 19.8557 4.20962 19.9391C4.25237 20.022 4.31626 20.0859 4.40127 20.1308C4.48628 20.1753 4.58596 20.1975 4.7003 20.1975C4.79029 20.1975 4.87903 20.1818 4.96653 20.1503C5.05452 20.1183 5.12164 20.0815 5.16787 20.0398V19.6341H4.6921ZM2.51828 19.1617H2.92172C3.0127 19.1617 3.08205 19.1682 3.12978 19.1812C3.19391 19.1988 3.24884 19.23 3.29458 19.275C3.34032 19.3199 3.37512 19.375 3.39898 19.4403C3.42285 19.5051 3.43478 19.5853 3.43478 19.6807C3.43478 19.7645 3.42359 19.8367 3.40122 19.8974C3.37388 19.9715 3.33485 20.0315 3.28414 20.0773C3.24586 20.1121 3.19416 20.1392 3.12903 20.1586C3.08031 20.173 3.01518 20.1801 2.93365 20.1801H2.51828V19.1617ZM2.73902 19.334V20.0086H2.90382C2.96547 20.0086 3.00996 20.0053 3.03731 19.9988C3.0731 19.9905 3.10268 19.9764 3.12605 19.9565C3.14991 19.9365 3.1693 19.9039 3.18422 19.8585C3.19913 19.8127 3.20659 19.7504 3.20659 19.6716C3.20659 19.5929 3.19913 19.5325 3.18422 19.4903C3.1693 19.4482 3.14842 19.4153 3.12157 19.3917C3.09473 19.368 3.06067 19.3521 3.01941 19.3437C2.98859 19.3372 2.92818 19.334 2.8382 19.334H2.73902ZM3.68387 20.1801V19.1617H3.9046V20.1801H3.68387ZM5.43337 20.1801V19.1617H5.6541V20.1801H5.43337ZM6.1791 19.334V20.1801H6.39984V19.334H6.72348V19.1617H5.85472V19.334H6.1791ZM7.80703 20.1801H7.56691L7.47146 19.9488H7.03447L6.94423 20.1801H6.71008L7.13588 19.1617H7.3693L7.80703 20.1801ZM7.40062 19.7772L7.24998 19.3993L7.10233 19.7772H7.40062ZM7.9987 19.1701V20.1801H8.76829V20.0086H8.21944V19.1701H7.9987ZM9.45886 20.1801V19.1617H9.81308C9.94731 19.1617 10.0348 19.1668 10.0756 19.177C10.1382 19.1923 10.1907 19.2256 10.2329 19.277C10.2752 19.328 10.2963 19.394 10.2963 19.475C10.2963 19.5375 10.2841 19.5901 10.2598 19.6327C10.2354 19.6753 10.2043 19.7089 10.1666 19.7335C10.1293 19.7575 10.0912 19.7735 10.0525 19.7814C9.99976 19.7911 9.92345 19.796 9.82352 19.796H9.67959V20.1801H9.45886ZM9.67959 19.334V19.623H9.8004C9.8874 19.623 9.94557 19.6177 9.9749 19.607C10.0042 19.5964 10.0271 19.5797 10.0435 19.557C10.0604 19.5343 10.0689 19.5079 10.0689 19.4778C10.0689 19.4408 10.0572 19.4102 10.0338 19.3861C10.0104 19.362 9.98087 19.347 9.94507 19.3409C9.91872 19.3363 9.86578 19.334 9.78623 19.334H9.67959ZM10.5461 19.1617V20.1801H10.7669V19.755H10.8116C10.8623 19.755 10.8994 19.7589 10.9227 19.7668C10.9461 19.7742 10.9682 19.7883 10.9891 19.8092C11.01 19.8296 11.0488 19.8793 11.1054 19.9585L11.265 20.1801H11.529L11.3955 19.9815C11.3428 19.9023 11.3008 19.8472 11.2695 19.8161C11.2387 19.7851 11.1994 19.7566 11.1517 19.7307C11.2476 19.7177 11.3197 19.6864 11.3679 19.6369C11.4162 19.5869 11.4403 19.5237 11.4403 19.4472C11.4403 19.387 11.4244 19.3335 11.3925 19.2868C11.3607 19.24 11.3182 19.2076 11.265 19.1895C11.2123 19.171 11.1276 19.1617 11.0107 19.1617H10.5461ZM10.9302 19.5924H10.7669V19.334H10.9391C11.0286 19.334 11.0823 19.3352 11.1002 19.3375C11.136 19.343 11.1636 19.3565 11.183 19.3778C11.2029 19.3986 11.2128 19.4262 11.2128 19.4604C11.2128 19.491 11.2054 19.5165 11.1904 19.5369C11.1755 19.5572 11.1549 19.5716 11.1286 19.5799C11.1022 19.5883 11.0361 19.5924 10.9302 19.5924ZM11.7169 20.1801V19.1617H12.5275V19.334H11.9377V19.5598H12.4865V19.7314H11.9377V20.0086H12.5484V20.1801H11.7169ZM12.9623 19.8293L12.7475 19.8488C12.762 19.9627 12.8062 20.0495 12.8803 20.1093C12.9544 20.1686 13.0605 20.1982 13.1987 20.1982C13.2937 20.1982 13.373 20.1859 13.4366 20.1614C13.5002 20.1364 13.5494 20.0984 13.5842 20.0475C13.6191 19.9965 13.6365 19.9419 13.6365 19.8835C13.6365 19.8191 13.6218 19.7652 13.5925 19.7216C13.5636 19.6776 13.5233 19.6431 13.4716 19.6181C13.4204 19.5927 13.3411 19.5681 13.2338 19.5445C13.1264 19.5209 13.0588 19.4982 13.0309 19.4764C13.009 19.4593 12.9981 19.4387 12.9981 19.4146C12.9981 19.3882 13.0098 19.3671 13.0332 19.3514C13.0695 19.3268 13.1197 19.3145 13.1838 19.3145C13.2459 19.3145 13.2924 19.3261 13.3232 19.3493C13.3546 19.372 13.375 19.4095 13.3844 19.4618L13.6051 19.4528C13.6017 19.3592 13.5651 19.2844 13.4955 19.2284C13.4264 19.1724 13.3232 19.1443 13.186 19.1443C13.102 19.1443 13.0302 19.1562 12.9705 19.1798C12.9114 19.2034 12.8659 19.2379 12.8341 19.2833C12.8027 19.3282 12.7871 19.3766 12.7871 19.4285C12.7871 19.5091 12.8206 19.5774 12.8877 19.6334C12.9355 19.6732 13.0185 19.7068 13.1368 19.7341C13.2288 19.7555 13.2877 19.7703 13.3136 19.7786C13.3513 19.7911 13.3777 19.8059 13.3926 19.8231C13.408 19.8397 13.4157 19.8601 13.4157 19.8842C13.4157 19.9217 13.3976 19.9546 13.3613 19.9829C13.3255 20.0106 13.272 20.0245 13.2009 20.0245C13.1338 20.0245 13.0804 20.0088 13.0406 19.9773C13.0013 19.9458 12.9752 19.8965 12.9623 19.8293ZM13.8341 19.8488L14.0489 19.8293C14.0618 19.8965 14.0879 19.9458 14.1272 19.9773C14.1669 20.0088 14.2204 20.0245 14.2875 20.0245C14.3586 20.0245 14.412 20.0106 14.4478 19.9829C14.4841 19.9546 14.5023 19.9217 14.5023 19.8842C14.5023 19.8601 14.4945 19.8397 14.4791 19.8231C14.4642 19.8059 14.4379 19.7911 14.4001 19.7786C14.3742 19.7703 14.3153 19.7555 14.2234 19.7341C14.105 19.7068 14.022 19.6732 13.9743 19.6334C13.9072 19.5774 13.8736 19.5091 13.8736 19.4285C13.8736 19.3766 13.8893 19.3282 13.9206 19.2833C13.9524 19.2379 13.9979 19.2034 14.0571 19.1798C14.1167 19.1562 14.1886 19.1443 14.2726 19.1443C14.4098 19.1443 14.5129 19.1724 14.582 19.2284C14.6516 19.2844 14.6882 19.3592 14.6917 19.4528L14.4709 19.4618C14.4615 19.4095 14.4411 19.372 14.4098 19.3493C14.379 19.3261 14.3325 19.3145 14.2703 19.3145C14.2062 19.3145 14.156 19.3268 14.1197 19.3514C14.0963 19.3671 14.0846 19.3882 14.0846 19.4146C14.0846 19.4387 14.0956 19.4593 14.1175 19.4764C14.1453 19.4982 14.2129 19.5209 14.3203 19.5445C14.4277 19.5681 14.507 19.5927 14.5582 19.6181C14.6099 19.6431 14.6502 19.6776 14.679 19.7216C14.7083 19.7652 14.723 19.8191 14.723 19.8835C14.723 19.9419 14.7056 19.9965 14.6708 20.0475C14.636 20.0984 14.5868 20.1364 14.5231 20.1614C14.4595 20.1859 14.3802 20.1982 14.2852 20.1982C14.147 20.1982 14.0409 20.1686 13.9668 20.1093C13.8927 20.0495 13.8485 19.9627 13.8341 19.8488ZM15.4717 19.1617V20.1801H15.6768V19.516L16.1175 20.1801H16.339V19.1617H16.1339V19.8418L15.6865 19.1617H15.4717ZM16.641 20.1801V19.1617H17.4516V19.334H16.8618V19.5598H17.4106V19.7314H16.8618V20.0086H17.4725V20.1801H16.641ZM17.9737 19.334V20.1801H18.1944V19.334H18.518V19.1617H17.6493V19.334H17.9737ZM18.8842 20.1801L18.6232 19.1617H18.8492L19.014 19.8613L19.2138 19.1617H19.4763L19.668 19.8731L19.8357 19.1617H20.058L19.7925 20.1801H19.5583L19.3406 19.4188L19.1236 20.1801H18.8842ZM20.2444 19.416C20.2111 19.4864 20.1945 19.5734 20.1945 19.6772C20.1945 19.8393 20.2424 19.9666 20.3384 20.0593C20.4343 20.1514 20.5636 20.1975 20.7262 20.1975C20.8867 20.1975 21.015 20.1512 21.1109 20.0586C21.2069 19.9655 21.2549 19.8367 21.2549 19.6723C21.2549 19.5065 21.2064 19.3771 21.1095 19.284C21.013 19.1909 20.8842 19.1443 20.7232 19.1443C20.6342 19.1443 20.5556 19.1578 20.4875 19.1846C20.4363 19.2046 20.3891 19.2351 20.3458 19.2763C20.3031 19.3176 20.2693 19.3641 20.2444 19.416ZM20.5077 19.9328C20.4505 19.8731 20.4219 19.7856 20.4219 19.6702C20.4219 19.5531 20.4497 19.4655 20.5054 19.4076C20.5611 19.3493 20.6344 19.3201 20.7254 19.3201C20.8164 19.3201 20.8892 19.3488 20.9439 19.4063C20.9991 19.4637 21.0267 19.5507 21.0267 19.6675C21.0267 19.7856 20.9983 19.8742 20.9417 19.9335C20.8855 19.9923 20.8134 20.0218 20.7254 20.0218C20.6374 20.0218 20.5648 19.9921 20.5077 19.9328ZM21.4965 20.1801V19.1617H21.9611C22.0779 19.1617 22.1627 19.171 22.2154 19.1895C22.2686 19.2076 22.3111 19.24 22.3429 19.2868C22.3747 19.3335 22.3906 19.387 22.3906 19.4472C22.3906 19.5237 22.3665 19.5869 22.3183 19.6369C22.2701 19.6864 22.198 19.7177 22.102 19.7307C22.1498 19.7566 22.189 19.7851 22.2199 19.8161C22.2512 19.8472 22.2932 19.9023 22.3459 19.9815L22.4794 20.1801H22.2154L22.0558 19.9585C21.9991 19.8793 21.9603 19.8296 21.9395 19.8092C21.9186 19.7883 21.8965 19.7742 21.8731 19.7668C21.8497 19.7589 21.8127 19.755 21.762 19.755H21.7172V20.1801H21.4965ZM21.7172 19.5924H21.8805C21.9864 19.5924 22.0526 19.5883 22.0789 19.5799C22.1053 19.5716 22.1259 19.5572 22.1408 19.5369C22.1557 19.5165 22.1632 19.491 22.1632 19.4604C22.1632 19.4262 22.1532 19.3986 22.1334 19.3778C22.114 19.3565 22.0864 19.343 22.0506 19.3375C22.0327 19.3352 21.979 19.334 21.8895 19.334H21.7172V19.5924ZM22.6703 19.1617V20.1801H22.891V19.8724L23.07 19.7022L23.3705 20.1801H23.6561L23.2221 19.5584L23.6338 19.1617H23.337L22.891 19.614V19.1617H22.6703Z" fill="#B9B9B9" fill-opacity="0.7"/>
</g>
</svg>
