<svg width="176" height="42" viewBox="0 0 176 42" fill="none" xmlns="http://www.w3.org/2000/svg">
<g id="Group 2686">
<path id="Vector" d="M43.0425 17.7933L42.761 20.2263H42.7118C42.3353 18.8125 41.2581 16.9303 38.9597 16.9303C35.2076 16.9303 31.408 21.7962 30.5649 29.4102C29.8151 36.0816 31.7845 41.9695 36.1931 41.9695C37.8351 41.9695 39.7128 40.8736 40.6492 38.594H40.6983L40.4167 41.1065H44.5421L47.1221 17.7139H43.0425V17.7933ZM41.7296 29.4102C41.448 31.6842 40.1826 35.4542 37.5551 35.4542C35.0226 35.4542 34.5069 31.6869 34.7394 29.5636C35.021 26.895 36.4747 23.5195 38.8648 23.5195C41.2107 23.5195 42.0079 26.6594 41.7263 29.4102H41.7296ZM49.5154 17.7933H53.4083L53.1268 20.2263H53.1759C53.6916 19.1303 54.6296 16.9303 57.0688 16.9303L56.319 23.999C54.3497 24.0812 52.8812 24.7059 52.5669 28.317L51.1132 41.1941H46.8569L49.5154 17.7933ZM59.8813 8.60943H64.1049L62.1355 26.2703H62.2288L67.0581 17.7933H71.9824L65.5569 28.0759L69.2616 41.1859H64.5239L61.8032 29.8814H61.7704L60.5033 41.1859H56.3288L59.8813 8.60943ZM78.7074 16.9303C74.4838 16.9303 70.6858 23.0538 69.9819 29.5691C69.2321 36.4734 71.9987 41.9722 76.0324 41.9722C77.5329 41.9607 78.9995 41.2243 80.256 39.8516C81.5689 38.5173 82.7885 36.4762 83.7757 33.887H79.5079C78.804 35.1419 78.0067 36.0844 76.6922 36.0844C75.0502 36.0844 73.8764 34.435 73.9092 31.6897H84.3863C84.5271 31.1417 84.5746 30.7472 84.6679 29.8814C85.4651 22.6592 82.9817 16.9303 78.709 16.9303H78.7074ZM74.4838 26.9032C74.8112 25.4895 75.9375 22.9031 78.1426 22.9031C80.3002 22.9031 80.8634 25.4922 80.8634 26.9032H74.4838ZM24.3769 41.1859H28.5513V8.58203H24.9858L17.5749 27.1032H17.5258V8.58203H13.9619L0.876953 41.1859H5.942L13.3055 22.6647H13.3546V41.1859H16.9659L24.2835 22.6647H24.3769V41.1859ZM95.294 17.7933H92.6682L93.4179 10.889H89.7591L89.4775 13.5575C89.1501 16.6179 88.0238 17.5577 86.4752 17.796H86.4261L85.7712 23.0565H87.8339L85.8171 41.1393H89.9916L92.0084 23.0565H94.6817L95.294 17.7933Z" fill="#B9B9B9" fill-opacity="0.7"/>
<path id="Vector_2" d="M160.083 32.3958C158.724 37.648 155.439 41.8972 151.685 41.8972C147.46 41.8972 144.787 36.4131 145.584 29.5378C146.334 22.7433 150.137 17.2565 154.359 17.2565C158.066 17.2565 160.583 21.3493 160.649 26.9629H156.423C156.141 25.3398 155.532 23.7193 153.749 23.7193C151.778 23.5656 150.136 26.2672 149.761 29.5162C149.384 32.8379 150.416 35.3859 152.435 35.3859C154.171 35.3859 155.219 33.7627 155.814 32.296H160.083V32.3958ZM125.363 0.876953L117.246 9.06537H119.545L112.179 27.2918H112.085V9.06537H108.471L101.101 27.2945H101.052V9.06807H96.8262V41.1531H100.487L107.853 22.9266H107.902V41.1531H111.515L124.56 9.06807H126.624L125.363 0.876953ZM133.339 41.1234H129.211L129.493 38.651H129.444C128.458 40.8888 126.627 41.9727 124.986 41.9727C120.528 41.9727 118.605 36.1759 119.355 29.6133C120.2 22.1178 124.048 17.332 127.754 17.332C130.053 17.332 131.133 19.187 131.508 20.5755H131.557L131.838 18.1813H135.966L133.339 41.1234ZM126.3 35.4883C128.881 35.4883 130.194 31.781 130.476 29.5405C130.758 26.7634 129.96 23.7436 127.613 23.7436C125.222 23.7436 123.764 27.0653 123.486 29.6915C123.204 31.8538 123.768 35.4883 126.303 35.4883H126.3ZM146.428 18.1085H143.801L144.551 11.314H140.89L140.609 13.9401C140.281 16.9518 139.154 17.8766 137.605 18.1112H137.556L136.947 23.2879H139.01L136.993 41.083H141.169L143.187 23.2879H145.861L146.428 18.1085ZM164.024 9.07077H168.2L166.933 20.5027H166.982C167.873 18.3404 169.095 17.2592 170.924 17.2592C172.237 17.2592 173.741 18.1085 174.445 19.8071C175.336 22.045 175.243 24.0563 174.773 28.2274L173.318 41.0506H169.142L170.55 28.5402C170.691 27.4617 171.066 23.6735 168.864 23.6735C166.517 23.6735 166.142 27.1516 166.001 28.311L164.546 41.056H160.419L164.024 9.07077Z" fill="#B9B9B9" fill-opacity="0.7"/>
</g>
</svg>
