<svg width="59" height="23" viewBox="0 0 59 23" fill="none" xmlns="http://www.w3.org/2000/svg">
<g id="Group 2609126">
<path id="pittsburgh-post-gazette-logo 1 (Traced)" fill-rule="evenodd" clip-rule="evenodd" d="M9.25913 1.06925C9.25913 1.63259 9.24471 1.67784 9.01592 1.83158L8.77281 1.99498L8.71223 1.69174C8.56365 0.948374 8.12341 0.622018 7.26927 0.622018C6.46068 0.622018 6.08924 0.854698 5.94332 1.45249L5.87876 1.7169L6.13665 1.50915C6.43309 1.27035 6.5386 1.25464 6.73236 1.42008C6.84486 1.51625 6.8713 1.73178 6.8713 2.55326C6.8713 3.28447 6.84203 3.56776 6.76659 3.56776C6.52268 3.56776 5.92722 3.88354 5.78599 4.08774C5.55605 4.42022 5.58559 4.89381 5.85028 5.11984C6.15566 5.38078 6.35058 5.36642 6.28531 5.08781C6.23021 4.85249 6.26002 4.82287 6.6281 4.74771L6.8713 4.69807L6.86812 5.66271L6.86493 6.62735L6.40718 6.89176C5.3843 7.4826 5.2665 8.16531 6.07483 8.81817L6.35544 9.04481L6.29575 8.76945C6.22287 8.43334 6.34501 8.21706 6.69513 8.06242L6.95602 7.94721L6.97999 9.41324L7.00396 10.8794L8.18001 10.1523C9.28902 9.46665 9.34244 9.42216 9.11612 9.37041C8.78996 9.29592 8.73142 9.19227 8.72983 8.68597C8.72832 8.20467 8.81596 8.14808 9.18201 8.39406L9.39408 8.53654L10.7637 7.73175L12.1334 6.92697L12.1567 4.40753L12.18 1.88808L12.3999 1.74039C12.6849 1.54889 12.6864 1.39779 12.4018 1.55712C12.2819 1.6242 12.1402 1.67913 12.0869 1.67913C12.0336 1.67913 11.6689 1.44176 11.2765 1.15159L10.563 0.624057L10.0659 1.01266L9.56866 1.40134L9.5423 0.935834C9.52276 0.589609 9.48314 0.470398 9.38754 0.470398C9.2861 0.470398 9.25913 0.59603 9.25913 1.06925ZM29.2461 1.44123C28.8813 1.64279 28.4895 1.89481 28.3755 2.00133L28.1682 2.19503L28.3534 2.27971C28.5358 2.36304 28.5386 2.4033 28.5394 4.94911L28.5402 7.5339L28.252 7.73697C28.0477 7.88096 27.9912 7.96368 28.0578 8.02124C28.1246 8.07903 28.2121 8.04768 28.3607 7.91261C28.4755 7.8082 28.6058 7.72276 28.6502 7.72276C28.6946 7.72276 29.0501 7.97357 29.4402 8.28014L30.1493 8.83751L30.8695 8.39557C31.2656 8.15247 31.8385 7.84855 32.1425 7.72012L32.6952 7.48668V6.10549C32.6952 4.82031 32.7075 4.71484 32.8721 4.58763C32.9694 4.51246 33.049 4.39922 33.049 4.33614C33.049 4.24767 33.002 4.25908 32.8443 4.38562C32.7317 4.47597 32.6023 4.5491 32.5569 4.54812C32.5113 4.54721 32.1641 4.30924 31.7854 4.0193C31.4065 3.72943 31.0682 3.4929 31.0336 3.49373C30.999 3.49456 30.7936 3.64754 30.5772 3.83368C30.3608 4.01983 30.15 4.17213 30.1089 4.17213C30.0678 4.17213 30.0619 3.47522 30.0958 2.62344C30.1478 1.3196 30.138 1.07476 30.0335 1.07476C29.9652 1.07476 29.6109 1.23968 29.2461 1.44123ZM49.799 1.53906C49.0152 2.0385 48.7025 2.28712 48.7025 2.41093C48.7025 2.46548 48.7622 2.51013 48.8351 2.51013C48.9505 2.51013 48.9678 2.84797 48.9678 5.09756V7.68499L48.6583 7.89599C48.2819 8.15254 48.2134 8.40637 48.5752 8.20384C48.7998 8.07813 48.8059 8.08047 49.2606 8.46175L49.7195 8.8465L50.5355 8.31247C50.9844 8.01867 51.3308 7.74958 51.3053 7.71438C51.2798 7.6791 51.1811 7.69186 51.0859 7.74263C50.9581 7.81085 50.8725 7.81327 50.7584 7.75185C50.6224 7.67864 50.601 7.50784 50.5797 6.32494C50.5584 5.14666 50.574 4.96369 50.7061 4.83897C50.8523 4.70102 50.8669 4.70525 51.1997 4.9822L51.5427 5.26754L51.5144 7.08063C51.482 9.15322 51.4342 9.33211 50.8 9.75743L50.427 10.0075L50.9242 9.96699C51.7593 9.899 52.4454 9.53427 52.8013 8.96926C52.9794 8.68665 52.9935 8.54349 53.0194 6.7582L53.047 4.84932L53.2626 4.72867C53.3811 4.66234 53.4781 4.57796 53.4781 4.54117C53.4781 4.432 53.2832 4.46486 53.1026 4.60447C52.9411 4.72935 52.921 4.72096 52.6092 4.39793C52.4305 4.21277 52.1847 3.96558 52.0631 3.84864L51.842 3.63613L51.2009 4.13685L50.5597 4.63764V2.89397C50.5597 1.93492 50.5258 1.15031 50.4844 1.15031C50.443 1.15031 50.1346 1.32527 49.799 1.53906ZM10.4973 3.01424C10.4973 3.71795 10.4806 3.79666 10.3161 3.87191C10.1839 3.93234 10.0522 3.93151 9.82964 3.86874L9.52444 3.78269V2.73722C9.52444 1.96982 9.55389 1.68237 9.63499 1.65669C9.69583 1.63742 9.91463 1.76064 10.1214 1.93054L10.4973 2.23937V3.01424ZM13.8773 2.07793L13.3269 2.55228L13.8356 2.97821L14.3443 3.40413L14.9093 2.96325L15.4744 2.52236L15.0066 2.06297C14.7494 1.81027 14.5138 1.60358 14.4832 1.60358C14.4527 1.60358 14.18 1.81707 13.8773 2.07793ZM18.0539 1.9909C17.8134 2.12084 17.423 2.36515 17.1865 2.53385C16.7892 2.81729 16.7708 2.84494 16.9433 2.89949C17.0995 2.94889 17.1301 3.02081 17.1301 3.33871C17.1301 3.69385 17.1155 3.71885 16.909 3.71885C16.7027 3.71885 16.6879 3.74401 16.6879 4.09658C16.6879 4.46872 16.692 4.47431 16.9624 4.47431H17.237L17.2056 5.99141L17.1743 7.50844L16.7924 7.78667C16.3986 8.07344 16.3731 8.27062 16.7576 8.05547C16.9692 7.93701 16.9846 7.94328 17.4449 8.33151L17.9156 8.72865L18.7185 8.1743C19.2411 7.81342 19.4912 7.59418 19.435 7.54614C19.3787 7.49809 19.3009 7.5061 19.2121 7.56903C19.1083 7.64261 19.0463 7.64488 18.9526 7.5784C18.6805 7.38553 18.629 7.07874 18.6535 5.79499L18.6778 4.51208L19.0979 4.48904L19.5179 4.466V4.09243V3.71885H19.0688H18.6195L18.6487 2.73669C18.668 2.08276 18.6466 1.75452 18.5846 1.7546C18.5333 1.7546 18.2945 1.86096 18.0539 1.9909ZM21.4146 1.9909C21.174 2.12084 20.7865 2.36319 20.5535 2.52939C20.1425 2.82251 20.1351 2.83474 20.3103 2.93953C20.4459 3.02066 20.4908 3.13088 20.4908 3.3832C20.4908 3.6909 20.4724 3.71885 20.2697 3.71885C20.0633 3.71885 20.0486 3.74401 20.0486 4.09658C20.0486 4.44915 20.0633 4.47431 20.2697 4.47431H20.4908V5.99398V7.51358L20.1342 7.79204C19.7592 8.08478 19.7485 8.26238 20.1183 8.05547C20.3298 7.93701 20.3453 7.94328 20.8056 8.33158L21.2765 8.72888L21.912 8.28248C22.2615 8.03696 22.602 7.79831 22.6687 7.75223C22.8044 7.65847 22.8322 7.49613 22.7125 7.49613C22.6699 7.49613 22.5846 7.54795 22.5231 7.61118C22.426 7.71105 22.3835 7.69134 22.2007 7.46153C21.9958 7.20392 21.9908 7.1607 22.0143 5.85445L22.0384 4.51208L22.4631 4.48889L22.8879 4.4657L22.8611 4.11116L22.8344 3.75663L22.4143 3.73358L21.9942 3.71054V2.73261C21.9942 2.19472 21.9622 1.75467 21.9231 1.75467C21.8839 1.75467 21.6551 1.86096 21.4146 1.9909ZM9.22844 6.79204C9.21013 6.80768 9.09021 6.78638 8.96189 6.74468L8.7285 6.6689V4.48164V2.29444L8.9717 2.13104L9.21491 1.96756L9.23826 4.3656C9.25117 5.68455 9.24675 6.77648 9.22844 6.79204ZM27.0352 3.59526C26.8389 3.94564 26.314 3.96815 25.9062 3.64353L25.7093 3.48685L25.2447 3.78654C24.9891 3.95131 24.4715 4.21126 24.0946 4.36416L23.4092 4.64217V5.37322V6.10428L23.8048 6.38674L24.2004 6.66921L23.8541 6.93641C23.2653 7.39082 23.0038 8.02857 23.2431 8.42654C23.3648 8.62878 23.7705 9.00704 23.8657 9.00704C23.904 9.00704 23.9103 8.89991 23.8797 8.76907C23.8373 8.58783 23.8629 8.50677 23.9872 8.42911C24.2145 8.28716 24.3096 8.29948 24.69 8.51992L25.0226 8.71279L26.1837 8.16108L27.3447 7.60944L27.3696 6.73161L27.3943 5.85384L27.0874 5.62366C26.9186 5.49704 26.7103 5.35993 26.6246 5.31891C26.4836 5.25152 26.4995 5.21511 26.7902 4.9402C27.129 4.61988 27.3 4.23438 27.2986 3.7944C27.2974 3.40013 27.1899 3.31892 27.0352 3.59526ZM13.6078 4.09431C13.2101 4.39408 12.9072 4.67035 12.9345 4.70812C12.9634 4.74816 13.0599 4.74227 13.1653 4.69415C13.3183 4.62419 13.3924 4.64965 13.6463 4.85989L13.9463 5.10828L13.9425 6.05668C13.9379 7.20052 13.8518 7.63422 13.5943 7.81236C13.4887 7.88541 13.4279 7.98075 13.4594 8.02419C13.4957 8.07435 13.5968 8.04919 13.7369 7.95506L13.9572 7.807L14.4075 8.23708C14.6552 8.47353 14.8699 8.67977 14.8846 8.69526C14.9275 8.74028 16.3342 7.71695 16.3342 7.64072C16.3342 7.54198 16.2172 7.55543 16.0238 7.67623C15.8729 7.77043 15.8319 7.75449 15.6088 7.51471C15.3646 7.25227 15.3614 7.23481 15.3614 6.19901C15.3614 5.10186 15.457 4.71401 15.7635 4.56753C15.8478 4.52719 15.8892 4.4561 15.8555 4.40957C15.8123 4.34973 15.7309 4.36039 15.5782 4.4459C15.3664 4.56443 15.3536 4.55884 14.9416 4.1682C14.7104 3.94896 14.4784 3.71999 14.426 3.6594C14.3474 3.56844 14.2044 3.64444 13.6078 4.09431ZM45.3049 3.97865C44.9684 4.20265 44.4212 4.49894 44.0888 4.63688L43.4846 4.88784V6.29979V7.71181L43.2635 7.86033C43.1419 7.94207 43.0425 8.02955 43.0425 8.05471C43.0425 8.14514 43.2883 8.09815 43.3962 7.98717C43.4568 7.92485 43.5327 7.87385 43.5648 7.87385C43.597 7.87385 43.9344 8.09482 44.3147 8.3649C44.695 8.63497 45.0228 8.85594 45.043 8.85594C45.0633 8.85594 45.3079 8.70289 45.5867 8.51576L46.0936 8.17558L46.182 8.47497C46.2306 8.63966 46.3202 8.81659 46.381 8.86803C46.538 9.00099 46.518 9.46122 46.3484 9.6213C46.2114 9.75055 46.1929 9.74844 45.9222 9.57212C44.9408 8.93262 43.7712 9.1227 43.2193 10.0113C42.9752 10.4046 43.0019 10.4805 43.3454 10.369C43.7875 10.2254 44.4035 10.2743 44.7607 10.4815C44.9411 10.586 45.1357 10.6482 45.1932 10.6196C45.4465 10.4939 47.6919 9.05108 47.7504 8.97652C47.8579 8.83955 47.8204 8.37767 47.6854 8.17604C47.5875 8.02963 47.5584 7.638 47.5559 6.43373L47.5528 4.88029L47.8149 4.66574C48.152 4.38992 48.0684 4.26323 47.7082 4.504L47.4338 4.6875L46.7369 4.14652C46.3535 3.84894 46.0122 3.59783 45.9783 3.58839C45.9445 3.57894 45.6414 3.75459 45.3049 3.97865ZM39.7039 4.25863C39.0373 4.8188 38.8714 5.00313 39.0336 5.00313C39.0663 5.00313 39.1665 4.94632 39.2562 4.87689C39.4101 4.75798 39.4347 4.76319 39.6833 4.96664L39.9471 5.18247V6.36174V7.541L39.597 7.83306C39.2226 8.14529 39.2011 8.34004 39.5633 8.13728C39.814 7.99699 39.8335 8.0053 40.4844 8.53359L40.889 8.86199L41.6511 8.31587C42.0702 8.0155 42.3935 7.74256 42.3694 7.70932C42.3454 7.67608 42.2268 7.70425 42.106 7.77187C41.8975 7.88859 41.875 7.88594 41.6684 7.72012C41.4528 7.54712 41.4506 7.53148 41.4506 6.20679V4.86835L41.7788 5.01128C42.4178 5.28959 42.87 5.12052 43.2559 4.45897C43.5398 3.97238 43.5611 3.75413 43.3136 3.8673C43.0584 3.98394 42.5492 3.96173 42.4196 3.82824C42.3198 3.7255 42.2467 3.76071 41.8308 4.11154C41.5381 4.35827 41.3315 4.4808 41.2926 4.43057C41.133 4.22455 40.539 3.64346 40.4892 3.64444C40.4586 3.64505 40.1052 3.92147 39.7039 4.25863ZM33.9008 4.25032C33.3589 4.70691 33.305 4.77483 33.5181 4.73214C33.7075 4.69422 33.8175 4.72361 33.9824 4.85596C34.1943 5.02602 34.1987 5.05374 34.1987 6.24071V7.45201L33.8728 7.73704C33.507 8.05705 33.5255 8.18095 33.9101 7.98687L34.1643 7.85859L34.6951 8.32766L35.2259 8.79672L35.9725 8.37389L36.7191 7.95106L37.1613 8.35946L37.6035 8.76786L38.3957 8.28006C39.3382 7.69965 39.2713 7.75207 39.1981 7.65092C39.159 7.59683 39.0607 7.62153 38.909 7.72337L38.6793 7.87778L38.4288 7.67283L38.1784 7.46787V6.14908V4.83028L38.51 4.5843C38.8753 4.3134 38.8612 4.15898 38.4901 4.36666L38.2559 4.49773L37.7827 4.09847L37.3094 3.69921L37.0585 3.85355C36.9205 3.93846 36.6706 4.12967 36.5032 4.27849L36.1989 4.54917L36.4368 4.76138L36.6749 4.97359V6.36778C36.6749 7.72004 36.6691 7.76507 36.4814 7.86517C36.3029 7.96035 36.2618 7.94441 35.9508 7.65961L35.6137 7.35085V5.92894V4.50694L35.1466 4.1129C34.8897 3.89616 34.6461 3.71885 34.6055 3.71885C34.5648 3.71885 34.2476 3.95803 33.9008 4.25032ZM10.4972 4.34475C10.4973 4.61346 10.4859 4.62547 10.3083 4.54434C10.2043 4.49682 9.98538 4.47642 9.82186 4.49916C9.5355 4.53882 9.52444 4.53119 9.52444 4.29557V4.0508L10.0108 4.0548L10.4971 4.05881L10.4972 4.34475ZM31.1918 6.49334C31.1918 8.07737 31.2275 8.03575 30.4505 7.3569L30.0188 6.9797L30.0837 5.74589C30.1194 5.06726 30.1669 4.48647 30.1893 4.45512C30.2116 4.42377 30.4463 4.55771 30.7108 4.75277L31.1918 5.10745V6.49334ZM25.9561 4.85204H26.4552L25.8919 5.33749C25.3458 5.80814 25.3223 5.81939 25.1207 5.70653C24.933 5.60152 24.9127 5.53489 24.9127 5.02549V4.46086L25.1848 4.65645C25.4071 4.8163 25.548 4.85204 25.9561 4.85204ZM45.8061 5.08207L46.0493 5.25703V6.64541V8.03378L45.5629 7.70932L45.0765 7.38477V5.95319V4.5216L45.3197 4.71439C45.4535 4.82038 45.6723 4.9859 45.8061 5.08207ZM10.3262 4.70359C10.4856 4.77649 10.4973 4.87447 10.4973 6.13895C10.4973 6.88542 10.4774 7.49613 10.4532 7.49613C10.4291 7.49613 10.2102 7.37397 9.96681 7.22462L9.52444 6.95311V5.86238C9.52444 4.8018 9.52992 4.76977 9.72343 4.70329C9.99228 4.61097 10.1238 4.61104 10.3262 4.70359ZM25.7478 6.2287C25.8474 6.35003 25.8855 6.58248 25.8855 7.06748V7.7384L25.5744 7.50504C25.2023 7.22605 24.9795 7.17037 24.3741 7.20535L23.9172 7.23172L24.6581 6.64677C25.0657 6.3251 25.4466 6.06159 25.5046 6.06129C25.5627 6.06099 25.6721 6.13631 25.7478 6.2287ZM4.04128 12.7032C4.04128 13.2624 4.02563 13.3127 3.80489 13.461C3.55346 13.63 3.42637 13.5734 3.42354 13.2912C3.42284 13.2169 3.34209 13.0218 3.24419 12.8579C2.99391 12.4389 2.48203 12.2237 1.86518 12.2781C1.13548 12.3424 0.680639 12.6988 0.680639 13.2062V13.4091L0.863972 13.21C1.07941 12.976 1.30236 12.9559 1.50983 13.1517C1.63639 13.2711 1.65514 13.4387 1.63409 14.2593L1.60924 15.2261L1.27194 15.3084C0.890503 15.4014 0.526404 15.6699 0.401618 15.9503C0.27241 16.2406 0.397549 16.6898 0.656054 16.8635C0.988669 17.0869 1.14671 17.0668 1.01387 16.8177C0.923579 16.6485 0.932511 16.6057 1.07693 16.5155C1.16944 16.4578 1.33694 16.4105 1.44925 16.4105C1.6516 16.4105 1.65346 16.4191 1.65346 17.3476V18.2848L1.2676 18.4779C0.15912 19.0328 -0.035001 19.7815 0.758023 20.443L1.09798 20.7266L1.05632 20.3559C1.01865 20.0211 1.03802 19.9697 1.25752 19.8222C1.39115 19.7324 1.53486 19.6589 1.57696 19.6589C1.61906 19.6589 1.65346 20.3049 1.65346 21.0943C1.65346 21.8838 1.67795 22.5297 1.70785 22.5297C1.73774 22.5297 2.27642 22.2152 2.90494 21.8309L4.04756 21.1321L3.78676 21.0401C3.48678 20.9343 3.37782 20.6555 3.47086 20.2319C3.53657 19.9326 3.63615 19.9011 3.9402 20.083C4.159 20.2138 4.22983 20.1793 6.31856 18.921L6.8713 18.588V16.0682V13.5483L7.13661 13.4144C7.28254 13.3408 7.40193 13.2539 7.40193 13.2213C7.40193 13.1334 7.32419 13.1481 7.04535 13.2888L6.79409 13.4156L6.19157 12.9723C5.8601 12.7286 5.52094 12.4805 5.4379 12.4212C5.30268 12.3246 5.23307 12.3543 4.77461 12.7038L4.26238 13.0942L4.2362 12.5993C4.19923 11.8985 4.04128 11.9828 4.04128 12.7032ZM29.9288 12.302C29.8938 12.3318 29.8652 12.4185 29.8652 12.4947C29.8652 12.9501 28.9298 13.0965 28.3113 12.7381C28.1006 12.6159 27.9326 12.5655 27.8706 12.6059C26.5933 13.4354 26.207 13.6652 25.7785 13.85L25.2664 14.0708L25.2596 16.0905L25.2529 18.1103L24.9959 17.6587C24.2174 16.2909 24.3304 14.7264 25.2737 13.8086L25.5726 13.5179L25.2886 13.6433C24.8425 13.8404 23.9237 14.6178 23.6119 15.0619C22.4349 16.7391 23.2207 19.2681 25.1815 20.1137C26.5892 20.7207 27.7982 20.5758 29.2219 19.6291C29.5514 19.41 30.01 19.1369 30.241 19.0222L30.6611 18.8136V17.5224C30.6611 16.3015 30.6716 16.2219 30.8531 16.0568C31.0866 15.8445 30.9987 15.7269 30.7501 15.919C30.5468 16.0762 30.5517 16.0786 29.7578 15.4366L29.3408 15.0994L28.4534 15.6833L27.5658 16.2672V15.0458V13.8243L27.7648 13.8757C27.8743 13.904 28.1321 13.9463 28.3378 13.9697C29.1392 14.061 30.1421 13.3706 30.1243 12.7399C30.1164 12.4635 30.0124 12.2305 29.9288 12.302ZM4.90727 13.6371L5.27942 13.961V14.6796C5.27942 15.4661 5.22069 15.5795 4.8137 15.5795C4.24566 15.5795 4.21816 15.5259 4.21816 14.4184C4.21816 13.1437 4.27122 13.0835 4.90727 13.6371ZM46.6591 13.6722C46.3866 13.8279 46.0178 14.0652 45.8397 14.1996L45.5158 14.4438L45.6942 14.5962C45.8135 14.6981 45.8725 14.8484 45.8725 15.0507C45.8725 15.3361 45.8577 15.3529 45.6072 15.3529C45.3478 15.3529 45.3418 15.3612 45.3418 15.7306C45.3418 16.0999 45.3478 16.1083 45.6072 16.1083H45.8725V17.5401C45.8725 18.4087 45.8347 19.0427 45.7765 19.1519C45.7237 19.2508 45.5645 19.3903 45.4228 19.4618C45.281 19.5334 45.165 19.641 45.165 19.701C45.165 19.8409 45.2093 19.8382 45.4892 19.6815C45.7188 19.553 45.7188 19.553 46.1347 19.9582C46.4357 20.2514 46.5853 20.3454 46.6758 20.2985C47.0303 20.1154 48.1608 19.2515 48.1199 19.1951C48.0939 19.1591 47.9921 19.1665 47.8936 19.2116C47.7951 19.2566 47.7047 19.2822 47.6928 19.2685C47.3834 18.9129 47.3759 18.8705 47.3759 17.4891V16.1083H47.7739H48.1719V15.7306V15.3529H47.7739H47.3759V14.3708C47.3759 13.6353 47.3481 13.3887 47.2654 13.3889C47.2046 13.3891 46.9318 13.5165 46.6591 13.6722ZM49.9406 13.7511C49.5758 13.9599 49.1781 14.2212 49.0568 14.3319C48.8539 14.5169 48.8486 14.5389 48.9904 14.6068C49.1011 14.6596 49.1447 14.7755 49.1447 15.0167C49.1447 15.3249 49.1263 15.3529 48.9236 15.3529C48.7145 15.3529 48.7025 15.3755 48.7025 15.7684V16.1839H48.9813H49.2602L49.2028 17.0337C49.1713 17.5012 49.1453 18.1811 49.1451 18.5447C49.1447 19.2444 49.1137 19.3061 48.614 19.6052C48.3374 19.7706 48.4482 19.8557 48.7851 19.7366C49.0424 19.6455 49.0628 19.6544 49.4808 20.0429L49.9115 20.443L50.6777 19.8917C51.0992 19.5885 51.4441 19.3102 51.4441 19.2731C51.4441 19.1818 51.2908 19.1875 51.223 19.2812C51.1278 19.4128 51.0217 19.3642 50.8322 19.1023C50.6639 18.8697 50.6481 18.7334 50.6481 17.5159V16.1839H51.0903H51.5325V15.8061V15.4284H51.0928H50.6531L50.6285 14.4L50.6039 13.3716L49.9406 13.7511ZM18.2272 13.7563C17.5237 14.1497 16.9538 14.5901 17.1428 14.5942C17.3236 14.5982 17.3954 14.7511 17.3954 15.1324C17.3954 15.3978 17.3725 15.4284 17.1743 15.4284C16.968 15.4284 16.9532 15.4536 16.9532 15.8061C16.9532 16.1587 16.968 16.1839 17.1743 16.1839H17.3954V17.6982C17.3954 19.1745 17.3904 19.2169 17.1934 19.3851C17.0824 19.48 16.9176 19.5929 16.8273 19.6361C16.7321 19.6816 16.6903 19.7522 16.7279 19.8042C16.7761 19.8708 16.8501 19.8616 17.016 19.7688C17.2365 19.6454 17.2452 19.6487 17.7104 20.0412L18.1814 20.4386L18.8126 19.9921C19.1598 19.7465 19.5002 19.5079 19.5693 19.4618C19.7111 19.367 19.7378 19.2057 19.6116 19.2057C19.5658 19.2057 19.5038 19.2397 19.4737 19.2812C19.377 19.4149 19.2542 19.3626 19.0748 19.1112C18.9175 18.8909 18.8995 18.7283 18.8992 17.5248L18.8989 16.1839H19.3411H19.7833V15.8061V15.4284H19.3411H18.8989V14.4463C18.8989 13.9062 18.8653 13.4642 18.8241 13.4642C18.783 13.4642 18.5144 13.5957 18.2272 13.7563ZM27.3679 16.6987L27.3447 19.6627L26.8679 19.4531C26.6056 19.3378 26.1718 19.0592 25.9039 18.8341C25.3457 18.365 25.296 18.4749 26.3586 17.8273L26.9467 17.469V15.5861C26.9467 14.5505 26.9722 13.6466 27.0032 13.5775C27.0548 13.4626 27.0742 13.4639 27.2254 13.5931C27.3825 13.7273 27.3898 13.8877 27.3679 16.6987ZM4.00609 18.5054C3.98539 18.5231 3.85574 18.4871 3.71787 18.4254L3.46723 18.3133L3.49403 16.1343L3.52083 13.9553L3.7589 13.7726L3.99707 13.59L4.02041 16.0316C4.03324 17.3745 4.02687 18.4878 4.00609 18.5054ZM16.1586 15.1073C16.1569 15.3297 15.8585 15.5795 15.5948 15.5795C15.4799 15.5795 15.2389 15.4942 15.0591 15.3899L14.732 15.2004L14.1708 15.5425C13.8621 15.7306 13.3471 15.9862 13.0262 16.1105L12.4429 16.3365V17.0377V17.7389L12.8303 18.0636L13.2176 18.3883L12.8349 18.6896C12.3917 19.0386 12.1286 19.544 12.2097 19.8905C12.2734 20.1623 12.5618 20.5337 12.7905 20.6382C12.9296 20.7019 12.9477 20.6778 12.9391 20.4405C12.9228 19.9919 13.3835 19.902 13.8393 20.2647L14.0383 20.4232L15.2305 19.8483L16.4226 19.2735V18.3772V17.481L15.9746 17.2L15.5265 16.9191L15.7932 16.6837C15.9399 16.5542 16.1216 16.3219 16.197 16.1674C16.35 15.8541 16.3774 15.2248 16.2457 15.0507C16.1764 14.959 16.1598 14.9699 16.1586 15.1073ZM33.9333 15.2779C33.5757 15.5122 33.262 15.5371 32.9091 15.3593C32.5284 15.1674 32.5183 15.1669 32.5183 15.3415C32.5183 15.5104 32.1108 16.0031 31.6352 16.4094C31.257 16.7325 31.2599 16.7449 31.7288 16.817C31.9027 16.8437 32.2336 16.9678 32.4641 17.0927L32.8833 17.3198L32.3304 17.6395C31.6913 18.009 31.4774 18.2316 31.364 18.6449C31.2614 19.0196 31.4023 19.6546 31.6473 19.9206C31.8543 20.1455 32.3399 20.3389 32.6978 20.3389C32.885 20.3389 33.0329 20.2483 33.3143 19.9611C33.5179 19.7534 33.7494 19.5834 33.8286 19.5834C33.908 19.5834 34.213 19.7868 34.5066 20.0353L35.0403 20.4872L35.6807 19.8536C36.0329 19.5052 36.3212 19.1829 36.3212 19.1374C36.3212 18.9999 36.1742 19.044 36.0311 19.2246L35.8963 19.3945L35.5781 19.1342L35.2599 18.8739V17.477C35.2599 16.1477 35.2692 16.0718 35.4519 15.9057C35.6975 15.6824 35.6106 15.6037 35.3063 15.774L35.0722 15.9051L34.6133 15.5191L34.1544 15.1331L33.9333 15.2779ZM9.55141 15.5402C9.08039 15.8113 8.24978 16.1896 7.82201 16.328L7.5788 16.4067V17.8308C7.5788 19.2474 7.57766 19.2558 7.36045 19.4301C7.08833 19.6485 7.15669 19.7763 7.45605 19.6087C7.67317 19.4872 7.68626 19.4915 8.09254 19.8186C8.32071 20.0023 8.63131 20.2474 8.78271 20.3633L9.05802 20.5739L10.3304 19.9722L11.6027 19.3704L11.6268 18.0077L11.6509 16.645L11.921 16.4807C12.2557 16.2772 12.1394 16.1027 11.7969 16.2945C11.5758 16.4182 11.5687 16.4149 10.8392 15.8482C10.4349 15.5342 10.0827 15.2773 10.0563 15.2773C10.03 15.2773 9.80284 15.3956 9.55141 15.5402ZM37.1333 16.0418C36.6914 16.7575 36.5849 17.115 36.9301 16.7241L37.0849 16.5489L37.7264 16.7153C38.3372 16.8738 38.675 16.8812 39.107 16.7455C39.2349 16.7053 39.1996 16.7662 38.9791 16.9658C38.7378 17.184 38.6077 17.2415 38.3552 17.2415C37.9744 17.2415 37.3195 17.5725 37.0422 17.9052C36.798 18.1981 36.7899 18.3327 37.0228 18.2262C37.1169 18.1832 37.3133 18.148 37.4591 18.148H37.7242L37.4286 18.5233C37.1523 18.874 37.027 19.2068 36.8845 19.9679L36.8261 20.2802L37.2 20.0488C37.87 19.6342 38.5517 19.6679 39.2952 20.1523L39.5813 20.3386L40.118 19.5798C40.6711 18.7977 40.7943 18.524 40.4677 18.803L40.2806 18.9628L39.7823 18.7666C39.1152 18.504 38.3435 18.4621 37.8909 18.6639C37.4991 18.8385 37.4845 18.8127 37.7849 18.4762C37.9645 18.275 38.0731 18.2236 38.3184 18.2236C38.961 18.2236 39.4674 17.8965 39.8709 17.221L40.0516 16.9185L39.7457 17.0801C39.5774 17.1688 39.3515 17.2415 39.2434 17.2415C39.0745 17.2415 39.121 17.1726 39.5759 16.7486C40.091 16.2683 40.6585 15.482 40.5542 15.393C40.5257 15.3686 40.3922 15.3844 40.2577 15.428C40.1232 15.4718 39.7297 15.5275 39.3832 15.5519C38.8739 15.5879 38.652 15.5658 38.2257 15.4369C37.9355 15.3491 37.6768 15.278 37.6508 15.2788C37.6248 15.2797 37.3919 15.6231 37.1333 16.0418ZM42.6887 15.8195C42.178 16.1103 41.6308 16.4025 41.4727 16.4689L41.1853 16.5895V17.9483C41.1853 19.1085 41.1638 19.3274 41.0384 19.4457C40.8407 19.6324 40.9619 19.7183 41.1823 19.5479C41.3528 19.4161 41.375 19.4263 42.0451 19.9414L42.7329 20.4702L43.75 19.7532C44.3093 19.3589 44.8599 18.9737 44.9734 18.8973C45.0869 18.8209 45.1537 18.7225 45.122 18.6785C45.0875 18.6309 44.8269 18.7669 44.4763 19.0154C44.153 19.2447 43.8618 19.4323 43.8293 19.4323C43.7968 19.4323 43.5468 19.2752 43.2737 19.0831C42.9466 18.853 42.7786 18.679 42.7815 18.5732C42.7845 18.4603 43.0545 18.2368 43.688 17.8226C44.1842 17.4982 44.6804 17.1693 44.7908 17.0917L44.9915 16.9506L44.3917 16.1388C44.0618 15.6924 43.7526 15.3189 43.7046 15.3089C43.6566 15.299 43.1994 15.5287 42.6887 15.8195ZM57.182 15.3909C56.8688 15.5363 56.6307 15.9801 56.699 16.2913C56.7284 16.4254 56.8741 16.6346 57.0226 16.7561C57.2462 16.9392 57.3673 16.9771 57.7272 16.9771C58.0975 16.9771 58.2035 16.9416 58.4424 16.7375C58.6728 16.5407 58.7245 16.4351 58.7315 16.1462C58.7393 15.8323 58.7047 15.7668 58.4099 15.536C58.0412 15.2473 57.6028 15.1955 57.182 15.3909ZM53.8761 15.7784C53.487 16.0075 52.9597 16.2976 52.7043 16.4232L52.24 16.6516V17.9804C52.24 19.2213 52.2279 19.3203 52.0565 19.4761C51.9555 19.5679 51.9104 19.6628 51.9562 19.687C52.002 19.7111 52.1095 19.6648 52.1951 19.5841C52.3474 19.4403 52.3655 19.4486 53.046 19.9735C53.5413 20.3556 53.7735 20.4893 53.8529 20.4384C53.9425 20.381 55.1389 19.5514 56.0764 18.8966C56.1881 18.8186 56.2147 18.7587 56.1521 18.7257C56.0991 18.6976 55.7943 18.8643 55.4747 19.0959C55.114 19.3573 54.8516 19.4958 54.7828 19.4611C54.479 19.3078 53.7435 18.7215 53.7435 18.6326C53.7435 18.5768 54.2409 18.2011 54.8489 17.7977C55.4569 17.3942 55.9544 17.0315 55.9544 16.9917C55.9544 16.8564 54.7861 15.3529 54.6845 15.3574C54.6291 15.3599 54.2652 15.5493 53.8761 15.7784ZM58.3201 15.6945C58.6602 16.0289 58.5401 16.5459 58.0743 16.7517C57.2417 17.1194 56.526 16.2128 57.1966 15.6399C57.4295 15.4411 57.5106 15.4159 57.7936 15.4543C57.989 15.4809 58.2014 15.5778 58.3201 15.6945ZM4.79301 15.7581C4.89029 15.7566 5.03948 15.7291 5.12465 15.6971C5.25704 15.6473 5.27942 15.6809 5.27942 15.9302V16.2216H4.74879H4.21816V15.9333C4.21816 15.6674 4.23364 15.6494 4.41715 15.7029C4.52654 15.7348 4.69573 15.7597 4.79301 15.7581ZM57.281 16.1419C57.281 16.5317 57.3092 16.6371 57.4136 16.6371C57.5036 16.6371 57.5474 16.5581 57.5499 16.3916L57.5534 16.1461L57.8134 16.4057C58.1013 16.6935 58.261 16.681 58.0366 16.3884C57.9056 16.2177 57.9055 16.1982 58.0354 16.1556C58.129 16.1249 58.1677 16.0384 58.1492 15.901C58.1235 15.7103 58.0859 15.6908 57.701 15.6698L57.281 15.6467V16.1419ZM57.9885 15.9194C57.9885 15.9899 57.905 16.0328 57.7674 16.0328C57.6298 16.0328 57.5463 15.9899 57.5463 15.9194C57.5463 15.849 57.6298 15.8061 57.7674 15.8061C57.905 15.8061 57.9885 15.849 57.9885 15.9194ZM33.3763 16.2783C33.693 16.5753 33.7565 16.7631 33.7565 17.4024V18.0266L33.5038 17.6862C33.2211 17.3053 32.6657 16.8811 32.3636 16.8153C32.175 16.7741 32.182 16.7609 32.4962 16.566C32.6786 16.4528 32.8825 16.3034 32.9492 16.2342C33.1079 16.0697 33.1595 16.075 33.3763 16.2783ZM43.2111 16.8131C43.4588 17.1799 43.6606 17.5029 43.6597 17.5308C43.658 17.5759 43.1134 17.9357 42.8053 18.0952C42.711 18.144 42.6887 17.9575 42.6887 17.1193C42.6887 16.5494 42.7049 16.0973 42.7247 16.1146C42.7445 16.132 42.9634 16.4462 43.2111 16.8131ZM10.1435 18.3695V19.7671L9.6571 19.3568L9.17069 18.9464V17.5488V16.1512L9.6571 16.5616L10.1435 16.9719V18.3695ZM14.946 16.5601L15.4056 16.5997L15.0518 16.902C14.3572 17.4955 14.3253 17.511 14.1232 17.3548C13.979 17.2433 13.9463 17.1221 13.9463 16.6987V16.1793L14.2163 16.3498C14.3802 16.4534 14.6669 16.536 14.946 16.5601ZM28.6087 16.5078C28.926 16.784 28.9808 16.8782 28.9808 17.1473C28.9808 17.3819 28.9369 17.4829 28.8098 17.541C28.5634 17.6537 28.1284 17.6373 27.8267 17.5039C27.5842 17.3968 27.5658 17.3584 27.5658 16.9591C27.5658 16.5821 27.5955 16.5087 27.809 16.3594C27.9427 16.2658 28.0937 16.1881 28.1444 16.1866C28.195 16.1851 28.4039 16.3297 28.6087 16.5078ZM54.5895 17.4039C54.7086 17.599 54.6994 17.612 54.2276 17.9163L53.7435 18.2285V17.1885V16.1485L54.1054 16.6761C54.3045 16.9663 54.5223 17.2938 54.5895 17.4039ZM5.14048 16.4536C5.29365 16.5845 5.32647 17.4315 5.22246 18.5719L5.16666 19.1847L4.69581 18.9119L4.22488 18.6391L4.22152 17.5663C4.2186 16.6225 4.23673 16.4843 4.37293 16.4165C4.60472 16.3013 4.98341 16.3195 5.14048 16.4536ZM19.7833 17.2058V17.85L21.0435 17.829L22.3037 17.8081L22.3294 17.1848L22.3551 16.5616H21.0691H19.7833V17.2058ZM33.5719 18.3215C33.6616 18.5002 33.7631 18.7892 33.7977 18.9636C33.88 19.38 33.7145 19.4387 33.1933 19.1777C32.5357 18.8486 32.3217 18.1326 32.7507 17.6971L32.983 17.4613L33.1959 17.729C33.313 17.8762 33.4822 18.1428 33.5719 18.3215ZM28.4626 17.7549L28.9808 17.7229V18.0161C28.9808 18.259 28.9543 18.303 28.826 18.2725C28.741 18.2521 28.5861 18.2147 28.4819 18.1894C28.3778 18.1639 28.1291 18.1912 27.9292 18.25L27.5658 18.357V17.9855C27.5658 17.6292 27.5736 17.6175 27.7551 17.7004C27.863 17.7498 28.1671 17.7732 28.4626 17.7549ZM14.7802 17.889C14.8867 17.9799 14.9192 18.1725 14.9192 18.7126V19.4174L14.6581 19.2091C14.3009 18.924 13.7204 18.7915 13.2741 18.8931C12.9307 18.9713 12.9323 18.9692 13.6641 18.371C14.0684 18.0406 14.4535 17.7703 14.5201 17.7703C14.5867 17.7703 14.7037 17.8237 14.7802 17.889ZM28.8191 18.4997C29.0355 18.667 29.0496 19.4405 28.8389 19.59C28.7609 19.6453 28.4425 19.7044 28.1314 19.7213L27.5658 19.7521V19.181C27.5658 18.6765 27.5887 18.5962 27.7624 18.4923C28.0222 18.3368 28.6138 18.341 28.8191 18.4997Z" fill="#B9B9B9" fill-opacity="0.7"/>
</g>
</svg>
