<svg width="176" height="33" viewBox="0 0 176 33" fill="none" xmlns="http://www.w3.org/2000/svg">
<g id="benzinga-vector-logo" clip-path="url(#clip0_791_32460)">
<path id="Vector" d="M26.037 29.873H42.7583V24.717H31.0883V18.4078H40.7553V13.2519H31.0883V7.41762H42.8164V2.26172H26.037V29.873ZM62.8762 19.629L51.9318 2.26172H44.384L46.7355 5.75552V29.9408H51.7867V11.8273L63.1084 29.873H67.9274V2.26172H62.8762V19.629ZM18.4021 15.6603C20.6084 15.1515 22.4663 12.7431 22.4663 9.35109C22.4373 5.68769 20.173 2.26172 15.6153 2.26172H0.955078L3.21942 5.65376V29.873H16.1088C20.6665 29.873 23.0179 26.5487 23.0179 22.3765C22.9599 18.9845 20.9568 16.0673 18.4021 15.6603ZM8.29968 7.45155H14.6282C16.341 7.45155 17.4151 8.60484 17.4151 10.3687C17.4151 12.0986 16.341 13.2859 14.6282 13.2859H8.29968V7.45155ZM14.8605 24.751H8.32871V18.4078H14.8605C16.7765 18.4078 17.8506 19.8325 17.8506 21.5624C17.8506 23.5638 16.7184 24.717 14.8605 24.751ZM141.867 19.629H144.509V22.8853C143.144 24.2082 141.431 24.9206 139.661 24.9545C135.451 24.9545 132.461 21.2232 132.461 16.1352C132.461 11.081 135.451 7.31587 139.661 7.31587C141.867 7.34979 143.899 8.63876 145.06 10.8097L149.037 8.23172C147.325 5.07712 144.334 2.26172 139.574 2.26172C132.897 2.26172 127.323 7.65507 127.323 16.0673C127.323 24.4796 132.81 29.873 139.574 29.873C143.26 29.9408 146.802 28.1091 149.241 24.8866V14.6766H138.47L141.867 19.629ZM119.107 19.629L108.134 2.26172H100.586L102.938 5.75552V29.9408H107.989V11.8273L119.311 29.873H124.159V2.26172H119.107V19.629ZM165.991 2.26172H156.237L158.588 5.75552L158.153 7.07842L150.605 29.9408H156.295L157.775 25.2937H167.965L169.445 29.9408H175.135L165.991 2.26172ZM159.111 20.07L162.798 8.16388L166.484 20.07H159.111ZM92.632 2.26172H97.6832V29.9408H92.632V2.26172ZM88.5678 7.01058V2.26172H70.7723V7.41762H81.9489L70.7723 25.1241V29.873H88.771V24.717H77.3041L88.5678 7.01058Z" fill="#B9B9B9" fill-opacity="0.7"/>
</g>
<defs>
<clipPath id="clip0_791_32460">
<rect width="174.247" height="31.2329" fill="white" transform="translate(0.876953 0.808594)"/>
</clipPath>
</defs>
</svg>
