<svg width="96" height="63" viewBox="0 0 96 63" fill="none" xmlns="http://www.w3.org/2000/svg">
<g id="Group 2609125">
<path id="Subtract" fill-rule="evenodd" clip-rule="evenodd" d="M14.5427 14.9512H0.774414V49.591H14.5427C24.1082 49.591 31.8626 41.8366 31.8626 32.2711C31.8626 22.7056 24.1082 14.9512 14.5427 14.9512ZM11.3207 21.1971H9.30908V42.776H11.3207C17.2795 42.776 22.1101 37.9454 22.1101 31.9866C22.1101 26.0277 17.2795 21.1971 11.3207 21.1971Z" fill="#B9B9B9" fill-opacity="0.7"/>
<path id="Subtract_2" fill-rule="evenodd" clip-rule="evenodd" d="M50.0881 14.9531H34.9082V49.5929H44.6614V38.2356H50.0881C56.5174 38.2356 61.7294 33.0237 61.7294 26.5944C61.7294 20.1651 56.5174 14.9531 50.0881 14.9531ZM47.1492 21.1991H43.4421V30.8528H47.1492C49.815 30.8528 51.9761 28.6918 51.9761 26.026C51.9761 23.3602 49.815 21.1991 47.1492 21.1991Z" fill="#B9B9B9" fill-opacity="0.7"/>
<path id="Rectangle 3567" d="M64.7822 12.6825H72.0971L88.5555 45.0508V0.189453H95.2608V58.9636H88.5555L72.0971 28.0149V51.8652H64.7822V12.6825Z" fill="#B9B9B9" fill-opacity="0.7"/>
<path id="Subtract_3" fill-rule="evenodd" clip-rule="evenodd" d="M72.0602 54.709H0.740234V62.6591H72.0602V54.709ZM11.7868 58.6514V59.1629H12.5403V59.548C12.441 59.6198 12.3217 59.6812 12.1824 59.7323C12.0446 59.782 11.9068 59.8069 11.769 59.8069C11.4904 59.8069 11.2651 59.7171 11.0932 59.5377C10.9213 59.3568 10.8354 59.0863 10.8354 58.7259C10.8354 58.3919 10.9199 58.1399 11.0888 57.9701C11.2592 57.8003 11.4882 57.7154 11.7756 57.7154C11.9653 57.7154 12.1231 57.7589 12.2491 57.8459C12.3765 57.9315 12.4632 58.0488 12.5092 58.1979L13.1627 58.084C13.0975 57.8052 12.9508 57.587 12.7226 57.4297C12.4958 57.2709 12.1802 57.1915 11.7756 57.1915C11.4644 57.1915 11.2044 57.2419 10.9954 57.3427C10.7213 57.4738 10.5131 57.6623 10.3708 57.908C10.2286 58.1537 10.1574 58.4347 10.1574 58.7508C10.1574 59.0421 10.2211 59.312 10.3486 59.5605C10.476 59.8076 10.6665 59.9981 10.9199 60.132C11.1733 60.2645 11.4704 60.3308 11.8112 60.3308C12.0794 60.3308 12.3439 60.2838 12.6048 60.19C12.867 60.0947 13.0671 59.985 13.2049 59.8607V58.6514H11.7868ZM5.30713 57.2433H6.50968C6.78086 57.2433 6.98758 57.2626 7.12984 57.3013C7.32101 57.3537 7.48475 57.4469 7.62109 57.5808C7.75742 57.7147 7.86115 57.879 7.93228 58.0737C8.00341 58.2669 8.03898 58.5058 8.03898 58.7901C8.03898 59.04 8.00563 59.2554 7.93895 59.4362C7.85745 59.6571 7.74112 59.8359 7.58997 59.9725C7.47586 60.0761 7.32175 60.1568 7.12762 60.2148C6.9824 60.2576 6.78827 60.279 6.54524 60.279H5.30713V57.2433ZM5.96508 57.7568V59.7675H6.45633C6.64008 59.7675 6.77271 59.7579 6.85421 59.7385C6.96091 59.7137 7.04908 59.6716 7.11873 59.6122C7.18986 59.5529 7.24765 59.4555 7.29211 59.3202C7.33657 59.1836 7.35879 58.9979 7.35879 58.7632C7.35879 58.5285 7.33657 58.3484 7.29211 58.2228C7.24765 58.0971 7.18541 57.9991 7.10539 57.9287C7.02537 57.8583 6.92386 57.8107 6.80087 57.7858C6.70899 57.7665 6.52894 57.7568 6.26072 57.7568H5.96508ZM8.78145 60.279V57.2433H9.4394V60.279H8.78145ZM13.9963 60.279V57.2433H14.6542V60.279H13.9963ZM16.2192 57.7568V60.279H16.8771V57.7568H17.8418V57.2433H15.2522V57.7568H16.2192ZM21.0716 60.279H20.3559L20.0714 59.5894H18.7688L18.4998 60.279H17.8019L19.0711 57.2433H19.7668L21.0716 60.279ZM19.8602 59.078L19.4112 57.9515L18.9711 59.078H19.8602ZM21.6429 57.2681V60.279H23.9369V59.7675H22.3009V57.2681H21.6429ZM25.9953 60.279V57.2433H27.0512C27.4513 57.2433 27.7121 57.2585 27.8336 57.2889C28.0203 57.3344 28.1767 57.4338 28.3026 57.587C28.4286 57.7389 28.4916 57.9356 28.4916 58.1772C28.4916 58.3636 28.4552 58.5203 28.3826 58.6473C28.31 58.7743 28.2174 58.8743 28.1048 58.9475C27.9936 59.0193 27.8803 59.0669 27.7647 59.0904C27.6076 59.1194 27.3801 59.1339 27.0823 59.1339H26.6533V60.279H25.9953ZM26.6533 57.7568V58.6183H27.0134C27.2727 58.6183 27.4461 58.6024 27.5335 58.5706C27.621 58.5389 27.6891 58.4892 27.738 58.4215C27.7884 58.3539 27.8136 58.2752 27.8136 58.1855C27.8136 58.075 27.7788 57.9839 27.7091 57.9121C27.6395 57.8404 27.5513 57.7955 27.4446 57.7775C27.3661 57.7637 27.2082 57.7568 26.9711 57.7568H26.6533ZM29.2362 57.2433V60.279H29.8942V59.0117H30.0276C30.1787 59.0117 30.2891 59.0234 30.3588 59.0469C30.4284 59.069 30.4944 59.1111 30.5566 59.1732C30.6188 59.234 30.7344 59.3824 30.9034 59.6184L31.379 60.279H32.1659L31.768 59.6868C31.611 59.4507 31.4857 59.2864 31.3924 59.1939C31.3005 59.1014 31.1834 59.0165 31.0412 58.9392C31.3272 58.9006 31.5421 58.8074 31.6858 58.6597C31.8295 58.5106 31.9014 58.3222 31.9014 58.0944C31.9014 57.9149 31.854 57.7555 31.7592 57.616C31.6643 57.4766 31.5376 57.38 31.379 57.3261C31.222 57.2709 30.9693 57.2433 30.6211 57.2433H29.2362ZM30.381 58.5272H29.8942V57.7568H30.4077C30.6744 57.7568 30.8345 57.7603 30.8878 57.7672C30.9945 57.7838 31.0767 57.8238 31.1345 57.8873C31.1938 57.9494 31.2235 58.0316 31.2235 58.1337C31.2235 58.2248 31.2012 58.3008 31.1568 58.3615C31.1123 58.4222 31.0508 58.465 30.9723 58.4899C30.8937 58.5147 30.6966 58.5272 30.381 58.5272ZM32.7261 60.279V57.2433H35.1423V57.7568H33.3841V58.4298H35.0201V58.9413H33.3841V59.7675H35.2046V60.279H32.7261ZM36.4383 59.2333L35.7981 59.2913C35.8411 59.6309 35.973 59.8897 36.1938 60.0678C36.4146 60.2445 36.731 60.3328 37.1429 60.3328C37.426 60.3328 37.6623 60.2963 37.852 60.2231C38.0417 60.1485 38.1884 60.0353 38.2921 59.8835C38.3959 59.7316 38.4477 59.5687 38.4477 59.3948C38.4477 59.2029 38.404 59.0421 38.3166 58.9123C38.2306 58.7812 38.1106 58.6783 37.9565 58.6038C37.8038 58.5278 37.5675 58.4547 37.2474 58.3843C36.9273 58.3139 36.7258 58.2462 36.6428 58.1813C36.5776 58.1303 36.545 58.0688 36.545 57.997C36.545 57.9184 36.5798 57.8555 36.6495 57.8086C36.7576 57.7354 36.9073 57.6989 37.0985 57.6989C37.2837 57.6989 37.4223 57.7334 37.5141 57.8024C37.6075 57.87 37.6683 57.9819 37.6964 58.1379L38.3544 58.1109C38.344 57.8321 38.2351 57.6091 38.0276 57.4421C37.8216 57.275 37.5141 57.1915 37.1051 57.1915C36.8547 57.1915 36.6406 57.2267 36.4627 57.2971C36.2864 57.3675 36.1508 57.4704 36.056 57.6057C35.9626 57.7396 35.9159 57.8838 35.9159 58.0385C35.9159 58.2787 36.016 58.4823 36.216 58.6493C36.3583 58.768 36.6057 58.8681 36.9584 58.9496C37.2326 59.0131 37.4082 59.0573 37.4852 59.0821C37.5979 59.1194 37.6764 59.1636 37.7209 59.2146C37.7668 59.2643 37.7898 59.3251 37.7898 59.3969C37.7898 59.5087 37.7357 59.6067 37.6275 59.6909C37.5208 59.7737 37.3615 59.8152 37.1496 59.8152C36.9495 59.8152 36.7902 59.7682 36.6717 59.6743C36.5546 59.5805 36.4768 59.4334 36.4383 59.2333ZM39.0368 59.2913L39.677 59.2333C39.7155 59.4334 39.7933 59.5805 39.9104 59.6743C40.0289 59.7682 40.1882 59.8152 40.3883 59.8152C40.6002 59.8152 40.7595 59.7737 40.8662 59.6909C40.9744 59.6067 41.0285 59.5087 41.0285 59.3969C41.0285 59.3251 41.0055 59.2643 40.9596 59.2146C40.9151 59.1636 40.8366 59.1194 40.7239 59.0821C40.6469 59.0573 40.4713 59.0131 40.1971 58.9496C39.8444 58.8681 39.597 58.768 39.4547 58.6493C39.2547 58.4823 39.1546 58.2787 39.1546 58.0385C39.1546 57.8838 39.2013 57.7396 39.2947 57.6057C39.3895 57.4704 39.5251 57.3675 39.7014 57.2971C39.8793 57.2267 40.0934 57.1915 40.3438 57.1915C40.7528 57.1915 41.0603 57.275 41.2663 57.4421C41.4738 57.6091 41.5827 57.8321 41.5931 58.1109L40.9351 58.1379C40.907 57.9819 40.8462 57.87 40.7528 57.8024C40.661 57.7334 40.5224 57.6989 40.3372 57.6989C40.146 57.6989 39.9963 57.7354 39.8882 57.8086C39.8185 57.8555 39.7837 57.9184 39.7837 57.997C39.7837 58.0688 39.8163 58.1303 39.8815 58.1813C39.9645 58.2462 40.166 58.3139 40.4861 58.3843C40.8062 58.4547 41.0425 58.5278 41.1952 58.6038C41.3493 58.6783 41.4693 58.7812 41.5553 58.9123C41.6427 59.0421 41.6864 59.2029 41.6864 59.3948C41.6864 59.5687 41.6346 59.7316 41.5308 59.8835C41.4271 60.0353 41.2804 60.1485 41.0907 60.2231C40.901 60.2963 40.6647 60.3328 40.3816 60.3328C39.9697 60.3328 39.6533 60.2445 39.4325 60.0678C39.2117 59.8897 39.0798 59.6309 39.0368 59.2913ZM43.9182 57.2433V60.279H44.5295V58.2994L45.8432 60.279H46.5034V57.2433H45.8921V59.2705L44.5584 57.2433H43.9182ZM47.4037 60.279V57.2433H49.8199V57.7568H48.0616V58.4298H49.6976V58.9413H48.0616V59.7675H49.8821V60.279H47.4037ZM51.3759 57.7568V60.279H52.0339V57.7568H52.9986V57.2433H50.409V57.7568H51.3759ZM54.09 60.279L53.312 57.2433H53.9855L54.4768 59.3285L55.0725 57.2433H55.8549L56.4262 59.3637L56.9263 57.2433H57.5887L56.7974 60.279H56.0994L55.4504 58.0095L54.8035 60.279H54.09ZM58.1445 58.0012C58.0452 58.211 57.9956 58.4706 57.9956 58.7798C57.9956 59.263 58.1386 59.6426 58.4246 59.9187C58.7106 60.1934 59.0959 60.3308 59.5804 60.3308C60.0591 60.3308 60.4414 60.1927 60.7274 59.9166C61.0134 59.6391 61.1564 59.2554 61.1564 58.7653C61.1564 58.2711 61.0119 57.8852 60.723 57.6077C60.4355 57.3303 60.0517 57.1915 59.5715 57.1915C59.3063 57.1915 59.0721 57.2316 58.8691 57.3116C58.7165 57.371 58.5757 57.4621 58.4468 57.585C58.3194 57.7078 58.2186 57.8466 58.1445 58.0012ZM58.9291 59.5418C58.7587 59.3637 58.6735 59.1028 58.6735 58.7591C58.6735 58.4098 58.7565 58.1489 58.9225 57.9763C59.0884 57.8024 59.307 57.7154 59.5782 57.7154C59.8494 57.7154 60.0665 57.801 60.2295 57.9722C60.394 58.1434 60.4762 58.4029 60.4762 58.7508C60.4762 59.1028 60.3918 59.3672 60.2228 59.5439C60.0554 59.7192 59.8405 59.8069 59.5782 59.8069C59.3159 59.8069 59.0996 59.7185 58.9291 59.5418ZM61.8767 60.279V57.2433H63.2615C63.6097 57.2433 63.8624 57.2709 64.0195 57.3261C64.178 57.38 64.3047 57.4766 64.3996 57.616C64.4944 57.7555 64.5418 57.9149 64.5418 58.0944C64.5418 58.3222 64.47 58.5106 64.3262 58.6597C64.1825 58.8074 63.9676 58.9006 63.6816 58.9392C63.8238 59.0165 63.9409 59.1014 64.0328 59.1939C64.1262 59.2864 64.2514 59.4507 64.4085 59.6868L64.8063 60.279H64.0195L63.5438 59.6184C63.3748 59.3824 63.2593 59.234 63.197 59.1732C63.1348 59.1111 63.0688 59.069 62.9992 59.0469C62.9295 59.0234 62.8191 59.0117 62.668 59.0117H62.5346V60.279H61.8767ZM62.5346 58.5272H63.0214C63.3371 58.5272 63.5341 58.5147 63.6127 58.4899C63.6912 58.465 63.7527 58.4222 63.7972 58.3615C63.8416 58.3008 63.8639 58.2248 63.8639 58.1337C63.8639 58.0316 63.8342 57.9494 63.7749 57.8873C63.7172 57.8238 63.6349 57.7838 63.5282 57.7672C63.4749 57.7603 63.3148 57.7568 63.0481 57.7568H62.5346V58.5272ZM65.3754 57.2433V60.279H66.0334V59.3617L66.5669 58.8543L67.4627 60.279H68.314L67.0203 58.4257L68.2473 57.2433H67.3626L66.0334 58.5913V57.2433H65.3754Z" fill="#B9B9B9" fill-opacity="0.7"/>
</g>
</svg>
