<svg width="59" height="15" viewBox="0 0 59 15" fill="none" xmlns="http://www.w3.org/2000/svg">
<g id="Group 2686">
<path id="Vector" d="M14.31 6.28159L14.2155 7.09781H14.199C14.0727 6.62352 13.7113 5.99205 12.9403 5.99205C11.6815 5.99205 10.4068 7.62449 10.1239 10.1789C9.87238 12.417 10.5331 14.3923 12.0121 14.3923C12.5629 14.3923 13.1929 14.0247 13.507 13.2599H13.5235L13.429 14.1028H14.813L15.6786 6.25493H14.31V6.28159ZM13.8695 10.1789C13.775 10.9418 13.3505 12.2066 12.469 12.2066C11.6194 12.2066 11.4464 10.9427 11.5244 10.2303C11.6189 9.33507 12.1066 8.20265 12.9084 8.20265C13.6954 8.20265 13.9629 9.25602 13.8684 10.1789H13.8695ZM16.4815 6.28159H17.7875L17.6931 7.09781H17.7096C17.8826 6.73014 18.1973 5.99205 19.0156 5.99205L18.764 8.36351C18.1033 8.39108 17.6107 8.60065 17.5053 9.81212L17.0176 14.1322H15.5896L16.4815 6.28159ZM19.9591 3.20054H21.3761L20.7154 9.1255H20.7467L22.3668 6.28159H24.0188L21.8632 9.73123L23.1061 14.1295H21.5167L20.6039 10.337H20.5929L20.1678 14.1295H18.7673L19.9591 3.20054ZM26.275 5.99205C24.858 5.99205 23.5839 8.0464 23.3477 10.2322C23.0962 12.5485 24.0243 14.3933 25.3776 14.3933C25.881 14.3894 26.373 14.1423 26.7945 13.6818C27.235 13.2342 27.6442 12.5494 27.9753 11.6808H26.5435C26.3074 12.1018 26.0399 12.418 25.5989 12.418C25.0481 12.418 24.6543 11.8646 24.6653 10.9436H28.1802C28.2274 10.7598 28.2433 10.6274 28.2746 10.337C28.5421 7.91403 27.709 5.99205 26.2755 5.99205H26.275ZM24.858 9.33782C24.9679 8.86353 25.3457 7.99584 26.0855 7.99584C26.8094 7.99584 26.9983 8.86445 26.9983 9.33782H24.858ZM8.04792 14.1295H9.4484V3.19135H8.25223L5.76597 9.40492H5.74949V3.19135H4.55387L0.164062 14.1295H1.86331L4.33364 7.91587H4.35011V14.1295H5.56166L8.01662 7.91587H8.04792V14.1295ZM31.8395 6.28159H30.9586L31.2101 3.96528H29.9827L29.8882 4.86056C29.7784 5.88727 29.4005 6.20254 28.881 6.28251H28.8645L28.6448 8.04731H29.3368L28.6602 14.1138H30.0607L30.7373 8.04731H31.6341L31.8395 6.28159Z" fill="#B9B9B9" fill-opacity="0.7"/>
<path id="Vector_2" d="M53.5754 11.1805C53.1193 12.9426 52.0172 14.3681 50.7578 14.3681C49.3402 14.3681 48.4435 12.5283 48.7111 10.2217C48.9628 7.94227 50.2386 6.10153 51.6551 6.10153C52.8985 6.10153 53.743 7.47462 53.7649 9.35788H52.3474C52.2529 8.81334 52.0485 8.26971 51.4501 8.26971C50.7891 8.21815 50.238 9.1245 50.1122 10.2145C49.9858 11.3289 50.332 12.1837 51.0095 12.1837C51.5919 12.1837 51.9435 11.6391 52.143 11.1471H53.5754V11.1805ZM41.9271 0.606445L39.204 3.35354H39.9755L37.504 9.46823H37.4727V3.35354H36.2601L33.7876 9.46914H33.7711V3.35444H32.3535V14.1185H33.5815L36.0529 8.00378H36.0694V14.1185H37.2815L41.6579 3.35444H42.3502L41.9271 0.606445ZM44.6029 14.1085H43.2183L43.3128 13.2791H43.2963C42.9656 14.0298 42.3513 14.3935 41.8007 14.3935C40.3051 14.3935 39.6601 12.4487 39.9117 10.247C40.1952 7.73241 41.4859 6.12686 42.7293 6.12686C43.5007 6.12686 43.8628 6.74918 43.9886 7.21502H44.0051L44.0996 6.41179H45.4842L44.6029 14.1085ZM42.2414 12.218C43.1073 12.218 43.548 10.9743 43.6425 10.2226C43.737 9.29094 43.4694 8.27785 42.682 8.27785C41.8798 8.27785 41.3908 9.39225 41.2974 10.2733C41.2029 10.9987 41.3919 12.218 42.2425 12.218H42.2414ZM48.9941 6.38736H48.1128L48.3644 4.10792H47.1364L47.0419 4.98895C46.932 5.99932 46.554 6.30957 46.0342 6.38827H46.0177L45.8133 8.12499H46.5056L45.8287 14.095H47.2298L47.9067 8.12499H48.804L48.9941 6.38736ZM54.8974 3.35535H56.2985L55.8732 7.1906H55.8897C56.1886 6.46516 56.5984 6.10243 57.2122 6.10243C57.6528 6.10243 58.1572 6.38736 58.3935 6.95722C58.6924 7.70799 58.6611 8.38278 58.5034 9.7821L58.0155 14.0841H56.6144L57.0869 9.88703C57.1342 9.52522 57.26 8.25434 56.521 8.25434C55.7336 8.25434 55.6078 9.42119 55.5605 9.81015L55.0726 14.0859H53.688L54.8974 3.35535Z" fill="#B9B9B9" fill-opacity="0.7"/>
</g>
</svg>
