<svg width="176" height="67" viewBox="0 0 176 67" fill="none" xmlns="http://www.w3.org/2000/svg">
<g id="Group 2609126">
<path id="pittsburgh-post-gazette-logo 1 (Traced)" fill-rule="evenodd" clip-rule="evenodd" d="M27.6553 2.33385C27.6553 4.01304 27.6124 4.14793 26.9304 4.60618L26.2057 5.09325L26.0251 4.18936C25.5823 1.97356 24.27 1.00077 21.724 1.00077C19.3138 1.00077 18.2067 1.69433 17.7717 3.47621L17.5793 4.26435L18.348 3.64509C19.2316 2.93329 19.5461 2.88645 20.1236 3.3796C20.459 3.66626 20.5378 4.30871 20.5378 6.75735C20.5378 8.93689 20.4505 9.78133 20.2257 9.78133C19.4986 9.78133 17.7237 10.7226 17.3027 11.3313C16.6173 12.3223 16.7054 13.734 17.4944 14.4077C18.4046 15.1855 18.9856 15.1427 18.7911 14.3122C18.6269 13.6108 18.7157 13.5225 19.8128 13.2985L20.5378 13.1505L20.5283 16.0259L20.5188 18.9012L19.1543 19.6894C16.1054 21.4505 15.7543 23.4855 18.1637 25.4315L19.0001 26.1071L18.8222 25.2863C18.605 24.2845 18.969 23.6398 20.0127 23.1788L20.7903 22.8354L20.8618 27.2053L20.9332 31.5754L24.4387 29.4083C27.7444 27.3645 27.9036 27.2319 27.2291 27.0776C26.2569 26.8556 26.0823 26.5467 26.0776 25.0375C26.0731 23.6028 26.3344 23.4342 27.4255 24.1674L28.0576 24.5921L32.1402 22.1932L36.2227 19.7943L36.2923 12.2845L36.3617 4.77461L37.0173 4.33438C37.8666 3.76354 37.8711 3.31317 37.0228 3.78809C36.6656 3.98805 36.243 4.15176 36.0843 4.15176C35.9254 4.15176 34.8382 3.44423 33.6686 2.5793L31.5418 1.00685L30.06 2.16519L28.578 3.32376L28.4994 1.93618C28.4411 0.904167 28.3231 0.548828 28.0381 0.548828C27.7357 0.548828 27.6553 0.923307 27.6553 2.33385ZM87.2318 3.44265C86.1444 4.04344 84.9766 4.79465 84.6368 5.11216L84.0189 5.68953L84.5709 5.94196C85.1144 6.19034 85.1229 6.31036 85.1252 13.8988L85.1276 21.6034L84.2685 22.2087C83.6596 22.6379 83.4911 22.8845 83.6896 23.0561C83.8889 23.2284 84.1496 23.1349 84.5925 22.7323C84.9346 22.4211 85.3232 22.1664 85.4555 22.1664C85.5879 22.1664 86.6476 22.914 87.8101 23.8278L89.9238 25.4892L92.0706 24.1719C93.2514 23.4472 94.959 22.5413 95.8651 22.1585L97.5127 21.4627V17.3457C97.5127 13.5149 97.5493 13.2005 98.0399 12.8213C98.3299 12.5972 98.5671 12.2597 98.5671 12.0717C98.5671 11.808 98.4271 11.842 97.9571 12.2192C97.6215 12.4885 97.2359 12.7065 97.1004 12.7035C96.9646 12.7008 95.9297 11.9915 94.8006 11.1272C93.6713 10.2632 92.663 9.55818 92.5599 9.56065C92.4566 9.56313 91.8445 10.0191 91.1994 10.574C90.5543 11.1288 89.9262 11.5828 89.8036 11.5828C89.681 11.5828 89.6633 9.50548 89.7646 6.96654C89.9196 3.08011 89.8903 2.35029 89.5787 2.35029C89.3752 2.35029 88.3192 2.84187 87.2318 3.44265ZM148.495 3.73427C146.159 5.22295 145.227 5.96403 145.227 6.3331C145.227 6.49569 145.404 6.62877 145.622 6.62877C145.966 6.62877 146.017 7.63579 146.017 14.3413V22.0538L145.095 22.6827C143.973 23.4475 143.769 24.2041 144.847 23.6004C145.516 23.2257 145.535 23.2326 146.89 24.3691L148.258 25.516L150.69 23.9242C152.029 23.0484 153.061 22.2463 152.985 22.1414C152.909 22.0362 152.615 22.0743 152.331 22.2256C151.95 22.429 151.695 22.4362 151.355 22.2531C150.949 22.0349 150.885 21.5258 150.822 17.9998C150.759 14.4877 150.805 13.9423 151.199 13.5705C151.635 13.1593 151.678 13.1719 152.67 13.9974L153.692 14.8479L153.608 20.2523C153.512 26.4302 153.369 26.9635 151.479 28.2312L150.367 28.9766L151.849 28.8559C154.338 28.6532 156.383 27.5661 157.444 25.8819C157.975 25.0395 158.017 24.6128 158.094 19.2913L158.176 13.6013L158.819 13.2417C159.172 13.044 159.462 12.7925 159.462 12.6828C159.462 12.3574 158.881 12.4554 158.342 12.8715C157.861 13.2437 157.801 13.2187 156.872 12.2559C156.339 11.7039 155.606 10.9671 155.244 10.6186L154.585 9.98512L152.674 11.4776L150.762 12.9704V7.77292C150.762 4.91423 150.661 2.57547 150.538 2.57547C150.415 2.57547 149.495 3.097 148.495 3.73427ZM31.3459 8.13142C31.3459 10.229 31.2963 10.4636 30.8058 10.6879C30.4119 10.8681 30.0194 10.8656 29.3559 10.6785L28.4462 10.422V7.30567C28.4462 5.01826 28.5339 4.16144 28.7757 4.08488C28.957 4.02745 29.6092 4.39473 30.2255 4.90117L31.3459 5.82171V8.13142ZM41.4209 5.3405L39.7804 6.75442L41.2967 8.024L42.813 9.29358L44.4973 7.97942L46.1815 6.66525L44.7872 5.29591C44.0204 4.54267 43.3184 3.92657 43.2272 3.92657C43.136 3.92657 42.3232 4.56294 41.4209 5.3405ZM53.8705 5.08109C53.1535 5.4684 51.9899 6.19664 51.285 6.69948C50.1006 7.54436 50.0458 7.62678 50.5601 7.78936C51.0256 7.93663 51.1168 8.15101 51.1168 9.09858C51.1168 10.1572 51.0733 10.2317 50.4578 10.2317C49.8428 10.2317 49.7988 10.3067 49.7988 11.3576C49.7988 12.4669 49.8109 12.4835 50.617 12.4835H51.4355L51.342 17.0057L51.2486 21.5276L50.1101 22.3569C48.9365 23.2117 48.8603 23.7994 50.0065 23.1581C50.6371 22.805 50.6832 22.8237 52.055 23.9809L53.4582 25.1647L55.8516 23.5123C57.4093 22.4366 58.1548 21.7831 57.9871 21.6399C57.8195 21.4967 57.5875 21.5206 57.3228 21.7081C57.0133 21.9275 56.8285 21.9342 56.5494 21.7361C55.7382 21.1612 55.5848 20.2467 55.6576 16.4202L55.7301 12.5961L56.9822 12.5274L58.2344 12.4588V11.3452V10.2317H56.8955H55.5563L55.6433 7.30409C55.7011 5.35491 55.6373 4.37649 55.4522 4.37671C55.2993 4.37671 54.5876 4.69377 53.8705 5.08109ZM63.8878 5.08109C63.1708 5.4684 62.0156 6.19079 61.321 6.68619C60.096 7.5599 60.0741 7.59638 60.5961 7.90871C61.0005 8.15056 61.1341 8.4791 61.1341 9.23121C61.1341 10.1484 61.0793 10.2317 60.4751 10.2317C59.8601 10.2317 59.8161 10.3067 59.8161 11.3576C59.8161 12.4085 59.8601 12.4835 60.4751 12.4835H61.1341V17.0133V21.5429L60.0712 22.3729C58.9535 23.2455 58.9216 23.7749 60.0238 23.1581C60.6543 22.805 60.7005 22.8237 62.0726 23.9811L63.4763 25.1654L65.3704 23.8348C66.4122 23.1029 67.4273 22.3916 67.6261 22.2542C68.0305 21.9748 68.1133 21.4908 67.7566 21.4908C67.6295 21.4908 67.3754 21.6453 67.1922 21.8338C66.9027 22.1315 66.776 22.0727 66.2311 21.3877C65.6203 20.6198 65.6052 20.491 65.6754 16.5974L65.7473 12.5961L67.0132 12.527L68.2793 12.4579L68.1995 11.4011L68.1199 10.3443L66.8677 10.2756L65.6155 10.2069V7.29193C65.6155 5.68863 65.5201 4.37694 65.4036 4.37694C65.2868 4.37694 64.6048 4.69377 63.8878 5.08109ZM27.5638 19.3921C27.5093 19.4388 27.1518 19.3753 26.7693 19.251L26.0736 19.0251V12.5054V5.98587L26.7986 5.4988L27.5235 5.01151L27.5931 12.1595C27.6316 16.091 27.6184 19.3458 27.5638 19.3921ZM80.6414 9.8633C80.0565 10.9077 78.492 10.9748 77.2762 10.0072L76.6894 9.54016L75.3044 10.4335C74.5425 10.9246 72.9998 11.6994 71.8763 12.1552L69.8333 12.9839V15.163V17.3421L71.0125 18.184L72.1916 19.026L71.1596 19.8225C69.4044 21.1769 68.6249 23.0779 69.3383 24.2642C69.701 24.867 70.9102 25.9945 71.1941 25.9945C71.3082 25.9945 71.327 25.6752 71.2358 25.2852C71.1092 24.745 71.1857 24.5033 71.5563 24.2719C72.2338 23.8487 72.5172 23.8854 73.651 24.5425L74.6424 25.1174L78.1034 23.4729L81.5641 21.8286L81.6382 19.212L81.712 16.5956L80.7972 15.9095C80.294 15.5321 79.6732 15.1233 79.4175 15.0011C78.9973 14.8002 79.0448 14.6917 79.9112 13.8722C80.9212 12.9175 81.431 11.7683 81.4268 10.4569C81.4231 9.28165 81.1028 9.03958 80.6414 9.8633ZM40.6177 11.3509C39.4322 12.2444 38.5293 13.0679 38.6108 13.1805C38.697 13.2998 38.9846 13.2823 39.2986 13.1388C39.7549 12.9303 39.9755 13.0062 40.7323 13.6329L41.6268 14.3733L41.6152 17.2002C41.6015 20.6097 41.345 21.9025 40.5773 22.4335C40.2626 22.6512 40.0815 22.9354 40.1753 23.0649C40.2834 23.2144 40.585 23.1394 41.0026 22.8588L41.6592 22.4175L43.0015 23.6994C43.7396 24.4043 44.3797 25.019 44.4235 25.0652C44.5513 25.1994 48.7443 22.1491 48.7443 21.9218C48.7443 21.6275 48.3956 21.6676 47.819 22.0277C47.3693 22.3085 47.2473 22.261 46.5822 21.5462C45.8543 20.764 45.8446 20.7119 45.8446 17.6245C45.8446 14.3541 46.1296 13.198 47.0432 12.7614C47.2945 12.6412 47.4181 12.4293 47.3177 12.2905C47.1887 12.1122 46.9462 12.144 46.491 12.3989C45.8596 12.7522 45.8214 12.7355 44.5935 11.5711C43.9041 10.9176 43.2127 10.2351 43.0566 10.0545C42.8223 9.78336 42.396 10.0099 40.6177 11.3509ZM135.099 11.0061C134.096 11.6738 132.465 12.5569 131.474 12.9681L129.673 13.7162V17.9248V22.1337L129.014 22.5765C128.652 22.8201 128.355 23.0809 128.355 23.1558C128.355 23.4254 129.088 23.2853 129.41 22.9545C129.59 22.7688 129.817 22.6168 129.912 22.6168C130.008 22.6168 131.014 23.2754 132.148 24.0805C133.281 24.8855 134.258 25.5441 134.318 25.5441C134.379 25.5441 135.108 25.0879 135.939 24.5301L137.45 23.5161L137.714 24.4085C137.859 24.8994 138.126 25.4268 138.307 25.5802C138.775 25.9765 138.715 27.3483 138.209 27.8255C137.801 28.2108 137.746 28.2045 136.939 27.6789C134.014 25.7727 130.527 26.3393 128.883 28.9879C128.155 30.1602 128.235 30.3867 129.258 30.0541C130.576 29.626 132.412 29.772 133.477 30.3894C134.015 30.7011 134.595 30.8864 134.766 30.8013C135.521 30.4266 142.214 26.1258 142.389 25.9035C142.709 25.4953 142.597 24.1185 142.195 23.5175C141.903 23.0811 141.816 21.9137 141.809 18.3241L141.8 13.6937L142.581 13.0541C143.586 12.232 143.336 11.8544 142.263 12.572L141.445 13.119L139.367 11.5065C138.225 10.6195 137.207 9.87095 137.106 9.84281C137.006 9.81466 136.102 10.3382 135.099 11.0061ZM118.404 11.8406C116.417 13.5104 115.922 14.0598 116.406 14.0598C116.503 14.0598 116.802 13.8905 117.07 13.6835C117.528 13.3291 117.602 13.3446 118.343 13.951L119.129 14.5944V18.1095V21.6246L118.085 22.4952C116.969 23.4258 116.905 24.0064 117.985 23.402C118.732 22.9838 118.79 23.0086 120.73 24.5833L121.936 25.5622L124.208 23.9343C125.457 23.039 126.421 22.2254 126.349 22.1263C126.278 22.0272 125.924 22.1112 125.564 22.3128C124.943 22.6607 124.875 22.6528 124.26 22.1585C123.617 21.6428 123.61 21.5962 123.61 17.6476V13.6581L124.589 14.0841C126.493 14.9137 127.841 14.4097 128.992 12.4378C129.838 10.9874 129.901 10.3369 129.164 10.6742C128.403 11.0219 126.885 10.9557 126.499 10.5578C126.201 10.2515 125.983 10.3564 124.744 11.4022C123.871 12.1376 123.255 12.5029 123.139 12.3531C122.664 11.7391 120.893 10.007 120.745 10.0099C120.653 10.0117 119.6 10.8356 118.404 11.8406ZM101.106 11.8159C99.4911 13.1769 99.3303 13.3793 99.9656 13.2521C100.53 13.139 100.858 13.2266 101.35 13.6212C101.981 14.128 101.994 14.2107 101.994 17.7488V21.3593L101.023 22.209C99.9324 23.1628 99.9874 23.5321 101.134 22.9536L101.892 22.5713L103.474 23.9694L105.056 25.3676L107.281 24.1072L109.507 22.8469L110.825 24.0642L112.143 25.2816L114.504 23.8276C117.314 22.0975 117.114 22.2538 116.896 21.9522C116.78 21.791 116.487 21.8647 116.035 22.1682L115.35 22.6285L114.603 22.0175L113.857 21.4066V17.4756V13.5446L114.845 12.8114C115.934 12.0039 115.892 11.5436 114.786 12.1626L114.088 12.5533L112.677 11.3632L111.266 10.1732L110.519 10.6332C110.107 10.8863 109.362 11.4562 108.863 11.8999L107.956 12.7067L108.666 13.3392L109.375 13.9718V18.1275C109.375 22.1583 109.358 22.2925 108.798 22.5909C108.266 22.8746 108.144 22.8271 107.217 21.9781L106.212 21.0578V16.8194V12.5808L104.82 11.4063C104.054 10.7602 103.328 10.2317 103.207 10.2317C103.085 10.2317 102.14 10.9446 101.106 11.8159ZM31.3456 12.0973C31.3459 12.8983 31.3119 12.9341 30.7826 12.6923C30.4726 12.5506 29.8201 12.4898 29.3327 12.5576C28.4791 12.6758 28.4462 12.6531 28.4462 11.9507V11.2212L29.8958 11.2331L31.3454 11.245L31.3456 12.0973ZM93.0312 18.5018C93.0312 23.2234 93.1377 23.0993 90.8216 21.0758L89.535 19.9515L89.7284 16.2738C89.8349 14.251 89.9765 12.5198 90.0432 12.4263C90.1096 12.3329 90.8093 12.7321 91.5977 13.3136L93.0312 14.3708V18.5018ZM77.4249 13.6094H78.9127L77.2337 15.0565C75.6059 16.4594 75.5358 16.4929 74.9348 16.1565C74.3754 15.8435 74.3148 15.6449 74.3148 14.1265V12.4434L75.1259 13.0264C75.7886 13.5029 76.2085 13.6094 77.4249 13.6094ZM136.593 14.2951L137.318 14.8166V18.9551V23.0935L135.868 22.1263L134.418 21.1589V16.8917V12.6245L135.143 13.1992C135.542 13.5151 136.194 14.0085 136.593 14.2951ZM30.8361 13.167C31.3111 13.3843 31.3459 13.6763 31.3459 17.4454C31.3459 19.6705 31.2868 21.4908 31.2146 21.4908C31.1427 21.4908 30.4902 21.1267 29.7647 20.6815L28.4462 19.8722V16.621C28.4462 13.4597 28.4625 13.3642 29.0393 13.1661C29.8407 12.8909 30.2327 12.8911 30.8361 13.167ZM76.804 17.713C77.1009 18.0746 77.2145 18.7675 77.2145 20.2132V22.213L76.2871 21.5174C75.1781 20.6858 74.514 20.5199 72.7094 20.6241L71.3475 20.7027L73.5561 18.9591C74.7708 18.0003 75.9062 17.2148 76.0791 17.2139C76.2523 17.213 76.5784 17.4376 76.804 17.713ZM12.1022 37.012C12.1022 38.6788 12.0555 38.8286 11.3975 39.2706C10.6481 39.7744 10.2693 39.6057 10.2608 38.7646C10.2587 38.5431 10.0181 37.9616 9.72624 37.473C8.98022 36.2241 7.45443 35.5826 5.61573 35.7447C3.44066 35.9363 2.0849 36.9988 2.0849 38.5113V39.1159L2.63137 38.5226C3.27353 37.8252 3.9381 37.765 4.55653 38.3487C4.93376 38.7047 4.98965 39.2042 4.92691 41.6501L4.85283 44.532L3.84742 44.7772C2.71046 45.0544 1.62516 45.855 1.25321 46.6906C0.868067 47.556 1.24108 48.8949 2.01162 49.4126C3.00307 50.0787 3.47414 50.0186 3.0782 49.2762C2.80905 48.7718 2.83567 48.6443 3.26615 48.3754C3.54189 48.2034 4.04117 48.0624 4.37596 48.0624C4.97911 48.0624 4.98464 48.0881 4.98464 50.8558V53.6492L3.8345 54.225C0.53038 55.879 -0.0482501 58.1106 2.31556 60.0823L3.32889 60.9276L3.20473 59.8228C3.09243 58.8248 3.15016 58.6715 3.80445 58.2319C4.20277 57.9642 4.63114 57.7453 4.75662 57.7453C4.8821 57.7453 4.98464 59.6706 4.98464 62.0238C4.98464 64.3769 5.05766 66.3023 5.14676 66.3023C5.23586 66.3023 6.84153 65.3648 8.71502 64.2193L12.1209 62.1364L11.3435 61.8621C10.4493 61.5469 10.1246 60.7159 10.4019 59.4531C10.5977 58.5611 10.8946 58.467 11.8009 59.0093C12.453 59.3993 12.6642 59.2964 18.8902 55.5457L20.5378 54.5531V47.0421V39.5309L21.3286 39.1319C21.7636 38.9124 22.1195 38.6534 22.1195 38.5561C22.1195 38.2942 21.8877 38.3379 21.0566 38.7574L20.3076 39.1353L18.5117 37.8141C17.5236 37.0875 16.5127 36.3482 16.2652 36.1714C15.8621 35.8834 15.6546 35.9719 14.2881 37.0136L12.7612 38.1774L12.6832 36.7022C12.573 34.6134 12.1022 34.8645 12.1022 37.012ZM89.2666 35.8159C89.1622 35.9048 89.0771 36.1633 89.0771 36.3905C89.0771 37.7479 86.2888 38.1843 84.4454 37.1158C83.8172 36.7517 83.3166 36.6015 83.1315 36.7218C79.3244 39.1945 78.173 39.8793 76.8955 40.4301L75.3692 41.0883L75.3489 47.1086L75.3289 53.1291L74.5628 51.7831C72.2425 47.706 72.5791 43.0424 75.3908 40.3069L76.2818 39.4402L75.4354 39.814C74.1057 40.4015 71.3668 42.7188 70.4375 44.0427C66.9291 49.042 69.2713 56.5802 75.1161 59.1009C79.3121 60.9103 82.9159 60.4781 87.1595 57.6564C88.1418 57.0031 89.5086 56.1891 90.1974 55.8472L91.4496 55.2255V51.3769C91.4496 47.7375 91.4807 47.5002 92.0219 47.0081C92.7178 46.3754 92.4558 46.0248 91.7148 46.5974C91.1087 47.066 91.1235 47.0732 88.757 45.1594L87.5141 44.1544L84.8687 45.8948L82.2231 47.6353V43.9945V40.3538L82.8163 40.5069C83.1426 40.5911 83.911 40.7172 84.5242 40.787C86.9131 41.0592 89.9024 39.0013 89.8494 37.1213C89.826 36.2975 89.516 35.6028 89.2666 35.8159ZM14.6835 39.7955L15.7928 40.7611V42.903C15.7928 45.2474 15.6177 45.5854 14.4046 45.5854C12.7114 45.5854 12.6294 45.4258 12.6294 42.1246C12.6294 38.3249 12.7876 38.1454 14.6835 39.7955ZM139.136 39.9002C138.323 40.3643 137.224 41.0716 136.693 41.4722L135.728 42.2002L136.259 42.6544C136.615 42.9582 136.791 43.4063 136.791 44.0091C136.791 44.8599 136.747 44.9099 136 44.9099C135.227 44.9099 135.209 44.9349 135.209 46.0358C135.209 47.1367 135.227 47.1617 136 47.1617H136.791V51.4296C136.791 54.0188 136.678 55.9085 136.505 56.2339C136.348 56.5289 135.873 56.9446 135.45 57.1578C135.028 57.3711 134.682 57.6919 134.682 57.8707C134.682 58.2876 134.814 58.2797 135.648 57.8126C136.333 57.4296 136.333 57.4296 137.573 58.6373C138.47 59.5112 138.916 59.7913 139.186 59.6517C140.242 59.1059 143.612 56.5309 143.49 56.3627C143.413 56.2555 143.109 56.2776 142.816 56.4118C142.522 56.546 142.252 56.6223 142.217 56.5813C141.295 55.5214 141.272 55.3951 141.272 51.2774V47.1617H142.459H143.645V46.0358V44.9099H142.459H141.272V41.9825C141.272 39.7903 141.19 39.0553 140.943 39.0558C140.762 39.0562 139.948 39.4361 139.136 39.9002ZM148.917 40.1355C147.83 40.7577 146.644 41.5366 146.283 41.8665C145.678 42.418 145.662 42.4838 146.085 42.686C146.415 42.8436 146.545 43.1888 146.545 43.9078C146.545 44.8266 146.49 44.9099 145.886 44.9099C145.262 44.9099 145.227 44.9774 145.227 46.1484V47.3869H146.058H146.889L146.718 49.9202C146.624 51.3136 146.546 53.3403 146.546 54.4239C146.545 56.5097 146.452 56.6937 144.963 57.585C144.138 58.0781 144.469 58.3319 145.473 57.9768C146.24 57.7052 146.3 57.7318 147.547 58.8897L148.83 60.0823L151.114 58.4391C152.371 57.5354 153.399 56.7056 153.399 56.5951C153.399 56.3231 152.942 56.3399 152.739 56.6194C152.456 57.0117 152.139 56.8669 151.575 56.0862C151.073 55.3928 151.026 54.9866 151.026 51.3573V47.3869H152.344H153.662V46.261V45.1351H152.351H151.041L150.967 42.0696L150.894 39.0042L148.917 40.1355ZM54.387 40.1509C52.2902 41.3236 50.5912 42.6364 51.1545 42.6486C51.6936 42.6603 51.9077 43.1161 51.9077 44.2528C51.9077 45.0439 51.8394 45.1351 51.2486 45.1351C50.6336 45.1351 50.5896 45.21 50.5896 46.261C50.5896 47.3119 50.6336 47.3869 51.2486 47.3869H51.9077V51.9007C51.9077 56.3014 51.8927 56.4275 51.3056 56.929C50.9745 57.2118 50.4834 57.5485 50.2142 57.6773C49.9303 57.8129 49.8059 58.0234 49.9179 58.1783C50.0616 58.3767 50.2822 58.3495 50.7768 58.0727C51.434 57.705 51.4598 57.7149 52.8464 58.8847L54.2504 60.0692L56.1318 58.7384C57.1667 58.0063 58.1817 57.2949 58.3875 57.1576C58.8101 56.875 58.8897 56.3942 58.5135 56.3942C58.377 56.3942 58.1922 56.4955 58.1026 56.6194C57.8142 57.018 57.4483 56.8619 56.9134 56.1127C56.4447 55.4559 56.3909 54.9713 56.3901 51.3839L56.3891 47.3869H57.7072H59.0252V46.261V45.1351H57.7072H56.3891V42.2077C56.3891 40.5976 56.2889 39.2803 56.1663 39.2803C56.0438 39.2803 55.2432 39.6721 54.387 40.1509ZM81.6332 48.9215L81.5641 57.7566L80.143 57.1317C79.3611 56.7881 78.0681 55.9576 77.2693 55.2865C75.6054 53.8884 75.4575 54.216 78.6248 52.2857L80.3778 51.2175V45.605C80.3778 42.5182 80.4538 39.8239 80.5463 39.6179C80.7 39.2753 80.7577 39.2794 81.2085 39.6645C81.6767 40.0644 81.6985 40.5427 81.6332 48.9215ZM11.9973 54.307C11.9356 54.3597 11.5491 54.2523 11.1381 54.0685L10.3911 53.7341L10.4709 47.2392L10.5508 40.744L11.2605 40.1995L11.9704 39.6552L12.04 46.9331C12.0782 50.936 12.0592 54.2543 11.9973 54.307ZM48.2211 44.178C48.2158 44.8407 47.3266 45.5854 46.5405 45.5854C46.1981 45.5854 45.4795 45.3312 44.9436 45.0204L43.9687 44.4555L42.2958 45.4751C41.3758 46.0358 39.8405 46.7978 38.8842 47.1682L37.1454 47.8418V49.9319V52.0221L38.3 52.9899L39.4546 53.9577L38.3137 54.856C36.9927 55.8963 36.2085 57.4026 36.4502 58.4355C36.64 59.2457 37.4997 60.3527 38.1814 60.6644C38.596 60.854 38.6501 60.7821 38.6245 60.0748C38.576 58.7377 39.9492 58.4697 41.3078 59.5511L41.9009 60.0233L45.4544 58.3098L49.0079 56.5964V53.9249V51.2533L47.6725 50.4158L46.3368 49.5784L47.1318 48.8767C47.5691 48.4907 48.1106 47.7983 48.3355 47.3378C48.7915 46.404 48.8732 44.5282 48.4807 44.0091C48.274 43.736 48.2245 43.7684 48.2211 44.178ZM101.203 44.6865C100.137 45.3848 99.2021 45.4591 98.1503 44.929C97.0155 44.3571 96.9854 44.3557 96.9854 44.8761C96.9854 45.3794 95.7707 46.8483 94.353 48.0593C93.2258 49.0222 93.2345 49.0591 94.6322 49.2742C95.1504 49.3539 96.1366 49.7236 96.8238 50.0958L98.0734 50.7727L96.4253 51.7257C94.5204 52.8273 93.8827 53.4907 93.5448 54.7227C93.2387 55.8396 93.6589 57.7325 94.3891 58.5253C95.0062 59.1957 96.4537 59.772 97.5203 59.772C98.0784 59.772 98.5191 59.502 99.3579 58.646C99.9648 58.0268 100.655 57.5201 100.891 57.5201C101.128 57.5201 102.037 58.1263 102.912 58.8672L104.503 60.214L106.412 58.3256C107.462 57.2871 108.321 56.3262 108.321 56.1906C108.321 55.7808 107.883 55.9123 107.456 56.4505L107.054 56.9572L106.106 56.1812L105.157 55.4052V51.2416C105.157 47.279 105.185 47.0529 105.73 46.5578C106.462 45.8921 106.203 45.6577 105.296 46.1653L104.598 46.556L103.23 45.4055L101.862 44.2548L101.203 44.6865ZM28.5266 45.4683C27.1226 46.2763 24.6467 47.404 23.3716 47.8165L22.6467 48.0512V52.2961C22.6467 56.5185 22.6433 56.5437 21.9958 57.0632C21.1847 57.7142 21.3885 58.095 22.2808 57.5956C22.928 57.2332 22.967 57.2461 24.178 58.2211C24.8581 58.7688 25.7839 59.4993 26.2352 59.8447L27.0559 60.4725L30.8485 58.6789L34.6411 56.8851L34.7128 52.8233L34.7847 48.7614L35.5898 48.2716C36.5873 47.665 36.2407 47.145 35.2197 47.7166C34.5607 48.0854 34.5396 48.0757 32.365 46.3864C31.16 45.4505 30.1101 44.6847 30.0315 44.6847C29.9532 44.6847 29.276 45.0373 28.5266 45.4683ZM110.742 46.9635C109.424 49.0969 109.107 50.1625 110.136 48.9972L110.597 48.475L112.51 48.9711C114.33 49.4435 115.337 49.4656 116.625 49.0611C117.006 48.9413 116.901 49.1228 116.243 49.7175C115.524 50.3681 115.136 50.5395 114.384 50.5395C113.249 50.5395 111.296 51.5262 110.47 52.5177C109.742 53.3909 109.718 53.7922 110.412 53.4747C110.693 53.3466 111.278 53.2416 111.713 53.2416H112.503L111.622 54.3601C110.798 55.4054 110.425 56.3976 110 58.6661L109.826 59.5972L110.94 58.9075C112.937 57.6715 114.97 57.7719 117.186 59.2158L118.038 59.7713L119.638 57.5093C121.287 55.178 121.654 54.3624 120.681 55.194L120.123 55.6702L118.638 55.0854C116.649 54.3027 114.349 54.1777 113 54.7792C111.832 55.2998 111.788 55.2228 112.684 54.2198C113.219 53.6202 113.543 53.4668 114.274 53.4668C116.19 53.4668 117.699 52.492 118.902 50.4784L119.44 49.5768L118.528 50.0582C118.027 50.3228 117.353 50.5395 117.031 50.5395C116.528 50.5395 116.666 50.3341 118.022 49.0701C119.558 47.6386 121.249 45.2949 120.939 45.0295C120.853 44.9567 120.456 45.0038 120.055 45.1339C119.654 45.2643 118.481 45.4305 117.448 45.5032C115.93 45.6104 115.269 45.5447 113.998 45.1603C113.133 44.8986 112.362 44.6867 112.284 44.6892C112.207 44.6919 111.512 45.7154 110.742 46.9635ZM127.301 46.3008C125.779 47.1676 124.148 48.0386 123.676 48.2365L122.819 48.5961V52.6463C122.819 56.1046 122.755 56.757 122.382 57.1096C121.792 57.666 122.154 57.9223 122.811 57.4143C123.319 57.0213 123.385 57.0518 125.383 58.5873L127.433 60.1633L130.464 58.0261C132.132 56.8509 133.773 55.7027 134.111 55.475C134.449 55.2474 134.649 54.9539 134.554 54.8229C134.451 54.681 133.674 55.0863 132.629 55.8272C131.666 56.5106 130.798 57.0698 130.701 57.0698C130.604 57.0698 129.859 56.6014 129.045 56.029C128.07 55.3431 127.569 54.8245 127.577 54.509C127.586 54.1726 128.391 53.5062 130.279 52.2716C131.759 51.3046 133.238 50.3242 133.567 50.0929L134.165 49.6723L132.377 47.2525C131.394 45.9219 130.472 44.8085 130.329 44.7788C130.186 44.7493 128.823 45.4341 127.301 46.3008ZM170.502 45.0231C169.568 45.4566 168.859 46.7796 169.062 47.7071C169.15 48.1068 169.584 48.7303 170.027 49.0927C170.693 49.6383 171.054 49.7513 172.127 49.7513C173.231 49.7513 173.547 49.6455 174.259 49.0373C174.946 48.4504 175.1 48.1358 175.121 47.2747C175.144 46.3391 175.041 46.1439 174.162 45.4557C173.063 44.5953 171.756 44.4408 170.502 45.0231ZM160.648 46.1783C159.488 46.8611 157.916 47.726 157.155 48.1003L155.771 48.781V52.742C155.771 56.4408 155.735 56.7358 155.224 57.2004C154.923 57.474 154.789 57.7568 154.925 57.8289C155.062 57.9009 155.382 57.7629 155.637 57.5222C156.091 57.0936 156.145 57.1184 158.174 58.683C159.65 59.8217 160.342 60.2205 160.579 60.0687C160.846 59.8976 164.412 57.4246 167.206 55.473C167.539 55.2404 167.619 55.0618 167.432 54.9634C167.274 54.8799 166.366 55.3766 165.413 56.067C164.338 56.8462 163.556 57.2591 163.35 57.1556C162.445 56.6987 160.252 54.951 160.252 54.686C160.252 54.5196 161.735 53.3997 163.548 52.1973C165.36 50.9948 166.843 49.9137 166.843 49.7948C166.843 49.3915 163.36 44.9099 163.058 44.9234C162.892 44.9308 161.808 45.4956 160.648 46.1783ZM173.894 45.9282C174.908 46.925 174.55 48.466 173.162 49.0794C170.68 50.1756 168.546 47.4731 170.545 45.7656C171.24 45.1729 171.481 45.0977 172.325 45.2123C172.907 45.2916 173.541 45.5802 173.894 45.9282ZM14.3429 46.1178C14.6329 46.1133 15.0776 46.0313 15.3314 45.936C15.7261 45.7874 15.7928 45.8878 15.7928 46.631V47.4995H14.2111H12.6294V46.64C12.6294 45.8473 12.6755 45.7937 13.2225 45.9532C13.5486 46.0484 14.0529 46.1225 14.3429 46.1178ZM170.797 47.2619C170.797 48.4239 170.881 48.738 171.192 48.738C171.46 48.738 171.591 48.5024 171.599 48.0061L171.609 47.2743L172.384 48.0483C173.242 48.906 173.718 48.8688 173.049 47.9967C172.659 47.4878 172.659 47.4297 173.046 47.3027C173.325 47.2113 173.44 46.9534 173.385 46.5438C173.308 45.9752 173.196 45.9173 172.049 45.8545L170.797 45.7858V47.2619ZM172.906 46.5988C172.906 46.8088 172.657 46.9365 172.247 46.9365C171.837 46.9365 171.588 46.8088 171.588 46.5988C171.588 46.3887 171.837 46.261 172.247 46.261C172.657 46.261 172.906 46.3887 172.906 46.5988ZM99.5427 47.6684C100.487 48.5538 100.676 49.1136 100.676 51.0191V52.8796L99.9229 51.8649C99.0801 50.7297 97.4246 49.4653 96.5241 49.269C95.9621 49.1462 95.9829 49.1071 96.9195 48.5259C97.4631 48.1885 98.071 47.7434 98.2698 47.5371C98.7427 47.0466 98.8966 47.0624 99.5427 47.6684ZM128.858 49.2624C129.596 50.3559 130.198 51.3186 130.195 51.4017C130.19 51.5361 128.567 52.6087 127.649 53.084C127.367 53.2297 127.301 52.6737 127.301 50.1753C127.301 48.4766 127.349 47.1288 127.408 47.1804C127.467 47.2322 128.12 48.1689 128.858 49.2624ZM30.2914 53.9019V58.0678L28.8416 56.8446L27.3917 55.6214V51.4555V47.2896L28.8416 48.5128L30.2914 49.736V53.9019ZM44.6064 48.5083L45.9764 48.6265L44.9219 49.5275C42.8515 51.2965 42.7564 51.3429 42.154 50.8772C41.7241 50.5449 41.6268 50.1837 41.6268 48.9215V47.3734L42.4316 47.8816C42.9201 48.1903 43.7747 48.4365 44.6064 48.5083ZM85.3316 48.3525C86.2775 49.1757 86.4409 49.4566 86.4409 50.2587C86.4409 50.9581 86.3102 51.2589 85.9311 51.4323C85.1967 51.7681 83.9002 51.7192 83.0008 51.3217C82.278 51.0024 82.2231 50.888 82.2231 49.6977C82.2231 48.5738 82.3117 48.3552 82.9481 47.9102C83.3466 47.6312 83.7966 47.3995 83.9477 47.395C84.0987 47.3905 84.7214 47.8215 85.3316 48.3525ZM162.774 51.0236C163.129 51.605 163.102 51.6438 161.695 52.5508L160.252 53.4815V50.3814V47.2815L161.331 48.8542C161.925 49.7191 162.574 50.6953 162.774 51.0236ZM15.3786 48.191C15.8352 48.5813 15.933 51.1058 15.623 54.5051L15.4566 56.3318L14.0532 55.5185L12.6494 54.7053L12.6394 51.5077C12.6307 48.6943 12.6848 48.2824 13.0907 48.0805C13.7817 47.7368 14.9104 47.7913 15.3786 48.191ZM59.0252 50.4329V52.3533L62.7817 52.2907L66.5382 52.2283L66.6146 50.3706L66.6913 48.5128H62.8581H59.0252V50.4329ZM100.126 53.7587C100.393 54.2915 100.696 55.1528 100.799 55.6727C101.044 56.9139 100.551 57.0887 98.9973 56.3109C97.0374 55.3298 96.3994 53.1955 97.6779 51.8975L98.3705 51.1945L99.0052 51.9926C99.3542 52.4312 99.8585 53.2261 100.126 53.7587ZM84.8962 52.0698L86.4409 51.9743V52.8485C86.4409 53.5724 86.3618 53.7035 85.9796 53.6125C85.726 53.552 85.2644 53.4405 84.9539 53.3648C84.6436 53.2889 83.9021 53.3705 83.3063 53.5456L82.2231 53.8645V52.7571C82.2231 51.6951 82.2463 51.6602 82.7873 51.9074C83.1089 52.0545 84.0154 52.1243 84.8962 52.0698ZM44.1124 52.4695C44.4298 52.7406 44.5265 53.3146 44.5265 54.9244V57.0252L43.7483 56.4043C42.6836 55.5547 40.9533 55.1598 39.6231 55.4626C38.5995 55.6957 38.6042 55.6894 40.7856 53.9062C41.9906 52.9214 43.1386 52.1157 43.3371 52.1157C43.5356 52.1157 43.8844 52.2749 44.1124 52.4695ZM85.9588 54.2899C86.6041 54.7887 86.646 57.0943 86.0178 57.5397C85.7853 57.7046 84.8363 57.8809 83.9089 57.9313L82.2231 58.023V56.3206C82.2231 54.8168 82.2914 54.5774 82.8091 54.2678C83.5836 53.8044 85.3469 53.8168 85.9588 54.2899Z" fill="#B9B9B9" fill-opacity="0.7"/>
</g>
</svg>
