<svg width="176" height="35" viewBox="0 0 176 35" fill="none" xmlns="http://www.w3.org/2000/svg">
<g id="HeraldDotComBanner 1" clip-path="url(#clip0_791_32438)">
<g id="Group">
<path id="Vector" d="M133.73 26.6378V29.6749C133.73 33.0331 130.979 34.6483 125.554 34.6483C121.291 34.6483 117.455 33.5121 117.455 29.3972V21.2172C117.455 17.103 121.291 15.9668 125.554 15.9668C130.243 15.9668 133.73 16.8751 133.73 20.7634V23.3973H127.297V20.2584C127.297 19.5262 126.948 18.8452 125.553 18.8452C124.236 18.8452 123.887 19.5262 123.887 20.2584V30.3567C123.887 31.0889 124.237 31.7699 125.553 31.7699C126.948 31.7699 127.297 31.0889 127.297 30.3567L127.337 26.6371L133.73 26.6378Z" fill="#B9B9B9" fill-opacity="0.7"/>
<path id="Vector_2" d="M151.711 29.3972C151.711 33.5121 147.837 34.6483 143.574 34.6483C139.31 34.6483 135.436 33.5121 135.436 29.3972V21.2172C135.436 17.103 139.31 15.9668 143.574 15.9668C147.837 15.9668 151.711 17.103 151.711 21.2172V29.3972ZM141.869 30.3567C141.869 31.0889 142.218 31.7699 143.575 31.7699C144.93 31.7699 145.279 31.0889 145.279 30.3567V20.2584C145.279 19.5262 144.93 18.8452 143.575 18.8452C142.218 18.8452 141.869 19.5262 141.869 20.2584V30.3567Z" fill="#B9B9B9" fill-opacity="0.7"/>
<g id="Group_2">
<path id="Vector_3" d="M153.592 34.2928V16.3555H162.177L164.31 24.9567H164.373L166.601 16.3555H175.123V34.2928H169.573L169.636 22.887H169.573L166.396 34.2928H162.254L159.173 22.887H159.109V34.2928H153.592Z" fill="#B9B9B9" fill-opacity="0.7"/>
</g>
<path id="Vector_4" d="M112.672 34.0644C114.597 34.0644 116.158 32.671 116.158 30.9521C116.158 29.2333 114.597 27.8398 112.672 27.8398C110.746 27.8398 109.186 29.2333 109.186 30.9521C109.186 32.671 110.746 34.0644 112.672 34.0644Z" fill="#B9B9B9" fill-opacity="0.7"/>
</g>
<g id="Group_3">
<path id="Vector_5" d="M12.6922 34.2214V20.4442H8.28882V34.2214H0.876953V0.167969H8.28882V13.7891H12.6922V0.167969H20.104V34.2214H12.6922Z" fill="#B9B9B9" fill-opacity="0.7"/>
<path id="Vector_6" d="M28.2235 24.2592C28.1796 29.202 29.1383 29.9024 31.1442 29.9024C33.0184 29.9024 33.6727 28.7349 33.4985 26.828L33.4114 25.9316L39.3838 26.0871C39.4709 26.5157 39.5148 27.0997 39.5148 27.7622C39.5148 31.6146 37.3778 34.6897 31.2313 34.6897C25.215 34.6897 21.291 32.7043 21.291 23.3636C21.291 14.7623 24.6047 11.1816 30.6649 11.1816C36.1147 11.1816 38.6432 14.4514 39.2535 20.0553C39.4277 21.6128 39.5155 22.9742 39.5587 24.3356L28.2235 24.2592ZM30.6649 15.6587C28.8339 15.6587 28.3545 17.5258 28.2235 21.1064H32.8442C32.583 16.7869 32.452 15.6587 30.6649 15.6587Z" fill="#B9B9B9" fill-opacity="0.7"/>
<path id="Vector_7" d="M58.0092 21.0251L52.1344 22.667C52.1344 21.9374 52.1552 21.1048 52.1552 19.9381C52.1552 17.8756 51.5009 17.1747 50.3242 17.1747C48.4932 17.1747 48.0138 19.9381 48.0138 23.0125V34.2216H41.126V11.881H47.8836C47.8836 11.881 47.9714 14.5667 47.9714 15.9295L48.2766 15.1508C49.0179 13.2438 50.6309 11.4531 52.9851 11.4531C56.5169 11.4531 58.173 13.283 58.173 17.2132C58.1707 19.2371 58.1454 18.653 58.0092 21.0251Z" fill="#B9B9B9" fill-opacity="0.7"/>
<path id="Vector_8" d="M74.9747 34.6904C71.4869 34.6904 71.0515 33.4837 70.5714 31.81L70.1791 32.5103C69.6127 33.5216 67.912 34.6904 65.1215 34.6904C60.2828 34.6904 58.5381 31.3037 58.5381 27.9569C58.5381 24.2207 60.4562 22.0021 64.7724 21.2227L67.3887 20.7171C70.0474 20.2114 70.5706 19.6274 70.5706 17.7596C70.5706 15.6587 69.612 14.8793 67.8241 14.8793C66.1673 14.8793 64.8595 15.8135 64.8595 17.1756C64.8595 17.9543 64.9905 18.4115 65.0932 19.0806L59.5749 20.6619C59.4387 19.0806 59.3367 17.6773 59.3367 16.5876C59.3367 12.579 63.0717 11.1816 67.9112 11.1816C74.8869 11.1816 77.3714 13.2447 77.3714 16.2022V29.202C77.3714 30.0193 78.1128 30.4864 78.9851 30.4864C79.2032 30.4864 79.3774 30.4465 79.5947 30.3688V33.5209C78.9419 33.9508 76.7187 34.6904 74.9747 34.6904ZM70.5714 23.1317C69.9611 23.4426 69.1326 23.7157 68.4791 23.8705C65.9939 24.4938 65.4274 25.2712 65.4274 27.2565C65.4274 29.2034 65.9507 30.3316 67.6075 30.3316C69.2205 30.3316 70.5714 29.7861 70.5714 25.3895V23.1317Z" fill="#B9B9B9" fill-opacity="0.7"/>
<path id="Vector_9" d="M80.5957 34.2209V0.259766H87.4836V34.2209H80.5957Z" fill="#B9B9B9" fill-opacity="0.7"/>
<path id="Vector_10" d="M101.082 34.2209V31.3405L100.472 32.3139C99.7306 33.5584 98.335 34.571 96.242 34.571C91.4032 34.571 88.918 32.1578 88.918 23.2064C88.918 15.5785 91.4457 11.453 96.1981 11.453C98.2911 11.453 99.7299 12.4271 100.428 13.7885L100.732 14.3726V0.259766H107.62V34.2209H101.082ZM99.9487 17.5639C99.5564 16.6297 99.0332 16.0835 97.9859 16.0835C96.5903 16.0835 95.8051 17.9519 95.8051 23.0509C95.8051 29.0834 96.9833 29.8216 98.204 29.8216C99.7306 29.8216 100.645 28.4595 100.645 23.0888C100.645 20.2097 100.428 18.7699 99.9487 17.5639Z" fill="#B9B9B9" fill-opacity="0.7"/>
</g>
<g id="Group_4">
<path id="Vector_11" d="M27.4864 9.40805H23.8906V0.443359H26.9758C28.6498 0.443359 29.3948 1.51777 29.3948 2.90646C29.3948 3.88718 29.0026 4.48185 28.323 4.70444C29.1075 4.91374 29.6434 5.58018 29.6434 6.87585C29.6442 8.73164 28.8463 9.40805 27.4864 9.40805ZM26.4927 1.9377H25.9829V3.99149H26.5188C26.9899 3.99149 27.1983 3.66525 27.1983 3.06991C27.1983 2.4161 27.016 1.9377 26.4927 1.9377ZM26.5061 5.47453H25.9829V7.87916H26.5322C27.0294 7.87916 27.3822 7.64527 27.3822 6.70043C27.3815 6.08184 27.1462 5.47453 26.5061 5.47453Z" fill="#B9B9B9" fill-opacity="0.7"/>
<path id="Vector_12" d="M35.9999 9.54977C33.8421 9.54977 33.0576 8.69795 33.0576 4.91527C33.0576 1.79902 33.6851 0.304688 35.9999 0.304688C38.2485 0.304688 38.9422 1.55384 38.9422 4.91527C38.9422 8.35908 38.445 9.54977 35.9999 9.54977ZM35.9999 1.83424C35.333 1.83424 35.333 2.47609 35.333 4.93919C35.333 7.55511 35.3851 7.9159 35.9999 7.9159C36.6273 7.9159 36.6668 7.54182 36.6668 4.93919C36.6668 2.4648 36.6928 1.83424 35.9999 1.83424Z" fill="#B9B9B9" fill-opacity="0.7"/>
<path id="Vector_13" d="M45.3486 9.54977C43.2042 9.54977 42.3408 8.65077 42.3408 7.27338C42.3408 6.91126 42.3929 6.50329 42.5113 6.2116L44.4338 6.15313C44.3423 6.36243 44.3028 6.72389 44.3028 7.00428C44.3028 7.56441 44.6556 7.92653 45.2578 7.92653C45.8331 7.92653 46.238 7.68201 46.238 7.01624C46.238 6.39764 45.8197 6.08336 45.0873 5.69732L43.8972 5.06809C43.0598 4.6362 42.4324 3.83023 42.4324 2.82625C42.4324 1.36713 43.4915 0.304688 45.5577 0.304688C47.3486 0.304688 48.0542 1.18043 48.0542 2.4648C48.0542 2.77974 48.0021 3.06014 47.9366 3.25814L46.0408 3.30465C46.1063 3.17642 46.1845 2.96579 46.1845 2.69735C46.1845 2.10201 45.9098 1.89205 45.4394 1.89205C45.0211 1.89205 44.707 2.12593 44.707 2.68606C44.707 3.29269 45.3873 3.65482 46.0274 3.92259L46.8774 4.29601C47.95 4.76311 48.5253 5.50928 48.5253 6.68933C48.5261 8.35908 47.7282 9.54977 45.3486 9.54977Z" fill="#B9B9B9" fill-opacity="0.7"/>
<path id="Vector_14" d="M55.4702 2.08985V9.40805H53.2477V2.08985H51.4688V0.443359H57.2483V2.09052H55.4702V2.08985Z" fill="#B9B9B9" fill-opacity="0.7"/>
<path id="Vector_15" d="M63.2753 9.54977C61.1183 9.54977 60.333 8.69795 60.333 4.91527C60.333 1.79902 60.9605 0.304688 63.2753 0.304688C65.5238 0.304688 66.2175 1.55384 66.2175 4.91527C66.2175 8.35908 65.7211 9.54977 63.2753 9.54977ZM63.2753 1.83424C62.6084 1.83424 62.6084 2.47609 62.6084 4.93919C62.6084 7.55511 62.6605 7.9159 63.2753 7.9159C63.9035 7.9159 63.9422 7.54182 63.9422 4.93919C63.9429 2.4648 63.969 1.83424 63.2753 1.83424Z" fill="#B9B9B9" fill-opacity="0.7"/>
<path id="Vector_16" d="M73.9337 9.40805L71.7893 4.66923V9.40805H69.9717V0.443359H71.9069L73.8421 4.70444V0.443359H75.5816V9.40805H73.9337Z" fill="#B9B9B9" fill-opacity="0.7"/>
</g>
</g>
<defs>
<clipPath id="clip0_791_32438">
<rect width="174.247" height="34.5205" fill="white" transform="translate(0.876953 0.164062)"/>
</clipPath>
</defs>
</svg>
