<svg width="59" height="13" viewBox="0 0 59 13" fill="none" xmlns="http://www.w3.org/2000/svg">
<g id="HeraldDotComBanner 1" clip-path="url(#clip0_68_11247)">
<g id="Group">
<path id="Vector" d="M44.3976 9.64291V10.679C44.3976 11.8245 43.4747 12.3755 41.6546 12.3755C40.2245 12.3755 38.9375 11.9879 38.9375 10.5842V7.79384C38.9375 6.39039 40.2245 6.00281 41.6546 6.00281C43.2278 6.00281 44.3976 6.31265 44.3976 7.63904V8.5375H42.2394V7.46678C42.2394 7.21701 42.1223 6.98468 41.6543 6.98468C41.2123 6.98468 41.0955 7.21701 41.0955 7.46678V10.9115C41.0955 11.1613 41.2126 11.3936 41.6543 11.3936C42.1223 11.3936 42.2394 11.1613 42.2394 10.9115L42.2526 9.64268L44.3976 9.64291Z" fill="#B9B9B9" fill-opacity="0.7"/>
<path id="Vector_2" d="M50.4301 10.5842C50.4301 11.9879 49.1301 12.3755 47.7 12.3755C46.2697 12.3755 44.9697 11.9879 44.9697 10.5842V7.79384C44.9697 6.39039 46.2697 6.00281 47.7 6.00281C49.1301 6.00281 50.4301 6.39039 50.4301 7.79384V10.5842ZM47.1282 10.9115C47.1282 11.1613 47.2453 11.3936 47.7003 11.3936C48.155 11.3936 48.2721 11.1613 48.2721 10.9115V7.46678C48.2721 7.21701 48.155 6.98468 47.7003 6.98468C47.2453 6.98468 47.1282 7.21701 47.1282 7.46678V10.9115Z" fill="#B9B9B9" fill-opacity="0.7"/>
<g id="Group_2">
<path id="Vector_3" d="M51.0605 12.2542V6.13538H53.9409L54.6564 9.06944H54.6776L55.425 6.13538H58.2841V12.2542H56.4221L56.4433 8.36341H56.4221L55.3563 12.2542H53.9667L52.9329 8.36341H52.9116V12.2542H51.0605Z" fill="#B9B9B9" fill-opacity="0.7"/>
</g>
<path id="Vector_4" d="M37.3327 12.1763C37.9787 12.1763 38.5024 11.701 38.5024 11.1146C38.5024 10.5283 37.9787 10.053 37.3327 10.053C36.6868 10.053 36.1631 10.5283 36.1631 11.1146C36.1631 11.701 36.6868 12.1763 37.3327 12.1763Z" fill="#B9B9B9" fill-opacity="0.7"/>
</g>
<g id="Group_3">
<path id="Vector_5" d="M3.79103 12.23V7.53029H2.31375V12.23H-0.172852V0.613647H2.31375V5.2601H3.79103V0.613647H6.27764V12.23H3.79103Z" fill="#B9B9B9" fill-opacity="0.7"/>
<path id="Vector_6" d="M9.00157 8.83153C8.98684 10.5176 9.30847 10.7565 9.98143 10.7565C10.6102 10.7565 10.8297 10.3583 10.7713 9.70779L10.742 9.40203L12.7457 9.45506C12.7749 9.60126 12.7897 9.80049 12.7897 10.0265C12.7897 11.3406 12.0727 12.3896 10.0106 12.3896C7.99225 12.3896 6.67578 11.7123 6.67578 8.526C6.67578 5.59193 7.78749 4.37048 9.82062 4.37048C11.649 4.37048 12.4973 5.48586 12.702 7.39748C12.7604 7.92876 12.7899 8.39318 12.8044 8.8576L9.00157 8.83153ZM9.82062 5.89769C9.20634 5.89769 9.04552 6.5346 9.00157 7.75605H10.5518C10.4641 6.28256 10.4202 5.89769 9.82062 5.89769Z" fill="#B9B9B9" fill-opacity="0.7"/>
<path id="Vector_7" d="M18.9942 7.72835L17.0233 8.28841C17.0233 8.03954 17.0303 7.75554 17.0303 7.35754C17.0303 6.65399 16.8108 6.41487 16.416 6.41487C15.8017 6.41487 15.6409 7.35754 15.6409 8.40627V12.23H13.3301V4.6091H15.5972C15.5972 4.6091 15.6267 5.52525 15.6267 5.99012L15.729 5.72448C15.9777 5.07397 16.5189 4.46313 17.3087 4.46313C18.4936 4.46313 19.0492 5.08735 19.0492 6.42802C19.0484 7.11841 19.0399 6.91918 18.9942 7.72835Z" fill="#B9B9B9" fill-opacity="0.7"/>
<path id="Vector_8" d="M24.6862 12.3898C23.5161 12.3898 23.37 11.9782 23.2089 11.4073L23.0773 11.6462C22.8873 11.9911 22.3167 12.3898 21.3806 12.3898C19.7572 12.3898 19.1719 11.2345 19.1719 10.0929C19.1719 8.81839 19.8154 8.06158 21.2634 7.79571L22.1412 7.62323C23.0331 7.45074 23.2087 7.25151 23.2087 6.61438C23.2087 5.89769 22.887 5.63183 22.2872 5.63183C21.7314 5.63183 21.2927 5.9505 21.2927 6.41515C21.2927 6.68079 21.3366 6.83673 21.3711 7.06497L19.5197 7.60442C19.474 7.06497 19.4398 6.58628 19.4398 6.21456C19.4398 4.84714 20.6929 4.37048 22.3165 4.37048C24.6567 4.37048 25.4903 5.07425 25.4903 6.0831V10.5176C25.4903 10.7964 25.739 10.9558 26.0316 10.9558C26.1048 10.9558 26.1632 10.9422 26.2362 10.9156V11.9909C26.0172 12.1375 25.2713 12.3898 24.6862 12.3898ZM23.2089 8.4469C23.0042 8.55297 22.7262 8.64613 22.507 8.69894C21.6732 8.91154 21.4832 9.17673 21.4832 9.85398C21.4832 10.5181 21.6587 10.9029 22.2146 10.9029C22.7557 10.9029 23.2089 10.7169 23.2089 9.21708V8.4469Z" fill="#B9B9B9" fill-opacity="0.7"/>
<path id="Vector_9" d="M26.5723 12.2297V0.644836H28.8831V12.2297H26.5723Z" fill="#B9B9B9" fill-opacity="0.7"/>
<path id="Vector_10" d="M33.445 12.2296V11.247L33.2405 11.5791C32.9918 12.0036 32.5236 12.349 31.8214 12.349C30.198 12.349 29.3643 11.5258 29.3643 8.47229C29.3643 5.87028 30.2123 4.46297 31.8067 4.46297C32.5088 4.46297 32.9915 4.79525 33.2258 5.25966L33.3276 5.45889V0.644714H35.6387V12.2296H33.445ZM33.065 6.54752C32.9334 6.22885 32.7578 6.04253 32.4065 6.04253C31.9383 6.04253 31.6748 6.67989 31.6748 8.41925C31.6748 10.4771 32.0701 10.7289 32.4796 10.7289C32.9918 10.7289 33.2987 10.2642 33.2987 8.43217C33.2987 7.45007 33.2258 6.95891 33.065 6.54752Z" fill="#B9B9B9" fill-opacity="0.7"/>
</g>
<g id="Group_4">
<path id="Vector_11" d="M8.7542 3.76538H7.54785V0.707336H8.5829C9.14449 0.707336 9.39445 1.07384 9.39445 1.54755C9.39445 1.8821 9.26286 2.08495 9.03487 2.16088C9.29806 2.23228 9.47785 2.45962 9.47785 2.9016C9.4781 3.53465 9.21042 3.76538 8.7542 3.76538ZM8.42084 1.21709H8.24978V1.91768H8.42958C8.58764 1.91768 8.65756 1.80639 8.65756 1.60331C8.65756 1.38028 8.59638 1.21709 8.42084 1.21709ZM8.42533 2.42358H8.24978V3.24385H8.43407C8.60088 3.24385 8.71924 3.16406 8.71924 2.84176C8.71899 2.63074 8.64008 2.42358 8.42533 2.42358Z" fill="#B9B9B9" fill-opacity="0.7"/>
<path id="Vector_12" d="M11.6101 3.81373C10.8862 3.81373 10.623 3.52316 10.623 2.2328C10.623 1.16978 10.8336 0.660034 11.6101 0.660034C12.3645 0.660034 12.5972 1.08615 12.5972 2.2328C12.5972 3.40756 12.4304 3.81373 11.6101 3.81373ZM11.6101 1.1818C11.3864 1.1818 11.3864 1.40075 11.3864 2.24096C11.3864 3.13331 11.4039 3.25638 11.6101 3.25638C11.8207 3.25638 11.8339 3.12877 11.8339 2.24096C11.8339 1.39689 11.8426 1.1818 11.6101 1.1818Z" fill="#B9B9B9" fill-opacity="0.7"/>
<path id="Vector_13" d="M14.7464 3.81373C14.027 3.81373 13.7373 3.50706 13.7373 3.03721C13.7373 2.91368 13.7548 2.77451 13.7945 2.67501L14.4395 2.65506C14.4088 2.72646 14.3955 2.84976 14.3955 2.94541C14.3955 3.13648 14.5139 3.26001 14.7159 3.26001C14.9089 3.26001 15.0448 3.1766 15.0448 2.94949C15.0448 2.73847 14.9044 2.63126 14.6587 2.49958L14.2594 2.28493C13.9785 2.13761 13.768 1.86267 13.768 1.52019C13.768 1.02246 14.1234 0.660034 14.8165 0.660034C15.4173 0.660034 15.6541 0.958767 15.6541 1.39689C15.6541 1.50433 15.6366 1.59998 15.6146 1.66752L14.9786 1.68339C15.0006 1.63964 15.0268 1.56779 15.0268 1.47622C15.0268 1.27314 14.9347 1.20152 14.7768 1.20152C14.6365 1.20152 14.5311 1.2813 14.5311 1.47237C14.5311 1.67931 14.7594 1.80284 14.9741 1.89418L15.2593 2.02156C15.6191 2.1809 15.8121 2.43543 15.8121 2.83797C15.8124 3.40756 15.5447 3.81373 14.7464 3.81373Z" fill="#B9B9B9" fill-opacity="0.7"/>
<path id="Vector_14" d="M18.1422 1.26899V3.76538H17.3966V1.26899H16.7998V0.707336H18.7388V1.26922H18.1422V1.26899Z" fill="#B9B9B9" fill-opacity="0.7"/>
<path id="Vector_15" d="M20.7605 3.81373C20.0369 3.81373 19.7734 3.52316 19.7734 2.2328C19.7734 1.16978 19.9839 0.660034 20.7605 0.660034C21.5149 0.660034 21.7476 1.08615 21.7476 2.2328C21.7476 3.40756 21.5811 3.81373 20.7605 3.81373ZM20.7605 1.1818C20.5368 1.1818 20.5368 1.40075 20.5368 2.24096C20.5368 3.13331 20.5543 3.25638 20.7605 3.25638C20.9713 3.25638 20.9843 3.12877 20.9843 2.24096C20.9845 1.39689 20.9933 1.1818 20.7605 1.1818Z" fill="#B9B9B9" fill-opacity="0.7"/>
<path id="Vector_16" d="M24.337 3.76538L23.6176 2.14887V3.76538H23.0078V0.707336H23.6571L24.3063 2.16088V0.707336H24.8899V3.76538H24.337Z" fill="#B9B9B9" fill-opacity="0.7"/>
</g>
</g>
<defs>
<clipPath id="clip0_68_11247">
<rect width="58.4579" height="11.7757" fill="white" transform="translate(-0.172852 0.612183)"/>
</clipPath>
</defs>
</svg>
