<svg width="104" height="34" viewBox="0 0 104 34" fill="none" xmlns="http://www.w3.org/2000/svg">
<path d="M56.1295 15.8124C55.0171 15.8124 54.073 15.6037 53.2971 15.1862C52.5306 14.7688 51.9463 14.1843 51.5443 13.4329C51.1424 12.6815 50.9414 11.8003 50.9414 10.7891C50.9414 9.75014 51.1471 8.85032 51.5584 8.08964C51.979 7.32896 52.582 6.7399 53.3672 6.32246C54.1524 5.90501 55.0966 5.69629 56.1996 5.69629C56.8914 5.69629 57.5457 5.79369 58.1627 5.9885C58.789 6.18331 59.2985 6.44305 59.6911 6.76773L58.99 8.45143C58.56 8.13602 58.1206 7.91339 57.6719 7.78351C57.2232 7.64437 56.7371 7.57479 56.2136 7.57479C55.2134 7.57479 54.4609 7.85309 53.9561 8.40968C53.4607 8.957 53.213 9.75014 53.213 10.7891C53.213 11.8374 53.4653 12.6305 53.9701 13.1686C54.4843 13.7066 55.2415 13.9756 56.2417 13.9756C56.7745 13.9756 57.3354 13.8921 57.9243 13.7252V11.8049H55.793V10.2464H59.7191V15.061C59.233 15.3022 58.6721 15.4877 58.0365 15.6176C57.4008 15.7474 56.7652 15.8124 56.1295 15.8124Z" fill="#EAEAEA"/>
<path d="M63.0449 15.6593V5.84935H67.56C68.663 5.84935 69.5137 6.11373 70.112 6.6425C70.7102 7.17126 71.0094 7.90875 71.0094 8.85496C71.0094 9.58781 70.8177 10.2001 70.4345 10.6917C70.0606 11.1741 69.5231 11.5034 68.822 11.6797C69.3174 11.8281 69.724 12.1852 70.0419 12.7511L71.6404 15.6593H69.2426L67.5319 12.5285C67.3917 12.278 67.2188 12.1064 67.0131 12.0136C66.8075 11.9116 66.5644 11.8606 66.284 11.8606H65.2183V15.6593H63.0449ZM65.2183 10.3021H67.1674C68.3359 10.3021 68.9201 9.83827 68.9201 8.91062C68.9201 7.99224 68.3359 7.53305 67.1674 7.53305H65.2183V10.3021Z" fill="#EAEAEA"/>
<path d="M74.2104 15.6593V5.84935H80.983V7.53305H76.2857V9.829H80.6745V11.5266H76.2857V13.9756H80.983V15.6593H74.2104Z" fill="#EAEAEA"/>
<path d="M84.1024 15.6593V5.84935H90.875V7.53305H86.1777V9.829H90.5665V11.5266H86.1777V13.9756H90.875V15.6593H84.1024Z" fill="#EAEAEA"/>
<path d="M93.9944 15.6593V5.84935H96.1678V10.1212H96.1959L100.304 5.84935H102.912L98.3132 10.5387L103.109 15.6593H100.473L96.1959 11.1787H96.1678V15.6593H93.9944Z" fill="#EAEAEA"/>
<path d="M51.3799 28.1898V20.9143H52.9772V24.0825H52.9978L56.0173 20.9143H57.9341L54.554 24.3921L58.0784 28.1898H56.141L52.9978 24.8668H52.9772V28.1898H51.3799Z" fill="#EAEAEA"/>
<path d="M59.4854 28.1898V20.9143H64.4629V22.163H61.0106V23.8658H64.2362V25.1248H61.0106V26.9411H64.4629V28.1898H59.4854Z" fill="#EAEAEA"/>
<path d="M66.7555 28.1898V20.9143H71.733V22.163H68.2807V23.8658H71.5063V25.1248H68.2807V26.9411H71.733V28.1898H66.7555Z" fill="#EAEAEA"/>
<path d="M74.0257 28.1898V20.9143H77.344C78.1547 20.9143 78.7799 21.1207 79.2196 21.5335C79.6593 21.9394 79.8792 22.507 79.8792 23.2363C79.8792 23.9656 79.6593 24.5366 79.2196 24.9494C78.7799 25.3622 78.1547 25.5686 77.344 25.5686H75.623V28.1898H74.0257ZM75.623 24.3302H77.0761C77.9211 24.3302 78.3437 23.9656 78.3437 23.2363C78.3437 22.5208 77.9211 22.163 77.0761 22.163H75.623V24.3302Z" fill="#EAEAEA"/>
<path d="M81.8997 28.1898V20.9143H86.8772V22.163H83.4249V23.8658H86.6505V25.1248H83.4249V26.9411H86.8772V28.1898H81.8997Z" fill="#EAEAEA"/>
<path d="M89.1698 28.1898V20.9143H92.4882C93.2989 20.9143 93.9241 21.1104 94.3638 21.5025C94.8035 21.8947 95.0233 22.4416 95.0233 23.1434C95.0233 23.6869 94.8825 24.141 94.6008 24.5056C94.326 24.8634 93.931 25.1076 93.4157 25.2383C93.7798 25.3484 94.0787 25.6133 94.3123 26.033L95.4871 28.1898H93.7248L92.4676 25.8679C92.3645 25.6821 92.2374 25.5548 92.0863 25.486C91.9351 25.4103 91.7565 25.3725 91.5504 25.3725H90.7672V28.1898H89.1698ZM90.7672 24.2167H92.1996C93.0584 24.2167 93.4878 23.8727 93.4878 23.1847C93.4878 22.5036 93.0584 22.163 92.1996 22.163H90.7672V24.2167Z" fill="#EAEAEA"/>
<path d="M99.9427 28.3034C99.3725 28.3034 98.8332 28.2311 98.3248 28.0866C97.8232 27.9422 97.4042 27.7461 97.0675 27.4984L97.5313 26.2394C97.8542 26.4664 98.2217 26.6453 98.6339 26.776C99.053 26.9067 99.4893 26.9721 99.9427 26.9721C100.437 26.9721 100.791 26.8964 101.004 26.745C101.224 26.5868 101.334 26.3907 101.334 26.1568C101.334 25.9573 101.258 25.7991 101.107 25.6821C100.956 25.5651 100.692 25.4654 100.314 25.3828L99.1492 25.1351C97.8507 24.8599 97.2015 24.1857 97.2015 23.1124C97.2015 22.6515 97.3251 22.249 97.5725 21.905C97.8198 21.5541 98.1633 21.2824 98.603 21.0897C99.0496 20.8971 99.5649 20.8008 100.149 20.8008C100.65 20.8008 101.121 20.873 101.561 21.0175C102 21.162 102.365 21.3649 102.653 21.6264L102.189 22.8028C101.626 22.3556 100.942 22.132 100.139 22.132C99.7057 22.132 99.3691 22.218 99.1286 22.39C98.895 22.5552 98.7782 22.7719 98.7782 23.0402C98.7782 23.2397 98.8504 23.4014 98.9946 23.5252C99.1389 23.6491 99.3897 23.7488 99.7469 23.8245L100.911 24.0722C102.244 24.3611 102.911 25.0147 102.911 26.033C102.911 26.487 102.787 26.8861 102.54 27.2301C102.299 27.5672 101.956 27.8321 101.509 28.0247C101.069 28.2105 100.547 28.3034 99.9427 28.3034Z" fill="#EAEAEA"/>
<path d="M35.3777 10.9066C37.5972 10.7891 39.0401 10.3402 40.7374 9.40762C42.9689 8.18192 43.9159 4.3356 43.9159 4.3356C38.4362 8.01765 30.9445 8.79654 30.9445 8.79654C28.7122 12.3745 26.6555 14.469 24.9348 15.6841C24.6517 15.5196 24.3976 15.3101 24.1824 15.0638C23.6496 14.3614 23.5877 13.6476 23.6048 13.5266C23.6218 13.4055 23.7469 13.2093 24.0311 13.1229C24.1275 13.0888 24.2307 13.078 24.3322 13.0916C24.4336 13.1051 24.5303 13.1426 24.6143 13.2008C24.5312 12.7052 24.485 12.468 24.1938 12.2223C23.9231 11.995 23.4307 11.9603 23.4307 11.9603C23.1834 11.7609 22.8867 11.6317 22.5718 11.5864C21.7448 11.471 21.1985 11.8264 20.8106 12.1876C20.2927 12.6698 20.2522 13.5683 19.8792 14.6C19.7117 15.0555 19.3858 15.4359 18.9606 15.6721C17.2441 14.4541 15.1952 12.3618 12.9707 8.79796C12.9707 8.79796 5.47901 8.01906 0 4.33702C0 4.33702 0.946323 8.18334 3.17786 9.40904C4.87584 10.3416 6.31877 10.7905 8.53751 10.9081C8.53751 10.9081 5.54579 11.1637 2.10791 9.51242C2.10791 9.51242 4.04034 12.548 5.8591 13.5393C7.67786 14.5306 9.94918 14.9222 11.5655 14.8422C11.5655 14.8422 8.7542 15.517 6.41823 14.5306C6.41823 14.5306 8.87213 17.751 13.2684 17.6462C13.2684 17.6462 11.8425 18.0052 10.5133 17.768C10.5133 17.768 12.5359 19.4766 14.2076 19.7577C14.2076 19.7577 14.8826 19.8915 16.2779 19.7407C15.8479 20.0067 15.3538 20.1523 14.8478 20.162C14.8478 20.162 16.2758 21.0117 17.3386 21.1045C17.6203 21.1231 17.9033 21.1117 18.1826 21.0705C17.977 21.1949 17.7497 21.2794 17.5127 21.3197C17.5127 21.3197 18.93 21.8232 19.8572 21.3842C18.8277 24.4948 18.0689 25.4273 18.0689 25.4273L18.3418 25.7516C18.3699 25.7857 18.4057 25.8127 18.4463 25.8306C18.4868 25.8484 18.5309 25.8565 18.5752 25.8543C18.6194 25.8521 18.6625 25.8396 18.7011 25.8179C18.7396 25.7961 18.7725 25.7657 18.7972 25.729L19.4081 24.8935L18.6927 26.1871L18.9932 26.4866C19.0244 26.5181 19.0624 26.5419 19.1044 26.5561C19.1464 26.5703 19.1912 26.5745 19.2351 26.5684C19.279 26.5622 19.3208 26.546 19.3573 26.5208C19.3938 26.4957 19.4238 26.4624 19.4451 26.4236L19.8451 25.7601L19.3137 26.9745L19.6419 27.2443C19.6759 27.2727 19.7161 27.2928 19.7594 27.3029C19.8026 27.3131 19.8476 27.3129 19.8907 27.3026C19.9339 27.2923 19.974 27.272 20.0079 27.2435C20.0418 27.2149 20.0685 27.1788 20.0859 27.1381L20.3317 26.6247L20.0298 27.5948L20.385 27.8263C20.4219 27.8502 20.4638 27.8652 20.5075 27.8701C20.5512 27.8751 20.5954 27.8699 20.6367 27.8549C20.678 27.84 20.7153 27.8157 20.7456 27.7839C20.7759 27.7522 20.7984 27.7139 20.8113 27.672L21.0955 26.8548L20.8866 27.9595C20.8712 28.0415 20.88 28.1262 20.9119 28.2034C20.9438 28.2805 20.9974 28.3468 21.0663 28.3942L21.6873 28.7242L21.9274 27.1664L22.1668 28.7242L22.7885 28.3942C22.8574 28.3468 22.911 28.2805 22.9429 28.2034C22.9748 28.1262 22.9836 28.0415 22.9682 27.9595L22.7672 26.8548L23.0513 27.672C23.0643 27.7139 23.0868 27.7522 23.1171 27.7839C23.1473 27.8157 23.1846 27.84 23.2259 27.8549C23.2672 27.8699 23.3115 27.8751 23.3551 27.8701C23.3988 27.8652 23.4407 27.8502 23.4776 27.8263L23.8328 27.5948L23.5309 26.6247L23.7767 27.1381C23.7941 27.1788 23.8208 27.2149 23.8547 27.2435C23.8886 27.272 23.9287 27.2923 23.9719 27.3026C24.0151 27.3129 24.0601 27.3131 24.1033 27.3029C24.1465 27.2928 24.1867 27.2727 24.2208 27.2443L24.549 26.9745L24.0169 25.7601L24.4176 26.4236C24.4388 26.4624 24.4689 26.4957 24.5053 26.5208C24.5418 26.546 24.5837 26.5622 24.6276 26.5684C24.6715 26.5745 24.7162 26.5703 24.7582 26.5561C24.8002 26.5419 24.8383 26.5181 24.8694 26.4866L25.1699 26.1871L24.4488 24.8942L25.0598 25.7297C25.0844 25.7665 25.1174 25.7971 25.156 25.8189C25.1946 25.8408 25.2378 25.8533 25.2821 25.8555C25.3265 25.8577 25.3707 25.8495 25.4113 25.8316C25.4519 25.8137 25.4877 25.7866 25.5159 25.7524L25.7887 25.4281C25.7887 25.4281 25.0271 24.4927 23.9948 21.3679V21.3601C24.9184 21.8487 26.3983 21.3233 26.3983 21.3233C26.1615 21.2829 25.9344 21.1983 25.729 21.074C26.0081 21.1152 26.2908 21.1266 26.5724 21.108C27.638 21.0138 29.0632 20.1656 29.0632 20.1656C28.5571 20.1558 28.0631 20.0103 27.6331 19.7443C29.0284 19.8951 29.7033 19.7612 29.7033 19.7612C31.3786 19.478 33.3977 17.7715 33.3977 17.7715C32.0684 18.0087 30.6425 17.6497 30.6425 17.6497C35.0388 17.7524 37.4934 14.5342 37.4934 14.5342C35.1575 15.5205 32.3462 14.8457 32.3462 14.8457C33.9618 14.9257 36.2338 14.5335 38.0519 13.5428C39.8699 12.5522 41.8073 9.51171 41.8073 9.51171C38.3694 11.1623 35.3777 10.9066 35.3777 10.9066Z" fill="#EAEAEA"/>
<path d="M38.346 15.1714C38.2884 15.2472 37.5361 16.2137 36.1521 17.118C36.118 24.8906 29.7637 31.2025 21.958 31.2025C14.1522 31.2025 7.79722 24.8899 7.76312 17.118C6.37916 16.2137 5.6275 15.2472 5.56924 15.1714L5.03995 14.4761C4.9105 15.3296 4.84567 16.1917 4.846 17.0549C4.87512 21.5591 6.69078 25.8688 9.89667 29.0435C13.1026 32.2182 17.4383 34 21.9576 34C26.4769 34 30.8127 32.2182 34.0185 29.0435C37.2244 25.8688 39.0401 21.5591 39.0692 17.0549C39.0694 16.1917 39.0048 15.3297 38.876 14.4761L38.346 15.1714Z" fill="#EAEAEA"/>
<path d="M8.77124 6.90737C9.82911 7.17857 10.7712 7.36975 11.5029 7.50004C12.8305 6.05266 14.4459 4.89672 16.2464 4.10587C18.0469 3.31501 19.9929 2.90657 21.9604 2.90657C23.928 2.90657 25.874 3.31501 27.6745 4.10587C29.4749 4.89672 31.0904 6.05266 32.418 7.50004C33.1497 7.36975 34.0918 7.17857 35.1496 6.90737C35.3024 6.86772 35.4601 6.82594 35.6214 6.78204C35.142 6.15161 34.6198 5.55471 34.0584 4.99554C32.4696 3.41177 30.5833 2.15545 28.5073 1.29831C26.4312 0.441167 24.2061 0 21.959 0C19.7119 0 17.4868 0.441167 15.4108 1.29831C13.3348 2.15545 11.4485 3.41177 9.85966 4.99554C9.29827 5.55471 8.77605 6.15161 8.29666 6.78204C8.45794 6.82594 8.61565 6.86772 8.77124 6.90737Z" fill="#EAEAEA"/>
</svg>
